<?xml version="1.0" standalone="no"?>
<!DOCTYPE svg PUBLIC "-//W3C//DTD SVG 1.1//EN" "http://www.w3.org/Graphics/SVG/1.1/DTD/svg11.dtd" >
<svg>
<metadata>
Created by FontForge 20090914 at Fri Oct  4 04:07:47 2019
 By www-data
Copyright (c) 1991. VNI All Rights Reserved.
</metadata>
<defs>
<font id="VNI-Franko" horiz-adv-x="40" >
  <font-face 
    font-family="VNI-Franko"
    font-weight="400"
    font-stretch="normal"
    units-per-em="1000"
    panose-1="0 0 0 0 0 0 0 0 0 0"
    ascent="800"
    descent="-200"
    x-height="502"
    cap-height="712"
    bbox="-468 -228 1000 1136"
    underline-thickness="50"
    underline-position="-75"
    unicode-range="U+0020-U+2122"
  />
<missing-glyph horiz-adv-x="838" 
d="M52 0v838h734v-838h-734zM734 52v734h-630v-734h630z" />
    <glyph glyph-name=".notdef" horiz-adv-x="838" 
d="M52 0v838h734v-838h-734zM734 52v734h-630v-734h630z" />
    <glyph glyph-name="space" unicode=" " horiz-adv-x="290" 
 />
    <glyph glyph-name="exclam" unicode="!" horiz-adv-x="368" 
d="M130 248l-46 464h186l-32 -464h-108zM94 0v174h174v-174h-174z" />
    <glyph glyph-name="quotedbl" unicode="&#x22;" horiz-adv-x="524" 
d="M310 378v334h132v-334h-132zM78 378v334h132v-334h-132z" />
    <glyph glyph-name="numbersign" unicode="#" horiz-adv-x="534" 
d="M484 298v-96h-86l-26 -202h-100l26 202h-90l-28 -202h-100l28 202h-84v96h98l16 118h-84v96h96l28 200h100l-28 -200h92l26 200h100l-26 -200h72v-96h-86l-16 -118h72zM238 416l-16 -118h90l16 118h-90z" />
    <glyph glyph-name="dollar" unicode="$" horiz-adv-x="534" 
d="M246 726l0.000976562 85.998h54v-90c46.667 -6.66699 87 -23.667 121 -51s58.333 -61 73 -101l-144 -60c-10.667 24 -22.667 42.333 -36 55c-16.667 15.333 -37.334 23 -62.001 23c-16.667 0 -31.167 -5 -43.5 -15s-18.5 -25 -18.5 -45c0 -26 27.667 -50.333 83 -73
c82.667 -34.667 134.334 -59 155.001 -73c56 -39.333 84 -90.666 84 -153.999s-19.833 -116.166 -59.5 -158.499s-90.5 -68.833 -152.5 -79.5v-96h-54v92c-58.667 0 -110.5 15.833 -155.5 47.5s-77.833 75.834 -98.5 132.501l150 60c14.667 -34 29.667 -58.333 45 -73
c20 -19.333 45.667 -29 77 -29c21.333 0 39 5.66699 53 17s21 25.666 21 42.999c0 38 -27.333 68.667 -82 92c-90.667 38.667 -141.334 62 -152.001 70c-54.667 40 -82 99.333 -82 178c0 53.333 22.333 100.333 67 141s97 61 157 61z" />
    <glyph glyph-name="percent" unicode="%" horiz-adv-x="690" 
d="M528 62c12.667 0 20.5 8.83105 23.5 26.498s4.5 46.834 4.5 87.501c0 36 -0.333008 58.333 -1 67c-2.66699 31.333 -11.667 47 -27 47c-12.667 0 -20.5 -8.66699 -23.5 -26s-4.5 -46.666 -4.5 -87.999c0 -44 1.33301 -74 4 -90s10.667 -24 24 -24zM528 -10.002
c-48.667 0 -83.666 20 -104.999 60c-16.667 31.333 -25 73.333 -25 126c0 54 8 96 24 126c21.333 40 56.666 60 105.999 60c48 0 83 -20 105 -60c16.667 -30.667 25 -72.667 25 -126s-8.33301 -95.333 -25 -126c-21.333 -40 -56.333 -60 -105 -60zM158.001 421.998
c12.667 0 20.5 8.83105 23.5 26.498s4.5 46.834 4.5 87.501c0 36 -0.333008 58.333 -1 67c-2.66699 31.333 -11.667 47 -27 47c-12.667 0 -20.5 -8.66699 -23.5 -26s-4.5 -46.666 -4.5 -87.999c0 -44 1.33301 -74 4 -90s10.667 -24 24 -24zM158.001 349.996
c-48 0 -83.001 20 -105.001 60c-16.667 30.667 -25 72.667 -25 126s8.33301 95.333 25 126c21.333 40 56.333 60 105 60s83.667 -20 105 -60c16.667 -31.333 25 -73.333 25 -126c0 -54 -8 -96 -24 -126c-21.333 -40 -56.666 -60 -105.999 -60zM596 735.996l-420 -760h-92
l420 760h92z" />
    <glyph glyph-name="ampersand" unicode="&#x26;" horiz-adv-x="636" 
d="M624 142v-156.001c-34.667 0 -71.667 6.33301 -111 19c-45.333 14.667 -78.333 33.667 -99 57c-27.333 -23.333 -58.333 -41.833 -93 -55.5s-69.667 -20.5 -105 -20.5c-54.667 0 -102.667 17.667 -144 53c-44 37.333 -66 83 -66 137c0 47.333 16 89.666 48 126.999
c26 30 62 56.333 108 79c-17.333 28 -31 54 -41 78c-12.667 30.667 -19 58.667 -19 84c0 54.667 19.333 98.667 58 132s86.667 50 144 50c51.333 0 94.666 -12.333 129.999 -37c41.333 -28.667 62 -69 62 -121c0 -28 -9 -55.667 -27 -83
c-23.333 -35.333 -61 -69.666 -113 -102.999l80 -102c10 9.33301 21.667 32 35 68c6 16.667 10.333 30.667 13 42l130 -30c-2 -19.333 -12.5 -48.333 -31.5 -87s-39.167 -71 -60.5 -97c10 -9.33301 24.833 -17.666 44.5 -24.999s36.834 -11 51.501 -11zM322 153.999
l-95.998 127.999c-12 -12 -21.667 -25.333 -29 -40s-11 -30 -11 -46s6.66699 -31 20 -45s28.666 -21 45.999 -21c13.333 0 26.666 1.83301 39.999 5.5s23.333 9.83398 30 18.501zM304.002 617.998c-13.333 0 -24.333 -5 -33 -15s-13 -22.333 -13 -37c0 -14 5 -30.667 15 -50
c4 -8 13 -23.333 27 -46l33 44c12.667 18.667 19 36 19 52c0 15.333 -4.5 27.833 -13.5 37.5s-20.5 14.5 -34.5 14.5z" />
    <glyph glyph-name="quotesingle" unicode="'" horiz-adv-x="268" 
d="M68 378v334h132v-334h-132z" />
    <glyph glyph-name="parenleft" unicode="(" horiz-adv-x="346" 
d="M292 -92h-152c-22 69.333 -38.167 136.333 -48.5 201s-15.5 131.667 -15.5 201c0 66 6 132.167 18 198.5s29.333 134.166 52 203.499h146c-22.667 -66.667 -40.334 -136 -53.001 -208s-19 -143.333 -19 -214c0 -72.667 5.33301 -139.667 16 -201
s29.334 -121.666 56.001 -180.999z" />
    <glyph glyph-name="parenright" unicode=")" horiz-adv-x="346" 
d="M42 712h152.002c22 -68.667 38.167 -135.167 48.5 -199.5s15.5 -131.833 15.5 -202.5c0 -65.333 -6 -131 -18 -197s-29.333 -134.333 -52 -205h-146c23.333 68 41.166 137.833 53.499 209.5s18.5 142.5 18.5 212.5c0 72 -5.33301 139.167 -16 201.5
s-29.334 122.5 -56.001 180.5z" />
    <glyph glyph-name="asterisk" unicode="*" horiz-adv-x="390" 
d="M330 438l-84 -54l-46 122h-10l-52 -118l-82 54l100 86l-4 12l-130 14l30 94l110 -70l14 8l-28 126h96l-30 -126l12 -10l116 68l28 -96l-132 -8l-6 -12z" />
    <glyph glyph-name="plus" unicode="+" horiz-adv-x="602" 
d="M240 314v192h120v-192h194v-120h-194v-194h-120v194h-192v120h192z" />
    <glyph glyph-name="comma" unicode="," horiz-adv-x="268" 
d="M48 0v174h174v-152l-100 -184h-92l80 162h-62z" />
    <glyph glyph-name="hyphen" unicode="-" horiz-adv-x="290" 
d="M28 190v138h240v-138h-240z" />
    <glyph glyph-name="period" unicode="." horiz-adv-x="268" 
d="M48 0v174h174v-174h-174z" />
    <glyph glyph-name="slash" unicode="/" horiz-adv-x="458" 
d="M-58 -14l312 740h120l-312 -740h-120z" />
    <glyph glyph-name="zero" unicode="0" horiz-adv-x="546" 
d="M18 356c0 108 16 191.667 48 251c41.333 76.667 108.666 115 201.999 115s160.333 -38 201 -114c32.667 -60.667 49 -144.667 49 -252c0 -108 -19 -193.667 -57 -257c-43.333 -72.667 -107.666 -109 -192.999 -109c-94 0 -161 36 -201 108
c-32.667 58.667 -49 144.667 -49 258zM204 464v-216.003c0 -51.333 5.33301 -87.166 16 -107.499s26.667 -30.5 48 -30.5c22.667 0 39 9.83301 49 29.5s15 55.834 15 108.501v216c0 52.667 -5 88.834 -15 108.501s-26.333 29.5 -49 29.5c-22 0 -37.667 -9 -47 -27
c-11.333 -21.333 -17 -58.333 -17 -111z" />
    <glyph glyph-name="one" unicode="1" horiz-adv-x="546" 
d="M372 712v-592h106v-120h-382v120h108v416l-108 -26v122c22 3.33301 54 14 96 32s68 34 78 48h102z" />
    <glyph glyph-name="two" unicode="2" horiz-adv-x="546" 
d="M22 0v122.002l115 105c56 53.333 100.667 101.666 134 144.999c43.333 56 65 101.333 65 136c0 22 -5 40.167 -15 54.5s-25.667 21.5 -47 21.5c-24 0 -43.667 -11 -59 -33c-10 -14 -19 -36.333 -27 -67l-154 40c16 61.333 46.667 109.666 92 144.999s100 53 164 53
c66.667 0 120 -16.333 160 -49c44 -36 66 -86.333 66 -151c0 -51.333 -17 -101 -51 -149c-26 -36.667 -65 -76.667 -117 -120l-126 -101l284 -2v-150h-484z" />
    <glyph glyph-name="three" unicode="3" horiz-adv-x="546" 
d="M162 300l-0.000976562 120h40c36 0 63 6.33301 81 19c22 15.333 33 39.666 33 72.999c0 24.667 -6.16699 44.834 -18.5 60.501s-28.833 23.5 -49.5 23.5c-23.333 0 -42.5 -7.83301 -57.5 -23.5s-25.833 -36.5 -32.5 -62.5l-134 60c21.333 48.667 53.333 86.167 96 112.5
s91.334 39.5 146.001 39.5c63.333 0 116.666 -17.667 159.999 -53c46.667 -38 70 -87.667 70 -149c0 -40 -15.667 -74 -47 -102c-28 -24.667 -63.667 -41.334 -107 -50.001c53.333 -8 94.333 -24 123 -48c34 -28.667 51 -68 51 -118
c0 -67.333 -28.667 -120.666 -86 -159.999c-50.667 -34.667 -111.334 -52 -182.001 -52c-110 0 -188.667 50 -236 150l130 64c16.667 -36 32.334 -59.667 47.001 -71s32.334 -17 53.001 -17c27.333 0 48.833 7.5 64.5 22.5s23.5 36.167 23.5 63.5
c0 40 -12.667 67.333 -38 82c-18 10.667 -46.667 16 -86 16h-44z" />
    <glyph glyph-name="four" unicode="4" horiz-adv-x="546" 
d="M272 288v232l-134 -232h134zM264 0v174h-252v114l254 424h174v-424h84v-114h-86v-174h-174z" />
    <glyph glyph-name="five" unicode="5" horiz-adv-x="546" 
d="M46 340l27.9961 371.999h412l-12 -144h-272l-8 -132c12.667 8 28.834 14.333 48.501 19s38.167 7 55.5 7c68 0 121.333 -21.333 160 -64s58 -98 58 -166c0 -67.333 -26.167 -124.5 -78.5 -171.5s-114.166 -70.5 -185.499 -70.5c-57.333 0 -106.166 15.667 -146.499 47
s-68.166 74.333 -83.499 129l134 50c10 -32.667 20.333 -56 31 -70c16 -20 37.667 -30 65 -30c26 0 47 12 63 36c14 21.333 21 45.333 21 72c0 32.667 -6.66699 59.667 -20 81c-15.333 24.667 -38 37 -68 37c-17.333 0 -32 -4.66699 -44 -14s-22.667 -22.666 -32 -39.999z
" />
    <glyph glyph-name="six" unicode="6" horiz-adv-x="546" 
d="M504 536l-152.002 -24c-4 25.333 -10 44.333 -18 57c-11.333 18 -28 27 -50 27c-34.667 0 -58.334 -25.667 -71.001 -77c-7.33301 -29.333 -11 -68.333 -11 -117c22 13.333 44.167 23.666 66.5 30.999s44.833 11 67.5 11c50.667 0 94.334 -17.667 131.001 -53
s55 -80.333 55 -135c0 -79.333 -22.167 -143.5 -66.5 -192.5s-106.166 -73.5 -185.499 -73.5c-88 0 -154.333 39.333 -199 118c-36.667 64 -55 143.333 -55 238c0 97.333 19.667 180.333 59 249c48.667 84.667 118.334 127 209.001 127c62 0 111.667 -15.667 149 -47
s61 -77.666 71 -138.999zM199.998 306c0 -34.667 0.333008 -57.3301 1 -67.9971s3.16699 -26.834 7.5 -48.501s11.333 -39.334 21 -53.001s23.167 -20.5 40.5 -20.5c27.333 0 47 13 59 39c8.66699 18.667 13 43.667 13 75c0 32 -5 56 -15 72c-12 18.667 -31 28 -57 28
c-13.333 0 -26 -2.33301 -38 -7c-7.33301 -2.66699 -18 -8.33398 -32 -17.001z" />
    <glyph glyph-name="seven" unicode="7" horiz-adv-x="546" 
d="M38 562l-0.000976562 150h462v-90c-50.667 -82 -87.667 -146.667 -111 -194c-33.333 -68 -57.666 -132.667 -72.999 -194c-17.333 -70.667 -26 -148.667 -26 -234h-204c14 90.667 43.333 188 88 292c36 83.333 83.333 173.333 142 270h-278z" />
    <glyph glyph-name="eight" unicode="8" horiz-adv-x="546" 
d="M268 110c22 0 41.5 6.66895 58.5 20.002s25.5 31.333 25.5 54c0 28.667 -13 52.667 -39 72c-12.667 9.33301 -37.667 22.666 -75 39.999c-16 -18.667 -26.333 -31.334 -31 -38.001c-14 -19.333 -21 -43.333 -21 -72c0 -22.667 7.66699 -41 23 -55s35 -21 59 -21z
M286 614.002c-21.333 0 -39.666 -6.16699 -54.999 -18.5s-23 -28.833 -23 -49.5c0 -27.333 11 -50.333 33 -69c1.33301 -0.666992 23.666 -15 66.999 -43c22 22 36.5 40 43.5 54s10.5 29.333 10.5 46c0 53.333 -25.333 80 -76 80zM282 722.002
c62.667 0 113.333 -14.332 152 -42.999c44 -32.667 66 -79.667 66 -141c0 -34.667 -11 -65.834 -33 -93.501s-49.667 -47.834 -83 -60.501c94.667 -26.667 142 -88.667 142 -186c0 -67.333 -28.667 -120 -86 -158c-50 -33.333 -111.333 -50 -184 -50
c-60 0 -113.667 15.667 -161 47c-55.333 36.667 -83 85.667 -83 147c0 42 14 77.667 42 107c26 26.667 60 45 102 55c-36.667 15.333 -65.167 37.5 -85.5 66.5s-30.5 62.833 -30.5 101.5c0 64.667 25 116.334 75 155.001c45.333 35.333 101 53 167 53z" />
    <glyph glyph-name="nine" unicode="9" horiz-adv-x="546" 
d="M32 178l154.003 23.999c2.66699 -25.333 8 -44.666 16 -57.999c11.333 -18.667 28.666 -28 51.999 -28c26.667 0 47 15.833 61 47.5s21 81.167 21 148.5c-25.333 -14 -48.333 -24.833 -69 -32.5s-42.334 -11.5 -65.001 -11.5c-50.667 0 -94.334 18 -131.001 54
s-55 81.333 -55 136c0 79.333 22.167 143.166 66.5 191.499s105.5 72.5 183.5 72.5c88.667 0 155.667 -39.333 201 -118c36.667 -63.333 55 -142.666 55 -237.999c0 -96.667 -20 -179.667 -60 -249c-48.667 -84.667 -118 -127 -208 -127
c-125.333 0 -199.333 62.667 -222 188zM336.003 407.999c0 16.667 -0.167969 33.833 -0.500977 51.5s-2.16602 37.834 -5.49902 60.501c-6 24.667 -13 42.667 -21 54c-10.667 14.667 -25 22 -43 22c-26.667 0 -45.667 -12.667 -57 -38c-8.66699 -19.333 -13 -44 -13 -74
c0 -32.667 5.16699 -57.834 15.5 -75.501s28.5 -26.5 54.5 -26.5c14 0 27 2.66699 39 8c2.66699 1.33301 13 7.33301 31 18z" />
    <glyph glyph-name="colon" unicode=":" horiz-adv-x="268" 
d="M48 328v174h174v-174h-174zM48 0v174h174v-174h-174z" />
    <glyph glyph-name="semicolon" unicode=";" horiz-adv-x="268" 
d="M48 0v174h174v-152l-100 -184h-92l80 162h-62zM48 328v174h174v-174h-174z" />
    <glyph glyph-name="less" unicode="&#x3c;" horiz-adv-x="602" 
d="M554 108v-116l-506 214v94l506 214v-114l-352 -146z" />
    <glyph glyph-name="equal" unicode="=" horiz-adv-x="602" 
d="M554 426v-120h-506v120h506zM554 202v-120h-506v120h506z" />
    <glyph glyph-name="greater" unicode="&#x3e;" horiz-adv-x="602" 
d="M48 108l350 146l-350 146v114l506 -214v-94l-506 -214v116z" />
    <glyph glyph-name="question" unicode="?" horiz-adv-x="446" 
d="M148 248l-0.00195312 46.001c0 51.333 21 102 63 152s63 86 63 108c0 18 -5.16699 31.5 -15.5 40.5s-24.5 13.5 -42.5 13.5c-22.667 0 -40 -11.667 -52 -35c-9.33301 -18.667 -14 -42.334 -14 -71.001l-142 24c0 62 20.833 110.167 62.5 144.5s94.834 51.5 159.501 51.5
c55.333 0 102 -12.667 140 -38c44 -29.333 66 -70 66 -122c0 -29.333 -7.33301 -56 -22 -80c-8 -13.333 -24.167 -32.833 -48.5 -58.5s-41.166 -46.5 -50.499 -62.5c-15.333 -26 -23 -54.333 -23 -85v-28h-144zM133.998 0.000976562v174h174v-174h-174z" />
    <glyph glyph-name="at" unicode="@" horiz-adv-x="802" 
d="M388 268c26 0 47.166 8.83301 63.499 26.5s24.5 38.834 24.5 63.501c0 21.333 -6 38.666 -18 51.999s-28.667 20 -50 20c-23.333 0 -43.166 -9.16699 -59.499 -27.5s-24.5 -39.166 -24.5 -62.499c0 -20.667 5.83301 -37.834 17.5 -51.501s27.167 -20.5 46.5 -20.5z
M591.999 518l-29.9961 -165.999c-2.66699 -17.333 -5.33398 -32.666 -8.00098 -45.999s-4 -21.333 -4 -24c0 -12 4 -18 12 -18c24 0 45.667 10 65 30c23.333 24.667 35 58 35 100c0 77.333 -22.167 136 -66.5 176s-105.5 60 -183.5 60c-77.333 0 -142.333 -26.667 -195 -80
s-79 -118 -79 -194s26.667 -140.667 80 -194s120.666 -80 201.999 -80c44 0 80.667 3 110 9c45.333 9.33301 83.333 25.666 114 48.999l86 -20c-35.333 -49.333 -83 -85 -143 -107c-48.667 -18 -104.334 -27 -167.001 -27c-111.333 0 -204.166 35.833 -278.499 107.5
s-111.5 159.167 -111.5 262.5c0 102 36.833 189.167 110.5 261.5s164.167 108.5 271.5 108.5c96.667 0 178.667 -25.667 246 -77c74.667 -57.333 112 -133 112 -227c0 -88.667 -28.667 -154.667 -86 -198c-46 -34.667 -102.667 -52 -170 -52c-42.667 0 -64 15.333 -64 46
c-10 -13.333 -23.333 -24.333 -40 -33s-36 -13 -58 -13c-34 0 -63.667 14 -89 42c-27.333 30 -41 68 -41 114c0 53.333 16.167 99.666 48.5 138.999s74.166 59 125.499 59c45.333 0 80.666 -17.333 105.999 -52l8 44h82z" />
    <glyph glyph-name="A" unicode="A" horiz-adv-x="558" 
d="M-10 0l168 712h236l152 -712h-182l-28 144h-164l-32 -144h-150zM196 270h116l-52 290z" />
    <glyph glyph-name="B" unicode="B" horiz-adv-x="612" 
d="M46 0v712h300c64 0 115 -15.667 153 -47s57 -72.333 57 -123c0 -42.667 -12.667 -79.167 -38 -109.5s-57.333 -49.833 -96 -58.5c46.667 -12 82.667 -33 108 -63s38 -68.333 38 -115c0 -60 -21 -107.667 -63 -143s-98.333 -53 -169 -53h-290zM226 310l0.000976562 -178
h66c24.667 0 44.667 6 60 18c20 15.333 30 39.333 30 72c0 27.333 -7.83301 48.833 -23.5 64.5s-37.834 23.5 -66.501 23.5h-66zM226.001 586v-156.001h60c30 0 52.5 7.33301 67.5 22s22.5 33.334 22.5 56.001c0 30 -9.33301 51.333 -28 64c-14 9.33301 -33.333 14 -58 14
h-64z" />
    <glyph glyph-name="C" unicode="C" horiz-adv-x="558" 
d="M536 464l-167.999 -0.00195312c0 32.667 -4.66699 60.334 -14 83.001c-13.333 31.333 -34 47 -62 47c-34.667 0 -58.667 -23 -72 -69c-10.667 -36.667 -16 -93 -16 -169c0 -85.333 4.66699 -143.333 14 -174c12.667 -42.667 38.667 -64 78 -64
c31.333 0 53.666 12.667 66.999 38c11.333 22 17 57.333 17 106l156 -14c0 -79.333 -22 -142.833 -66 -190.5s-104.667 -71.5 -182 -71.5c-100 0 -173.667 38.667 -221 116c-38 62.667 -57 147.334 -57 254.001c0 102.667 18.667 185.667 56 249c48 80.667 122 121 222 121
c82 0 144.667 -25.333 188 -76c40 -46.667 60 -108.667 60 -186z" />
    <glyph glyph-name="D" unicode="D" horiz-adv-x="612" 
d="M46 0v712h196c106.667 0 188 -31.333 244 -94c53.333 -60 80 -143.333 80 -250c0 -110 -23 -196.667 -69 -260c-52 -72 -129.667 -108 -233 -108h-218zM226 586v-460h20c54.667 0 91.334 29.333 110.001 88c10.667 34 16 87.333 16 160c0 58.667 -6.66699 104 -20 136
c-20.667 50.667 -57.334 76 -110.001 76h-16z" />
    <glyph glyph-name="E" unicode="E" horiz-adv-x="558" 
d="M46 0v712h448v-138h-268v-144h180v-138h-180v-148h268v-144h-448z" />
    <glyph glyph-name="F" unicode="F" horiz-adv-x="524" 
d="M46 0v712h430v-138h-250v-144h178v-138h-178v-292h-180z" />
    <glyph glyph-name="G" unicode="G" horiz-adv-x="558" 
d="M538 354v-365.998h-74l-36 68c-19.333 -22 -43 -39.167 -71 -51.5s-56.333 -18.5 -85 -18.5c-89.333 0 -156.333 32.667 -201 98c-40.667 60 -61 144.667 -61 254c0 111.333 18.667 199.666 56 264.999c46.667 82 120.667 123 222 123c85.333 0 150 -24.667 194 -74
c41.333 -46.667 62 -111.334 62 -194.001h-174c0 46.667 -4.66699 79.667 -14 99c-12 24.667 -33.333 37 -64 37c-34.667 0 -58.667 -23 -72 -69c-10.667 -36.667 -16 -93 -16 -169c0 -85.333 4.66699 -143.333 14 -174c12.667 -42.667 38.667 -64 78 -64
c27.333 0 49 13.667 65 41c14 23.333 21 48.333 21 75h-90v120h246z" />
    <glyph glyph-name="H" unicode="H" horiz-adv-x="612" 
d="M46 0v712h180v-276h142v276h180v-712h-180v292h-142v-292h-180z" />
    <glyph glyph-name="I" unicode="I" horiz-adv-x="280" 
d="M50 0v712h180v-712h-180z" />
    <glyph glyph-name="J" unicode="J" horiz-adv-x="334" 
d="M288 712v-568c0 -57.333 -19 -99 -57 -125c-32 -22 -79 -33 -141 -33c-16.667 0 -29 0.333008 -37 1s-26.333 3 -55 7v136c14 -4 26.667 -6 38 -6c30.667 0 51 8.33301 61 25c7.33301 12.667 11 35.667 11 69v494h180z" />
    <glyph glyph-name="K" unicode="K" horiz-adv-x="612" 
d="M46 0v712h180v-306l176 306h178l-158 -234l154 -478h-176l-98 308l-76 -112v-196h-180z" />
    <glyph glyph-name="L" unicode="L" horiz-adv-x="524" 
d="M46 0v712h180v-586h244v-126h-424z" />
    <glyph glyph-name="M" unicode="M" horiz-adv-x="758" 
d="M46 0v712h252l78 -398l92 398h246v-712h-180v526l-126 -526h-108l-114 544l-2 -544h-138z" />
    <glyph glyph-name="N" unicode="N" horiz-adv-x="590" 
d="M46 0v712h150l206 -382l2 382h144v-712h-144l-212 398l-2 -398h-144z" />
    <glyph glyph-name="O" unicode="O" horiz-adv-x="580" 
d="M10 356c0 104.667 19.668 188.999 59.001 252.999c48 78 121 117 219 117c97.333 0 169.666 -38.667 216.999 -116c39.333 -64.667 59 -149.334 59 -254.001c0 -105.333 -19.333 -189.666 -58 -252.999c-47.333 -78 -120 -117 -218 -117c-97.333 0 -170 38.667 -218 116
c-40 64.667 -60 149.334 -60 254.001zM204.001 355.999c0 -87.333 3.33203 -144.333 9.99902 -171c11.333 -44.667 36 -67 74 -67c37.333 0 61.333 22 72 66c6.66699 27.333 10 84.666 10 171.999c0 86.667 -3.33301 143.667 -10 171c-10.667 44.667 -34.667 67 -72 67
s-61.666 -22 -72.999 -66c-7.33301 -29.333 -11 -86.666 -11 -171.999z" />
    <glyph glyph-name="P" unicode="P" horiz-adv-x="558" 
d="M226 586v-174h32c30.667 0 55.667 6 75 18c24.667 15.333 37 38 37 68c0 30.667 -12 53.667 -36 69c-20 12.667 -45.333 19 -76 19h-32zM46 0l-0.000976562 711.999h268c71.333 0 128.333 -16 171 -48c47.333 -35.333 71 -86.666 71 -153.999
c0 -77.333 -25.333 -135 -76 -173c-45.333 -34 -106.666 -51 -183.999 -51c-8 0 -21.167 0.666992 -39.5 2s-28.5 2 -30.5 2v-290h-180z" />
    <glyph glyph-name="Q" unicode="Q" horiz-adv-x="580" 
d="M552 -6l0.00195312 -144c-58 0 -103.333 9.66699 -136 29c-38 22.667 -63.333 59.667 -76 111c-8.66699 -0.666992 -16.834 -1.5 -24.501 -2.5s-16.834 -1.5 -27.501 -1.5c-97.333 0 -170 38.667 -218 116c-40 64.667 -60 149.334 -60 254.001s19.667 189 59 253
c48 78 121 117 219 117c97.333 0 169.666 -38.667 216.999 -116c39.333 -64.667 59 -149.334 59 -254.001c0 -64 -8.66699 -122 -26 -174c-19.333 -58.667 -48.666 -104.667 -87.999 -138c11.333 -20 23.5 -33.333 36.5 -40s34.833 -10 65.5 -10zM204.002 356
c0 -87.333 3.33203 -144.333 9.99902 -171c11.333 -44.667 36 -67 74 -67c37.333 0 61.333 22 72 66c6.66699 27.333 10 84.666 10 171.999c0 86.667 -3.33301 143.667 -10 171c-10.667 44.667 -34.667 67 -72 67s-61.666 -22 -72.999 -66
c-7.33301 -29.333 -11 -86.666 -11 -171.999z" />
    <glyph glyph-name="R" unicode="R" horiz-adv-x="602" 
d="M46 0l0.000976562 711.997h268c72 0 129 -16 171 -48c46 -35.333 69 -86.666 69 -153.999c0 -37.333 -10.833 -70.666 -32.5 -99.999s-50.834 -50.666 -87.501 -63.999l120 -346h-178l-90 308h-60v-308h-180zM226.001 579.997v-158.001h36
c35.333 0 62.833 6.33301 82.5 19s29.5 32.334 29.5 59.001c0 33.333 -12 56 -36 68c-16 8 -43.333 12 -82 12h-30z" />
    <glyph glyph-name="S" unicode="S" horiz-adv-x="534" 
d="M-8 166l150.001 59.999c14.667 -34 29.667 -58.333 45 -73c20 -19.333 45.667 -29 77 -29c21.333 0 39 5.66699 53 17s21 25.666 21 42.999c0 38 -27.333 68.667 -82 92c-90.667 38.667 -141.334 62 -152.001 70c-54.667 40 -82 99.333 -82 178
c0 53.333 23.167 100.333 69.5 141s99.833 61 160.5 61c58 0 108.667 -14.667 152 -44s73.333 -66.666 90 -111.999l-144 -60c-10.667 24 -22.667 42.333 -36 55c-16.667 15.333 -37.334 23 -62.001 23c-16.667 0 -31.167 -5 -43.5 -15s-18.5 -25 -18.5 -45
c0 -26 27.667 -50.333 83 -73c82.667 -34.667 134.334 -59 155.001 -73c56 -39.333 84 -90.666 84 -153.999c0 -71.333 -25.167 -129.5 -75.5 -174.5s-111.833 -67.5 -184.5 -67.5c-60.667 0 -114 15.5 -160 46.5s-79.333 75.5 -100 133.5z" />
    <glyph glyph-name="T" unicode="T" horiz-adv-x="534" 
d="M-10 574v138h502v-138h-160v-574h-180v574h-162z" />
    <glyph glyph-name="U" unicode="U" horiz-adv-x="580" 
d="M528 712v-486c0 -80 -21 -140 -63 -180s-103 -60 -183 -60c-79.333 0 -138.5 20.5 -177.5 61.5s-58.5 100.5 -58.5 178.5v486h180v-494c0 -30.667 5.33301 -54 16 -70c13.333 -20 34 -30 62 -30s48 11.333 60 34c9.33301 18 14 43.333 14 76v484h150z" />
    <glyph glyph-name="V" unicode="V" horiz-adv-x="546" 
d="M150 0l-160 712h182l84 -496l122 496h150l-194 -712h-184z" />
    <glyph glyph-name="W" unicode="W" horiz-adv-x="802" 
d="M150 0l-148 712h172l70 -442l90 442h160l82 -442l82 442h138l-156 -712h-154l-84 474l-98 -474h-154z" />
    <glyph glyph-name="X" unicode="X" horiz-adv-x="558" 
d="M186 354l-174 358h196l76 -186l94 186h162l-180 -324l186 -388h-194l-94 214l-102 -214h-166z" />
    <glyph glyph-name="Y" unicode="Y" horiz-adv-x="558" 
d="M170 0v278l-180 434h190l94 -280l112 280h160l-196 -424v-288h-180z" />
    <glyph glyph-name="Z" unicode="Z" horiz-adv-x="512" 
d="M478 132v-132h-478v90l262 490h-230v132h450v-90l-262 -490h258z" />
    <glyph glyph-name="bracketleft" unicode="[" horiz-adv-x="368" 
d="M72 -92v804h224v-96h-92v-612h92v-96h-224z" />
    <glyph glyph-name="backslash" unicode="\" horiz-adv-x="458" 
d="M62 726l312 -740h-120l-312 740h120z" />
    <glyph glyph-name="bracketright" unicode="]" horiz-adv-x="368" 
d="M262 712v-804h-224v96h92v612h-92v96h224z" />
    <glyph glyph-name="asciicircum" unicode="^" horiz-adv-x="602" 
d="M74 348l174 364h106l174 -364h-118l-110 244l-110 -244h-116z" />
    <glyph glyph-name="underscore" unicode="_" horiz-adv-x="502" 
d="M500 -126h-500v50h500v-50z" />
    <glyph glyph-name="grave" unicode="`" horiz-adv-x="346" 
d="M-44 700h154l94 -144h-100z" />
    <glyph glyph-name="a" unicode="a" horiz-adv-x="476" 
d="M276 320l0.00195312 33.999c0 16.667 -3.33301 30.5 -10 41.5s-17.334 16.5 -32.001 16.5c-16.667 0 -29.5 -7 -38.5 -21s-13.5 -29 -13.5 -45l-142 30c8.66699 46 32.667 81.333 72 106c34.667 21.333 77.334 32 128.001 32c55.333 0 100.666 -11.333 135.999 -34
c41.333 -26.667 62 -66 62 -118v-280c0 -26.667 1.33301 -45.167 4 -55.5s6.66699 -19.166 12 -26.499h-168l-4 46c-16 -18.667 -34.167 -33 -54.5 -43s-42.833 -15 -67.5 -15c-44.667 0 -79.834 13.5 -105.501 40.5s-38.5 64.833 -38.5 113.5c0 61.333 29.667 108 89 140
c47.333 25.333 104.333 38 171 38zM276.002 127.999l0.000976562 114c-35.333 -3.33301 -59.333 -10 -72 -20c-17.333 -13.333 -26 -37.333 -26 -72c0 -36 15.333 -54 46 -54c15.333 0 32.666 10.667 51.999 32z" />
    <glyph glyph-name="b" unicode="b" horiz-adv-x="534" 
d="M214 396l-0.000976562 -234.001l-2 -10c0 -16.667 5.5 -30.167 16.5 -40.5s23.5 -15.5 37.5 -15.5c21.333 0 35.333 10.333 42 31s10 56.334 10 107.001v38c0 49.333 -0.666992 80 -2 92c-4.66699 40 -20.667 60 -48 60c-8.66699 0 -17.667 -2.33301 -27 -7
c-5.33301 -2.66699 -11.666 -7 -18.999 -13zM51.999 -0.000976562l-0.000976562 712.002h162v-238c12 12 27.333 21.667 46 29s36.667 11 54 11c54 0 96.667 -24.667 128 -74c29.333 -46.667 44 -107.334 44 -182.001c0 -68 -13.667 -126.333 -41 -175
c-33.333 -59.333 -81 -89 -143 -89c-30.667 0 -56.667 6.66699 -78 20s-40.666 32.666 -57.999 57.999l-30 -72h-84z" />
    <glyph glyph-name="c" unicode="c" horiz-adv-x="468" 
d="M442 316l-137.999 -0.000976562c0 13.333 -0.5 25 -1.5 35s-3.33301 19.667 -7 29s-9.16699 17 -16.5 23s-17 9 -29 9c-24.667 0 -40.834 -13.333 -48.501 -40s-11.5 -68.667 -11.5 -126c0 -55.333 4.66699 -94.166 14 -116.499s24.666 -33.5 45.999 -33.5
c24.667 0 42 11 52 33c6.66699 15.333 10 36.333 10 63l126 -18c-12 -124 -78.667 -186 -200 -186c-69.333 0 -124.666 26.333 -165.999 79c-37.333 47.333 -56 105 -56 173c0 74.667 19 137.667 57 189c42 56.667 99 85 171 85c74 0 128.333 -26.667 163 -80
c23.333 -36 35 -75.333 35 -118z" />
    <glyph glyph-name="d" unicode="d" horiz-adv-x="468" 
d="M450 712l0.000976562 -712.001h-154v50c-24 -22 -44.667 -36.833 -62 -44.5s-38 -11.5 -62 -11.5c-50.667 0 -90 23.667 -118 71c-25.333 42.667 -38 98.334 -38 167.001c0 80.667 11.667 143.667 35 189c28 54 71.667 81 131 81c41.333 0 76.666 -14.667 105.999 -44
v254h162zM288.001 127.999l-0.000976562 262c-5.33301 6 -12.5 11.167 -21.5 15.5s-19.167 6.5 -30.5 6.5c-22 0 -37.333 -16 -46 -48c-5.33301 -20 -8 -50.667 -8 -92l2 -12c0 -51.333 0.666992 -84.333 2 -99c4.66699 -47.333 18.667 -71 42 -71
c12 0 23.333 3.33301 34 10s19.334 16 26.001 28z" />
    <glyph glyph-name="e" unicode="e" horiz-adv-x="468" 
d="M448 216l-269.999 0.000976562c0 -31.333 4 -56.666 12 -75.999c12 -29.333 32 -44 60 -44c20 0 37.333 6.33301 52 19s24.667 29.667 30 51l110 -40c-13.333 -40.667 -38.333 -73.834 -75 -99.501s-79 -38.5 -127 -38.5c-72.667 0 -129.334 26.667 -170.001 80
c-36 47.333 -54 108.666 -54 183.999s18.333 136.666 55 183.999c40 52 95.667 78 167 78c72 0 126.333 -27.667 163 -83c31.333 -47.333 47 -107.666 47 -180.999v-34zM178.001 312.001h120.001c0 30 -3 52.333 -9 67c-9.33301 22 -26.333 33 -51 33
c-20.667 0 -35.834 -9.83301 -45.501 -29.5s-14.5 -43.167 -14.5 -70.5z" />
    <glyph glyph-name="f" unicode="f" horiz-adv-x="334" 
d="M56 0l0.000976562 388.001h-66v114h66v56c0 59.333 14.167 102.166 42.5 128.499s70.166 39.5 125.499 39.5c28.667 0 56 -2 82 -6v-124c-10.667 2.66699 -20.667 4 -30 4c-38.667 0 -58 -14 -58 -42v-56h88v-114h-88v-388h-162z" />
    <glyph glyph-name="g" unicode="g" horiz-adv-x="524" 
d="M496 544l-0.000976562 -128.001c-7.33301 6.66699 -13.333 11.334 -18 14.001c-12.667 8 -26 12 -40 12c-12.667 0 -21.334 -3.33301 -26.001 -10c8.66699 -10.667 14.834 -22.667 18.501 -36s5.5 -28.666 5.5 -45.999c0 -46 -22 -83 -66 -111
c-38.667 -24.667 -82.667 -37 -132 -37c-16.667 0 -28.667 0.5 -36 1.5s-18.666 3.16699 -33.999 6.5l-9 -13c-4.66699 -7.33301 -7 -13 -7 -17c0 -19.333 14.333 -30.666 43 -33.999c11.333 -1.33301 30.333 -2 57 -2c66 0 115.667 -7 149 -21
c51.333 -21.333 77 -60.333 77 -117c0 -50.667 -22.5 -89.334 -67.5 -116.001s-105.833 -40 -182.5 -40c-74.667 0 -132.334 9.16699 -173.001 27.5s-61 43.833 -61 76.5c0 24.667 10 45 30 61c16.667 13.333 38.667 22.333 66 27c-23.333 9.33301 -40 19.333 -50 30
c-13.333 14 -20 32 -20 54c0 23.333 11 44.333 33 63c18.667 16 40.334 27 65.001 33c-31.333 14.667 -54.833 33.5 -70.5 56.5s-23.5 48.833 -23.5 77.5c0 52 23.667 92.667 71 122c38.667 24 83 36 133 36c26 0 51.333 -2.83301 76 -8.5s46 -14.834 64 -27.501
c6 14 23 28.5 51 43.5s53.667 22.5 77 22.5zM227.999 23.999c-36 0 -62.667 -3.66699 -80 -11s-26 -19 -26 -35c0 -21.333 19.333 -35 58 -41c13.333 -2 29.333 -3 48 -3c32.667 0 56 1.66699 70 5c28 6.66699 42 19.667 42 39c0 15.333 -9.16699 26.833 -27.5 34.5
s-46.5 11.5 -84.5 11.5zM227.999 441.999c-19.333 0 -33.166 -8.83301 -41.499 -26.5s-12.5 -38.167 -12.5 -61.5c0 -21.333 4.16699 -40 12.5 -56s22.166 -24 41.499 -24c20.667 0 36 9.33301 46 28c8 14.667 12 34 12 58c0 22.667 -4.66699 42 -14 58s-24 24 -44 24z" />
    <glyph glyph-name="h" unicode="h" horiz-adv-x="502" 
d="M44 0l0.000976562 712h162v-276c37.333 52 85.333 78 144 78c33.333 0 59.666 -10 78.999 -30s29 -47.333 29 -82v-402h-162v356c0 14.667 -2.83301 25.667 -8.5 33s-16.167 11 -31.5 11c-16.667 0 -30.667 -6.66699 -42 -20l-8 -12v-368h-162z" />
    <glyph glyph-name="i" unicode="i" horiz-adv-x="246" 
d="M40 0v502h162v-502h-162zM40 568v144h162v-144h-162z" />
    <glyph glyph-name="j" unicode="j" horiz-adv-x="246" 
d="M40 32l0.000976562 470h162v-482c0 -56.667 -17.833 -99.167 -53.5 -127.5s-91.834 -42.5 -168.501 -42.5v128c0.666992 -0.666992 3.16699 -1.16699 7.5 -1.5s8.5 -0.5 12.5 -0.5c15.333 0 25.833 4.16699 31.5 12.5s8.5 22.833 8.5 43.5zM40.001 568v144h162v-144h-162
z" />
    <glyph glyph-name="k" unicode="k" horiz-adv-x="534" 
d="M44 0v712h162v-366l128 156h148l-126 -144l132 -358h-168l-74 232l-40 -46v-186h-162z" />
    <glyph glyph-name="l" unicode="l" horiz-adv-x="246" 
d="M40 0v712h162v-712h-162z" />
    <glyph glyph-name="m" unicode="m" horiz-adv-x="736" 
d="M38 0l-0.00195312 501.999h162v-66c37.333 52 85.333 78 144 78c26.667 0 50.334 -7.16699 71.001 -21.5s31 -33.166 31 -56.499c37.333 52 85.333 78 144 78c34.667 0 62.334 -9 83.001 -27s31 -44.333 31 -79v-408h-162v356c0 14.667 -2.83301 25.667 -8.5 33
s-16.167 11 -31.5 11c-16.667 0 -30.667 -6.66699 -42 -20l-8 -12v-368h-162v356c0 14.667 -2.83301 25.667 -8.5 33s-16.167 11 -31.5 11c-16.667 0 -30.667 -6.66699 -42 -20l-8 -12v-368h-162z" />
    <glyph glyph-name="n" unicode="n" horiz-adv-x="502" 
d="M44 0l0.000976562 502h162v-66c37.333 52 85.333 78 144 78c33.333 0 59.666 -10 78.999 -30s29 -47.333 29 -82v-402h-162v356c0 14.667 -2.83301 25.667 -8.5 33s-16.167 11 -31.5 11c-16.667 0 -30.667 -6.66699 -42 -20l-8 -12v-368h-162z" />
    <glyph glyph-name="o" unicode="o" horiz-adv-x="490" 
d="M16 254c0 78 18.667 140.001 56 186.001c40 49.333 96.667 74 170 74c72.667 0 129 -24.333 169 -73c38 -46.667 57 -109 57 -187c0 -80.667 -18.333 -144.334 -55 -191.001c-39.333 -50 -96.333 -75 -171 -75s-131.667 24.667 -171 74c-36.667 46 -55 110 -55 192z
M184 254.001c0 -62 4.5 -104.833 13.5 -128.5s23.833 -35.5 44.5 -35.5s35.5 11.833 44.5 35.5s13.5 66.5 13.5 128.5c0 60 -3.83301 101.333 -11.5 124s-23.167 34 -46.5 34c-22.667 0 -38 -11.5 -46 -34.5s-12 -64.167 -12 -123.5z" />
    <glyph glyph-name="p" unicode="p" horiz-adv-x="534" 
d="M214 378l-0.000976562 -268c7.33301 -7.33301 15.333 -12.5 24 -15.5s17.334 -4.5 26.001 -4.5c23.333 0 38.666 14 45.999 42c5.33301 20 8 56.667 8 110c0 117.333 -15.333 176 -46 176c-12.667 0 -24.667 -4 -36 -12s-18.666 -17.333 -21.999 -28zM51.999 -150
l-0.00195312 652h156v-52c32.667 38.667 71.334 58 116.001 58c50 0 89.5 -20.833 118.5 -62.5s43.5 -100.167 43.5 -175.5c0 -76 -11.667 -137 -35 -183c-29.333 -58 -75 -87 -137 -87c-37.333 0 -70.666 14.667 -99.999 44v-194h-162z" />
    <glyph glyph-name="q" unicode="q" horiz-adv-x="468" 
d="M288 110l0.00195312 234.001c0 21.333 -4 38 -12 50s-20.667 18 -38 18c-22.667 0 -37.334 -13.333 -44.001 -40s-10 -71.334 -10 -134.001c0 -60.667 4.66699 -102.667 14 -126c7.33301 -18.667 20 -28 38 -28c7.33301 0 15.166 1.66699 23.499 5s17.833 10.333 28.5 21
zM450.002 502.001v-651.999h-162v192l-2 -2c-14.667 -16.667 -30 -28.5 -46 -35.5s-34.667 -10.5 -56 -10.5c-56.667 0 -99.667 24.667 -129 74c-26 43.333 -39 100.666 -39 171.999c0 66 14.333 124.667 43 176c34.667 61.333 81.667 92 141 92c33.333 0 61 -6 83 -18
s42.333 -30 61 -54l22 66h84z" />
    <glyph glyph-name="r" unicode="r" horiz-adv-x="402" 
d="M44 0v502h158v-76c10 30 29.833 52.167 59.5 66.5s62.5 21.5 98.5 21.5v-164c-10 4 -18 6.66699 -24 8c-14 4 -28 6 -42 6c-24.667 0 -43 -3 -55 -9s-23 -15.667 -33 -29v-326h-162z" />
    <glyph glyph-name="s" unicode="s" horiz-adv-x="446" 
d="M410 378l-112 -29.999c-10.667 19.333 -20.334 33.666 -29.001 42.999c-13.333 14 -29 21 -47 21c-16 0 -28 -3 -36 -9s-12 -13.667 -12 -23c0 -20 21 -38.333 63 -55c68 -26.667 107.667 -43.667 119 -51c42.667 -28 64 -66 64 -114c0 -52.667 -18.5 -94.5 -55.5 -125.5
s-85.833 -46.5 -146.5 -46.5c-54 0 -99.167 12.833 -135.5 38.5s-61.166 60.167 -74.499 103.5l124 40c11.333 -23.333 22 -40.333 32 -51c14.667 -15.333 32.667 -23 54 -23c15.333 0 27.833 3.5 37.5 10.5s14.5 16.167 14.5 27.5c0 21.333 -21 40 -63 56
c-65.333 25.333 -105 42.333 -119 51c-42.667 28 -64 67 -64 117c0 35.333 14.333 68 43 98c36.667 38.667 87 58 151 58c44.667 0 83.334 -10.333 116.001 -31c37.333 -23.333 62.666 -58.333 75.999 -105z" />
    <glyph glyph-name="t" unicode="t" horiz-adv-x="334" 
d="M56 116l0.000976562 272.001h-66v114h66v180h162v-180h90v-114h-90v-212c0 -22.667 2 -37.334 6 -44.001c7.33301 -12 22.666 -18 45.999 -18c13.333 0 26 2 38 6v-118c-15.333 -4.66699 -32.833 -8.16699 -52.5 -10.5s-40.167 -3.5 -61.5 -3.5c-44 0 -78 10.333 -102 31
s-36 53 -36 97z" />
    <glyph glyph-name="u" unicode="u" horiz-adv-x="502" 
d="M458 502v-501.999h-162v68c-18 -26 -39.5 -45.833 -64.5 -59.5s-52.167 -20.5 -81.5 -20.5c-32.667 0 -58.5 10.167 -77.5 30.5s-28.5 48.166 -28.5 83.499v400h162v-354c0 -15.333 2.66699 -26.833 8 -34.5s15.333 -11.5 30 -11.5c17.333 0 31.333 7.33301 42 22l10 12
v366h162z" />
    <glyph glyph-name="v" unicode="v" horiz-adv-x="434" 
d="M134 0l-142 502h168l58 -272l70 272h128l-160 -502h-122z" />
    <glyph glyph-name="w" unicode="w" horiz-adv-x="636" 
d="M108 0l-114 502h160l46 -258l58 258h136l46 -258l62 258h116l-130 -502h-128l-56 280l-70 -280h-126z" />
    <glyph glyph-name="x" unicode="x" horiz-adv-x="468" 
d="M302 272l150 -272h-178l-68 142l-68 -142h-146l154 240l-150 262h182l62 -136l68 136h142z" />
    <glyph glyph-name="y" unicode="y" horiz-adv-x="434" 
d="M-8 502l167.999 -0.000976562l58 -290l72 290h126l-168 -518c-16 -49.333 -42 -84.666 -78 -105.999c-31.333 -18.667 -73.333 -28 -126 -28c-8 0 -16.833 0.5 -26.5 1.5l-23.5 2.5v114c7.33301 -0.666992 14.5 -1.5 21.5 -2.5s14.5 -1.5 22.5 -1.5
c28.667 0 50.334 4 65.001 12c18 10 27 26 27 48c0 9.33301 -0.5 16.833 -1.5 22.5s-3.16699 13.5 -6.5 23.5z" />
    <glyph glyph-name="z" unicode="z" horiz-adv-x="424" 
d="M4 0v84l200 310h-172v108h354v-96l-184 -298h184v-108h-382z" />
    <glyph glyph-name="braceleft" unicode="{" horiz-adv-x="334" 
d="M2 262l-0.000976562 96c28.667 0 51.5 5.5 68.5 16.5s25.5 26.167 25.5 45.5v154c0 43.333 16.667 78.333 50 105c27.333 22 56 33 86 33h100v-90h-52c-23.333 0 -39.666 -7.33301 -48.999 -22c-6 -10 -9 -24 -9 -42v-150c0 -33.333 -13.667 -58.666 -41 -75.999
c-21.333 -13.333 -45 -20 -71 -20v-4c27.333 0 50.666 -6 69.999 -18c28 -17.333 42 -43.333 42 -78v-148c0 -24.667 4.83301 -41.834 14.5 -51.501s24.167 -14.5 43.5 -14.5h52v-90h-100c-29.333 0 -57.666 11 -84.999 33c-34 27.333 -51 62.333 -51 105v156
c0 23.333 -13 40 -39 50c-16.667 6.66699 -35 10 -55 10z" />
    <glyph glyph-name="bar" unicode="|" horiz-adv-x="224" 
d="M52 -14v740h120v-740h-120z" />
    <glyph glyph-name="braceright" unicode="}" horiz-adv-x="334" 
d="M332 358v-96.001c-29.333 0 -52.333 -5.33301 -69 -16s-25 -25.334 -25 -44.001v-156c0 -43.333 -16.667 -78.333 -50 -105c-27.333 -22 -56 -33 -86 -33h-100v90h52c24 0 40.333 7.33301 49 22c6 10 9 24.667 9 44v148c0 34.667 13.667 60.334 41 77.001
c20.667 12.667 44.334 19 71.001 19v4c-26.667 0 -50 6.33301 -70 19c-28 17.333 -42 43 -42 77v150c0 18.667 -2.66699 32.334 -8 41.001c-9.33301 15.333 -26 23 -50 23h-52v90h100c29.333 0 57.666 -11 84.999 -33c34 -27.333 51 -62.333 51 -105v-154
c0 -18.667 8.5 -33.667 25.5 -45s39.833 -17 68.5 -17z" />
    <glyph glyph-name="asciitilde" unicode="~" horiz-adv-x="602" 
d="M496 346l36.002 -96c-20 -28 -37 -47.667 -51 -59c-22 -18 -47 -27 -75 -27c-18 0 -36.333 3.66699 -55 11c-10 4 -27.333 12.667 -52 26s-44.834 22.166 -60.501 26.499s-31.834 6.5 -48.501 6.5c-20 0 -37.333 -7.66699 -52 -23c-11.333 -12 -22 -29 -32 -51l-36 96
c13.333 26 28.333 45.667 45 59c22 18 48.333 27 79 27c26.667 0 65 -11.667 115 -35s83 -35 99 -35c17.333 0 34 8 50 24c6 6.66699 18.667 23.334 38 50.001z" />
    <glyph glyph-name="c128" horiz-adv-x="290" 
 />
    <glyph glyph-name="c129" horiz-adv-x="290" 
 />
    <glyph glyph-name="c141" horiz-adv-x="290" 
 />
    <glyph glyph-name="c142" horiz-adv-x="290" 
 />
    <glyph glyph-name="c143" horiz-adv-x="290" 
 />
    <glyph glyph-name="c144" horiz-adv-x="290" 
 />
    <glyph glyph-name="c157" horiz-adv-x="290" 
 />
    <glyph glyph-name="c158" horiz-adv-x="290" 
 />
    <glyph glyph-name="nonbreakingspace" unicode="&#xa0;" horiz-adv-x="290" 
 />
    <glyph glyph-name="exclamdown" unicode="&#xa1;" horiz-adv-x="290" 
 />
    <glyph glyph-name="cent" unicode="&#xa2;" horiz-adv-x="534" 
d="M300 412h-11.999c-24.667 0 -40.834 -13.667 -48.501 -41s-11.5 -71 -11.5 -131c0 -38.667 2 -68 6 -88zM180.001 -78l17.999 79.999c-45.333 18 -80.666 49.333 -105.999 94s-38 92.667 -38 144c0 74.667 19 137.667 57 189c42 56.667 99.667 85 173 85h19.5
c6.33301 0 13.166 -0.666992 20.499 -2l14 58l38 -10l-14 -58c44 -16.667 76.667 -47.334 98 -92.001c14.667 -31.333 22 -62.666 22 -93.999h-138c0 16 -0.833008 29.167 -2.5 39.5s-4.16699 19.833 -7.5 28.5l-72 -286c7.33301 -5.33301 16 -8 26 -8
c26 0 43.667 11.333 53 34c6 14.667 9 37.334 9 68.001l126 -18c-12 -124 -78.667 -186 -200 -186c-7.33301 0 -14.166 0.166992 -20.499 0.5s-12.833 1.5 -19.5 3.5l-20 -78z" />
    <glyph glyph-name="sterling" unicode="&#xa3;" horiz-adv-x="534" 
d="M12 342v53.998h72c-6.66699 19.333 -12.334 39 -17.001 59s-7 39.667 -7 59c0 70 22.333 123.667 67 161c40.667 34 93.667 51 159 51s114.333 -12.667 147 -38s60.334 -70.666 83.001 -135.999l-144 -42c-8.66699 32 -15.667 52.333 -21 61c-14 23.333 -35 35 -63 35
c-16 0 -30 -6 -42 -18s-18 -26 -18 -42c0 -26.667 7.33301 -59.667 22 -99l20 -51h138v-54h-126v-40c0 -30.667 -8.66699 -59 -26 -85c-14.667 -22 -36 -43.667 -64 -65l2 -2h28c18.667 0 48.667 -4.33301 90 -13c22.667 -4.66699 38.667 -7 48 -7c25.333 0 49.333 4 72 12
c10.667 4 24.667 10.667 42 20l56 -138c-13.333 -10 -35.166 -18.833 -65.499 -26.5s-62.5 -11.5 -96.5 -11.5c-29.333 0 -54.833 1.83301 -76.5 5.5s-50.834 10.5 -87.501 20.5c-18 4 -37.333 6 -58 6c-38 0 -72 -10 -102 -30l-36 110c46.667 19.333 75.667 33 87 41
c28.667 20.667 43 47.667 43 81c0 15.333 -3.66699 35.333 -11 60s-15 45.334 -23 62.001h-92z" />
    <glyph glyph-name="currency" unicode="&#xa4;" horiz-adv-x="534" 
d="M8 158l58 57.998c-30.667 34.667 -46 81.334 -46 140.001c0 28.667 3.83301 55.667 11.5 81s19.167 45 34.5 59l-58 58l62 64l58 -56c15.333 12 35.833 22 61.5 30s51.834 12 78.501 12c27.333 0 53.5 -4 78.5 -12s44.167 -18 57.5 -30l62 56l64 -66l-56 -56
c13.333 -14 23.666 -33.5 30.999 -58.5s11 -52.167 11 -81.5c0 -26.667 -3.66699 -52.667 -11 -78s-17.666 -46.666 -30.999 -63.999l56 -56l-64 -62l-56 58c-14.667 -13.333 -35.167 -24.333 -61.5 -33s-53.166 -13 -80.499 -13c-28.667 0 -55.334 4 -80.001 12
s-45.334 19.333 -62.001 34l-56 -58zM140 355.998c0 -34.667 12.333 -64.667 37 -90s55 -38 91 -38c35.333 0 65.5 12.5 90.5 37.5s37.5 55.167 37.5 90.5c0 36 -12.333 66.333 -37 91s-55 37 -91 37s-66.333 -12.333 -91 -37s-37 -55 -37 -91z" />
    <glyph glyph-name="yen" unicode="&#xa5;" horiz-adv-x="534" 
d="M182 0v164h-132v78h132v46l-16 38h-116v78h86l-120 308h176l80 -284l100 284h148l-132 -308h80v-78h-114l-16 -38v-46h130v-78h-130v-164h-156z" />
    <glyph glyph-name="brokenbar" unicode="&#xa6;" horiz-adv-x="224" 
d="M52 -14v276h120v-276h-120zM52 452v274h120v-274h-120z" />
    <glyph glyph-name="section" unicode="&#xa7;" horiz-adv-x="534" 
d="M168 328c0 -20.667 16.333 -41 49 -61c15.333 -9.33301 41 -21 77 -35c16.667 10 32 22.333 46 37c18.667 19.333 28 35.666 28 48.999c0 30.667 -26 56.667 -78 78l-68 26c-19.333 -18.667 -32.333 -32.667 -39 -42c-10 -15.333 -15 -32.666 -15 -51.999zM484 678
l-56.0029 -102.005c-24 12.667 -45.667 22.334 -65 29.001c-24.667 8.66699 -47.667 13 -69 13c-14.667 0 -26.667 -3.33301 -36 -10s-14 -17.334 -14 -32.001c0 -14 22.667 -29.667 68 -47c60 -23.333 102 -44 126 -62c45.333 -34 68 -78.333 68 -133
c0 -35.333 -10 -66.666 -30 -93.999c-17.333 -24 -43.333 -46 -78 -66c24 -8.66699 43 -24.5 57 -47.5s21 -49.167 21 -78.5c0 -52 -22.333 -93.667 -67 -125c-39.333 -27.333 -85.666 -41 -138.999 -41c-38 0 -74.667 5.33301 -110 16s-71.333 26.667 -108 48l62 98
c36 -19.333 59 -31.333 69 -36c27.333 -12 52.333 -18 75 -18c17.333 0 31 2.33301 41 7c14 6.66699 21 17.667 21 33c0 24.667 -25 49 -75 73c-77.333 36.667 -123.666 60.667 -138.999 72c-50.667 36.667 -76 82.334 -76 137.001c0 34.667 9 66.334 27 95.001
s42.333 52.334 73 71.001c-5.33301 2.66699 -10.666 7.33398 -15.999 14.001c-17.333 20.667 -26 48 -26 82c0 50 21 88.667 63 116c36.667 24 81.667 36 135 36c68 0 134 -16 198 -48z" />
    <glyph glyph-name="dieresis" unicode="&#xa8;" horiz-adv-x="346" 
d="M-40 558v126h126v-126h-126zM156 558v126h126v-126h-126z" />
    <glyph glyph-name="copyright" unicode="&#xa9;" horiz-adv-x="802" 
d="M482 308l84 -0.00195312c-6.66699 -43.333 -24.5 -76.833 -53.5 -100.5s-63.833 -35.5 -104.5 -35.5c-51.333 0 -93.5 17.833 -126.5 53.5s-49.5 79.834 -49.5 132.501c0 54.667 15.833 99.334 47.5 134.001s74.5 52 128.5 52c38.667 0 72 -11.667 100 -35
s45.333 -56.333 52 -99h-80c-2.66699 19.333 -10.667 33.5 -24 42.5s-29.333 13.5 -48 13.5c-25.333 0 -45 -9.66699 -59 -29s-21 -45 -21 -77c0 -32.667 6.66699 -59.167 20 -79.5s33.333 -30.5 60 -30.5c20.667 0 37.667 4.83301 51 14.5s21 24.167 23 43.5zM30 355.998
c0 102 36.167 189.167 108.5 261.5s159.5 108.5 261.5 108.5s189.167 -36.167 261.5 -108.5s108.5 -159.5 108.5 -261.5s-36.167 -189.167 -108.5 -261.5s-159.5 -108.5 -261.5 -108.5s-189.167 36.167 -261.5 108.5s-108.5 159.5 -108.5 261.5zM138 355.998
c0 -80 24.333 -145.667 73 -197s111.667 -77 189 -77s140.333 25.667 189 77s73 117 73 197c0 81.333 -24 147.333 -72 198s-111.333 76 -190 76c-77.333 0 -140.333 -25.333 -189 -76s-73 -116.667 -73 -198z" />
    <glyph glyph-name="ordfeminine" unicode="&#xaa;" horiz-adv-x="624" 
d="M99 596h440v-452h-440v452z" />
    <glyph glyph-name="guillemotleft" unicode="&#xab;" horiz-adv-x="558" 
d="M244 260l220 212l72 -72l-146 -140l146 -142l-72 -70zM2 260l222 212l70 -72l-146 -140l146 -142l-70 -70z" />
    <glyph glyph-name="logicalnot" unicode="&#xac;" horiz-adv-x="602" 
d="M434 108v198h-386v120h506v-318h-120z" />
    <glyph glyph-name="minus" unicode="&#xad;" horiz-adv-x="290" 
d="M28 190v138h240v-138h-240z" />
    <glyph glyph-name="registered" unicode="&#xae;" horiz-adv-x="802" 
d="M346 324v-144h-78v356h142c45.333 0 79.333 -7.83301 102 -23.5s34 -43.167 34 -82.5c0 -34.667 -8.66699 -60.667 -26 -78c-14 -13.333 -33.333 -21.333 -58 -24l90 -148h-86l-80 144h-40zM346 470l-0.00195312 -80h68c16.667 0 28.834 2.66699 36.501 8
s11.5 16 11.5 32s-3.66699 26.667 -11 32s-19.666 8 -36.999 8h-68zM29.998 356c0 102 36.167 189.167 108.5 261.5s159.5 108.5 261.5 108.5s189.167 -36.167 261.5 -108.5s108.5 -159.5 108.5 -261.5s-36.167 -189.167 -108.5 -261.5s-159.5 -108.5 -261.5 -108.5
s-189.167 36.167 -261.5 108.5s-108.5 159.5 -108.5 261.5zM137.998 356c0 -80 24.333 -145.667 73 -197s111.667 -77 189 -77s140.333 25.667 189 77s73 117 73 197c0 81.333 -24 147.333 -72 198s-111.333 76 -190 76c-77.333 0 -140.333 -25.333 -189 -76
s-73 -116.667 -73 -198z" />
    <glyph glyph-name="macron" unicode="&#xaf;" horiz-adv-x="346" 
d="M-30 576v84h300v-84h-300z" />
    <glyph glyph-name="degree" unicode="&#xb0;" horiz-adv-x="882" 
d="M449 616c70 0 126.667 -22.667 170 -68s65 -101 65 -167c0 -66.667 -21.667 -122.167 -65 -166.5s-100 -66.5 -170 -66.5c-68 0 -123.667 22.667 -167 68s-65 100.333 -65 165c0 65.333 21.5 120.833 64.5 166.5s98.833 68.5 167.5 68.5z" />
    <glyph glyph-name="plusminus" unicode="&#xb1;" horiz-adv-x="602" 
d="M240 388v118h120v-118h194v-120h-194v-118h-120v118h-192v120h192zM48 0v120h506v-120h-506z" />
    <glyph glyph-name="twosuperior" unicode="&#xb2;" horiz-adv-x="368" 
d="M16 290l-0.000976562 72.001c58 49.333 105 93.666 141 132.999c42 46 63 78.333 63 97c0 12 -2.33301 21 -7 27c-6.66699 8.66699 -17 13 -31 13c-14.667 0 -26.167 -5 -34.5 -15s-13.5 -22.333 -15.5 -37l-108 24c10 36.667 29.833 65.5 59.5 86.5
s65.834 31.5 108.501 31.5s77.667 -9 105 -27c32.667 -21.333 49 -52.333 49 -93c0 -35.333 -16.667 -72.333 -50 -111c-24 -28 -54.667 -54.333 -92 -79l-32 -24l164 -2v-96h-320z" />
    <glyph glyph-name="threesuperior" unicode="&#xb3;" horiz-adv-x="368" 
d="M116 466l-0.000976562 78h34c14.667 0 28 3.66699 40 11c14.667 9.33301 22 21.666 22 36.999c0 13.333 -3.66699 24.333 -11 33s-17 13 -29 13c-15.333 0 -27.333 -3.66699 -36 -11s-15.334 -17.666 -20.001 -30.999l-94 34c30.667 61.333 86 92 166 92
c38.667 0 72.334 -10 101.001 -30c32.667 -22.667 49 -52.667 49 -90c0 -27.333 -10 -49.333 -30 -66c-14.667 -12 -34.667 -21.333 -60 -28c27.333 -1.33301 50 -9.33301 68 -24c21.333 -17.333 32 -42 32 -74c0 -40 -18.667 -71.667 -56 -95
c-33.333 -20.667 -73.333 -31 -120 -31c-74 0 -126.667 29.333 -158 88l92 40c8.66699 -15.333 17.167 -26.5 25.5 -33.5s20.5 -10.5 36.5 -10.5c36 0 54 16 54 48c0 19.333 -7.16699 32.5 -21.5 39.5s-33.166 10.5 -56.499 10.5h-28z" />
    <glyph glyph-name="acute" unicode="&#xb4;" horiz-adv-x="346" 
d="M284 700l-146 -144h-100l94 144h152z" />
    <glyph glyph-name="mu" unicode="&#xb5;" horiz-adv-x="502" 
d="M458 502l0.00195312 -502h-162v50c-4.66699 -9.33301 -10.334 -17 -17.001 -23c-10.667 -10 -22.334 -15 -35.001 -15c-22 0 -34 5.33301 -36 16l-2 -178h-162v652h162v-342c0 -15.333 2.66699 -26.833 8 -34.5s15.333 -11.5 30 -11.5c14 0 26.167 6 36.5 18
s15.5 29.333 15.5 52v318h162z" />
    <glyph glyph-name="paragraph" unicode="&#xb6;" horiz-adv-x="534" 
d="M194 -104v468c-56 0 -101.333 15.167 -136 45.5s-52 71.833 -52 124.5c0 66 23 113.667 69 143c36.667 23.333 89.667 35 159 35h272v-816h-120v726h-72v-726h-120z" />
    <glyph glyph-name="periodcentered" unicode="&#xb7;" horiz-adv-x="390" 
d="M50 280c0 23.333 8.16699 43.166 24.5 59.499s36.166 24.5 59.499 24.5s43.166 -8.16699 59.499 -24.5s24.5 -36.166 24.5 -59.499s-8.16699 -43.166 -24.5 -59.499s-36.166 -24.5 -59.499 -24.5s-43.166 8.16699 -59.499 24.5s-24.5 36.166 -24.5 59.499z" />
    <glyph glyph-name="periodcentered" unicode="&#x2219;" horiz-adv-x="390" 
d="M50 280c0 23.333 8.16699 43.166 24.5 59.499s36.166 24.5 59.499 24.5s43.166 -8.16699 59.499 -24.5s24.5 -36.166 24.5 -59.499s-8.16699 -43.166 -24.5 -59.499s-36.166 -24.5 -59.499 -24.5s-43.166 8.16699 -59.499 24.5s-24.5 36.166 -24.5 59.499z" />
    <glyph glyph-name="cedilla" unicode="&#xb8;" horiz-adv-x="346" 
d="M-2 -204l18 42.001c8 -2.66699 19.833 -6 35.5 -10s30.5 -6 44.5 -6c12.667 0 24.167 4.16699 34.5 12.5s15.5 18.166 15.5 29.499c0 10 -4.16699 18.167 -12.5 24.5s-17.5 9.5 -27.5 9.5c-10.667 0 -18.5 -0.333008 -23.5 -1s-11.833 -3 -20.5 -7l-30 20l60 90h62
l-44 -62l2 -2c6.66699 2.66699 13.5 5 20.5 7s14.833 3 23.5 3c20.667 0 39.167 -7.5 55.5 -22.5s24.5 -34.167 24.5 -57.5c0 -34 -14 -58.667 -42 -74c-22 -12 -51.333 -18 -88 -18c-19.333 0 -36.5 1.66699 -51.5 5s-33.833 9 -56.5 17z" />
    <glyph glyph-name="onesuperior" unicode="&#xb9;" horiz-adv-x="368" 
d="M66 290l-0.000976562 78h66v238l-66 -16v78c15.333 2.66699 35 8.66699 59 18c28.667 11.333 46.334 21.333 53.001 30h68v-348h68v-78h-248z" />
    <glyph glyph-name="ordmasculine" unicode="&#xba;" horiz-adv-x="664" 
d="M113 618h472v-489h-472v489zM157 576v-409h386v409h-386z" />
    <glyph glyph-name="guillemotright" unicode="&#xbb;" horiz-adv-x="558" 
d="M536 260l-222 -212l-70 70l146 142l-146 140l70 72zM294 260l-220 -212l-72 70l146 142l-146 140l72 72z" />
    <glyph glyph-name="onequarter" unicode="&#xbc;" horiz-adv-x="802" 
d="M656 736l-420 -760h-92l420 760h92zM32 290l-0.000976562 78h66v238l-66 -16v78c15.333 2.66699 35 8.66699 59 18c28.667 11.333 46.334 21.333 53.001 30h68v-348h68v-78h-248zM529.999 176h78v126zM601.999 0v98h-160v80l162 250h118v-252h52v-78h-52v-98h-120z" />
    <glyph glyph-name="onehalf" unicode="&#xbd;" horiz-adv-x="802" 
d="M640 736l-420 -760h-92l420 760h92zM32 290l-0.000976562 78h66v238l-66 -16v78c15.333 2.66699 35 8.66699 59 18c28.667 11.333 46.334 21.333 53.001 30h68v-348h68v-78h-248zM443.999 0l-0.00195312 74.002c58 48 105.333 92.333 142 133c41.333 46 62 78.333 62 97
c0 11.333 -2.66699 20.833 -8 28.5s-14.666 11.5 -27.999 11.5c-14.667 0 -26.167 -5.33301 -34.5 -16s-13.5 -23.334 -15.5 -38.001l-110 24c10 37.333 30.167 66.666 60.5 87.999s66.833 32 109.5 32s77.334 -9 104.001 -27c32 -21.333 48 -52.333 48 -93
c0 -36 -16.667 -73.333 -50 -112c-22 -26 -52.667 -52.667 -92 -80l-32 -24l166 -2v-96h-322z" />
    <glyph glyph-name="threequarters" unicode="&#xbe;" horiz-adv-x="802" 
d="M686 736l-418 -760h-92l418 760h92zM626 176v126l-78 -126h78zM620 0v98h-160v80l162 250h118v-252h52v-78h-52v-98h-120zM116 466l-0.000976562 78h34c14.667 0 28 3.66699 40 11c14.667 9.33301 22 21.666 22 36.999c0 13.333 -3.66699 24.333 -11 33s-17 13 -29 13
c-15.333 0 -27.333 -3.66699 -36 -11s-15.334 -17.666 -20.001 -30.999l-94 34c30.667 61.333 86 92 166 92c38.667 0 72.334 -10 101.001 -30c32.667 -22.667 49 -52.667 49 -90c0 -27.333 -10 -49.333 -30 -66c-14.667 -12 -34.667 -21.333 -60 -28
c27.333 -1.33301 50 -9.33301 68 -24c21.333 -17.333 32 -42 32 -74c0 -40 -18.667 -71.667 -56 -95c-33.333 -20.667 -73.333 -31 -120 -31c-74 0 -126.667 29.333 -158 88l92 40c8.66699 -15.333 17.167 -26.5 25.5 -33.5s20.5 -10.5 36.5 -10.5c36 0 54 16 54 48
c0 19.333 -7.16699 32.5 -21.5 39.5s-33.166 10.5 -56.499 10.5h-28z" />
    <glyph glyph-name="questiondown" unicode="&#xbf;" horiz-adv-x="290" 
 />
    <glyph glyph-name="Agrave" unicode="&#xc0;" 
d="M-354 922h126l114 -144h-114l-64 80l-62 -80h-114zM-288 1048h152l94 -144h-100z" />
    <glyph glyph-name="Aacute" unicode="&#xc1;" 
d="M-354 922h126l114 -144h-114l-64 80l-62 -80h-114zM108 1016l-146 -144h-100l94 144h152z" />
    <glyph glyph-name="Acircumflex" unicode="&#xc2;" 
d="M-354 922h126l114 -144h-114l-64 80l-62 -80h-114z" />
    <glyph glyph-name="Atilde" unicode="&#xc3;" 
d="M-354 922h126l114 -144h-114l-64 80l-62 -80h-114zM-396 962l-66 -0.000976562c6 33.333 18 61 36 83c21.333 26 48 39 80 39c16.667 0 36 -4 58 -12c48 -17.333 74 -26 78 -26c28 0 44 14 48 42h66c-6 -39.333 -15.667 -68.666 -29 -87.999
c-17.333 -25.333 -42.333 -38 -75 -38c-18.667 0 -46 6.33301 -82 19s-60 19 -72 19c-9.33301 0 -18.333 -4.16699 -27 -12.5s-13.667 -16.833 -15 -25.5z" />
    <glyph glyph-name="Adieresis" unicode="&#xc4;" 
d="M-354 922h126l114 -144h-114l-64 80l-62 -80h-114zM-354 -162v126h126v-126h-126z" />
    <glyph glyph-name="Aring" unicode="&#xc5;" 
d="M-354 922h126l114 -144h-114l-64 80l-62 -80h-114zM-139 874l0.000976562 29.998c0 26 12.833 49.833 38.5 71.5s38.5 37.834 38.5 48.501c0 9.33301 -3.66699 17.333 -11 24s-16 10 -26 10c-16 0 -29.333 -3.66699 -40 -11s-16 -17 -16 -29h-76
c3.33301 32.667 17.166 58.5 41.499 77.5s55.5 28.5 93.5 28.5c32.667 0 61.5 -8 86.5 -24s37.5 -37.333 37.5 -64c0 -31.333 -10.667 -56.666 -32 -75.999c-17.333 -12 -30.333 -21.333 -39 -28c-16 -12.667 -24 -26 -24 -40v-18h-72z" />
    <glyph glyph-name="AE" unicode="&#xc6;" horiz-adv-x="280" 
d="M50 0v712h180v-712h-180zM109 746l0.000976562 29.998c0 26 12.833 49.833 38.5 71.5s38.5 37.834 38.5 48.501c0 9.33301 -3.66699 17.333 -11 24s-16 10 -26 10c-16 0 -29.333 -3.66699 -40 -11s-16 -17 -16 -29h-76c3.33301 32.667 17.166 58.5 41.499 77.5
s55.5 28.5 93.5 28.5c32.667 0 61.5 -8 86.5 -24s37.5 -37.333 37.5 -64c0 -31.333 -10.667 -56.666 -32 -75.999c-17.333 -12 -30.333 -21.333 -39 -28c-16 -12.667 -24 -26 -24 -40v-18h-72z" />
    <glyph glyph-name="Ccedilla" unicode="&#xc7;" horiz-adv-x="558" 
d="M536 464l-167.999 -0.00195312c0 32.667 -4.66699 60.334 -14 83.001c-13.333 31.333 -34 47 -62 47c-34.667 0 -58.667 -23 -72 -69c-10.667 -36.667 -16 -93 -16 -169c0 -85.333 4.66699 -143.333 14 -174c12.667 -42.667 38.667 -64 78 -64
c31.333 0 53.666 12.667 66.999 38c11.333 22 17 57.333 17 106l156 -14c0 -79.333 -22 -142.833 -66 -190.5s-104.667 -71.5 -182 -71.5c-100 0 -173.667 38.667 -221 116c-38 62.667 -57 147.334 -57 254.001c0 102.667 18.667 185.667 56 249c48 80.667 122 121 222 121
c82 0 144.667 -25.333 188 -76c40 -46.667 60 -108.667 60 -186zM158.001 -204.002l16 42.001c8 -2.66699 19.833 -6 35.5 -10s30.5 -6 44.5 -6c12.667 0 24.167 4.16699 34.5 12.5s15.5 18.166 15.5 29.499c0 10 -4.16699 18.167 -12.5 24.5s-17.5 9.5 -27.5 9.5
c-10.667 0 -18.5 -0.333008 -23.5 -1s-11.833 -3 -20.5 -7l-30 20l60 90h62l-44 -62l2 -2c6.66699 2.66699 13.5 5 20.5 7s14.833 3 23.5 3c20.667 0 39.167 -7.5 55.5 -22.5s24.5 -34.167 24.5 -57.5c0 -34 -14 -58.667 -42 -74c-22 -12 -51.333 -18 -88 -18
c-20 0 -37.5 1.66699 -52.5 5s-32.833 9 -53.5 17z" />
    <glyph glyph-name="Egrave" unicode="&#xc8;" 
d="M-350 870c6 -14 15 -24.833 27 -32.5s26.333 -11.5 43 -11.5c15.333 0 29.333 4 42 12s22 18.667 28 32h80c-6.66699 -33.333 -24.5 -61 -53.5 -83s-61.167 -33 -96.5 -33s-66.5 10.833 -93.5 32.5s-44.5 49.5 -52.5 83.5h76zM-462 1052h152l94 -144h-100z" />
    <glyph glyph-name="Eacute" unicode="&#xc9;" 
d="M-350 870c6 -14 15 -24.833 27 -32.5s26.333 -11.5 43 -11.5c15.333 0 29.333 4 42 12s22 18.667 28 32h80c-6.66699 -33.333 -24.5 -61 -53.5 -83s-61.167 -33 -96.5 -33s-66.5 10.833 -93.5 32.5s-44.5 49.5 -52.5 83.5h76zM-86 1052l-146 -144h-100l94 144h152z" />
    <glyph glyph-name="Ecircumflex" unicode="&#xca;" 
d="M-350 870c6 -14 15 -24.833 27 -32.5s26.333 -11.5 43 -11.5c15.333 0 29.333 4 42 12s22 18.667 28 32h80c-6.66699 -33.333 -24.5 -61 -53.5 -83s-61.167 -33 -96.5 -33s-66.5 10.833 -93.5 32.5s-44.5 49.5 -52.5 83.5h76z" />
    <glyph glyph-name="Edieresis" unicode="&#xcb;" 
d="M-354 -218v126h126v-126h-126zM-350 870c6 -14 15 -24.833 27 -32.5s26.333 -11.5 43 -11.5c15.333 0 29.333 4 42 12s22 18.667 28 32h80c-6.66699 -33.333 -24.5 -61 -53.5 -83s-61.167 -33 -96.5 -33s-66.5 10.833 -93.5 32.5s-44.5 49.5 -52.5 83.5h76z" />
    <glyph glyph-name="Igrave" unicode="&#xcc;" horiz-adv-x="280" 
d="M50 0v712h180v-712h-180zM-40 910h154l92 -144h-100z" />
    <glyph glyph-name="Iacute" unicode="&#xcd;" horiz-adv-x="280" 
d="M50 0v712h180v-712h-180zM320 910l-146 -144h-100l92 144h154z" />
    <glyph glyph-name="Icircumflex" unicode="&#xce;" horiz-adv-x="558" 
d="M170 0v278l-180 434h190l94 -280l112 280h160l-196 -424v-288h-180zM188 -196v144h162v-144h-162z" />
    <glyph glyph-name="Idieresis" unicode="&#xcf;" 
d="M-354 -166v126h126v-126h-126z" />
    <glyph glyph-name="Eth" unicode="&#xd0;" horiz-adv-x="290" 
 />
    <glyph glyph-name="Ntilde" unicode="&#xd1;" horiz-adv-x="612" 
d="M46 0v324h-44v90h44v298h196c106.667 0 188 -31.333 244 -94c53.333 -60 80 -143.333 80 -250c0 -110 -23 -196.667 -69 -260c-52 -72 -129.667 -108 -233 -108h-218zM226 586v-172h100v-90h-100v-198h20c54.667 0 91.334 29.333 110.001 88c10.667 34 16 87.333 16 160
c0 58.667 -6.66699 104 -20 136c-20.667 50.667 -57.334 76 -110.001 76h-16z" />
    <glyph glyph-name="Ograve" unicode="&#xd2;" horiz-adv-x="280" 
d="M50 0v712h180v-712h-180zM57 -184v144h162v-144h-162z" />
    <glyph glyph-name="Oacute" unicode="&#xd3;" horiz-adv-x="280" 
d="M50 0v712h180v-712h-180zM32 784l-66 -0.000976562c6 33.333 18 61 36 83c21.333 26 48 39 80 39c16.667 0 36 -4 58 -12c48 -17.333 74 -26 78 -26c28 0 44 14 48 42h66c-6 -39.333 -15.667 -68.666 -29 -87.999c-17.333 -25.333 -42.333 -38 -75 -38
c-18.667 0 -46 6.33301 -82 19s-60 19 -72 19c-9.33301 0 -18.333 -4.16699 -27 -12.5s-13.667 -16.833 -15 -25.5z" />
    <glyph glyph-name="Ocircumflex" unicode="&#xd4;" horiz-adv-x="580" 
d="M492 626c24 -33.333 42.002 -74.1689 54.002 -122.502s18 -97.5 18 -147.5c0 -105.333 -19.333 -189.666 -58 -252.999c-47.333 -78 -120 -117 -218 -117c-97.333 0 -170 38.667 -218 116c-40 64.667 -60 149.334 -60 254.001s19.667 189 59 253c48 78 121 117 219 117
c36.667 0 68.667 -5.16699 96 -15.5s52.666 -25.833 75.999 -46.5c11.333 2 24 8 38 18c9.33301 6.66699 18.666 14.667 27.999 24c-7.33301 2 -14.5 4.16699 -21.5 6.5s-13.167 6.16602 -18.5 11.499c-12 12 -18 26 -18 42c0 6.66699 1.66699 14.167 5 22.5
s7.66602 15.5 12.999 21.5c18.667 18.667 38.667 28 60 28c9.33301 0 19.5 -2.16699 30.5 -6.5s19.833 -10.166 26.5 -17.499s11.834 -16 15.501 -26s5.5 -19.333 5.5 -28c0 -14.667 -3.83301 -29.5 -11.5 -44.5s-17.5 -28.167 -29.5 -39.5s-26 -21.5 -42 -30.5
s-32.333 -15.5 -49 -19.5zM204.002 355.997c0 -87.333 3.33203 -144.333 9.99902 -171c11.333 -44.667 36 -67 74 -67c37.333 0 61.333 22 72 66c6.66699 27.333 10 84.666 10 171.999c0 86.667 -3.33301 143.667 -10 171c-10.667 44.667 -34.667 67 -72 67
s-61.666 -22 -72.999 -66c-7.33301 -29.333 -11 -86.666 -11 -171.999z" />
    <glyph glyph-name="Otilde" unicode="&#xd5;" 
d="M-398 784l-66 -0.000976562c6 33.333 18 61 36 83c21.333 26 48 39 80 39c16.667 0 36 -4 58 -12c48 -17.333 74 -26 78 -26c28 0 44 14 48 42h66c-6 -39.333 -15.667 -68.666 -29 -87.999c-17.333 -25.333 -42.333 -38 -75 -38c-18.667 0 -46 6.33301 -82 19
s-60 19 -72 19c-9.33301 0 -18.333 -4.16699 -27 -12.5s-13.667 -16.833 -15 -25.5z" />
    <glyph glyph-name="Odieresis" unicode="&#xd6;" horiz-adv-x="580" 
d="M528 660l0.000976562 -434c0 -80 -21 -140 -63 -180s-103 -60 -183 -60c-79.333 0 -138.5 20.5 -177.5 61.5s-58.5 100.5 -58.5 178.5v486h180v-494c0 -30.667 5.33301 -54 16 -70c13.333 -20 34 -30 62 -30s48 11.333 60 34c9.33301 18 14 43.333 14 76v484h134
c10 2 17.333 5 22 9c4.66699 6.66699 8.66699 11.667 12 15c-7.33301 2 -14.5 4.16699 -21.5 6.5s-13.167 6.16602 -18.5 11.499c-12 12 -18 26 -18 42c0 6.66699 1.66699 14.167 5 22.5s7.66602 15.5 12.999 21.5c18.667 18.667 38.667 28 60 28
c9.33301 0 19.5 -2.16699 30.5 -6.5s19.833 -10.166 26.5 -17.499s11.834 -16 15.501 -26s5.5 -19.333 5.5 -28c0 -14.667 -3.83301 -29.5 -11.5 -44.5s-17.834 -28.167 -30.501 -39.5c-20 -20 -44.667 -35.333 -74 -46z" />
    <glyph glyph-name="multiply" unicode="&#xd7;" horiz-adv-x="602" 
d="M218 254l-154 154l82 82l154 -154l154 154l82 -82l-154 -154l154 -154l-82 -82l-154 154l-154 -154l-82 82z" />
    <glyph glyph-name="Oslash" unicode="&#xd8;" 
d="M-444 922h152l94 -144h-100z" />
    <glyph glyph-name="Ugrave" unicode="&#xd9;" 
d="M-118 922l-146 -144h-100l94 144h152z" />
    <glyph glyph-name="Uacute" unicode="&#xda;" 
d="M-350 870c6 -14 15 -24.833 27 -32.5s26.333 -11.5 43 -11.5c15.333 0 29.333 4 42 12s22 18.667 28 32h80c-6.66699 -33.333 -24.5 -61 -53.5 -83s-61.167 -33 -96.5 -33s-66.5 10.833 -93.5 32.5s-44.5 49.5 -52.5 83.5h76zM-315 886l0.000976562 29.998
c0 26 12.833 49.833 38.5 71.5s38.5 37.834 38.5 48.501c0 9.33301 -3.66699 17.333 -11 24s-16 10 -26 10c-16 0 -29.333 -3.66699 -40 -11s-16 -17 -16 -29h-76c3.33301 32.667 17.166 58.5 41.499 77.5s55.5 28.5 93.5 28.5c32.667 0 61.5 -8 86.5 -24
s37.5 -37.333 37.5 -64c0 -31.333 -10.667 -56.666 -32 -75.999c-17.333 -12 -30.333 -21.333 -39 -28c-16 -12.667 -24 -26 -24 -40v-18h-72z" />
    <glyph glyph-name="Ucircumflex" unicode="&#xdb;" 
d="M-315 768l0.000976562 29.998c0 26 12.833 49.833 38.5 71.5s38.5 37.834 38.5 48.501c0 9.33301 -3.66699 17.333 -11 24s-16 10 -26 10c-16 0 -29.333 -3.66699 -40 -11s-16 -17 -16 -29h-76c3.33301 32.667 17.166 58.5 41.499 77.5s55.5 28.5 93.5 28.5
c32.667 0 61.5 -8 86.5 -24s37.5 -37.333 37.5 -64c0 -31.333 -10.667 -56.666 -32 -75.999c-17.333 -12 -30.333 -21.333 -39 -28c-16 -12.667 -24 -26 -24 -40v-18h-72z" />
    <glyph glyph-name="Udieresis" unicode="&#xdc;" 
d="M-350 870c6 -14 15 -24.833 27 -32.5s26.333 -11.5 43 -11.5c15.333 0 29.333 4 42 12s22 18.667 28 32h80c-6.66699 -33.333 -24.5 -61 -53.5 -83s-61.167 -33 -96.5 -33s-66.5 10.833 -93.5 32.5s-44.5 49.5 -52.5 83.5h76zM-295 920l-66 -0.000976562
c6 33.333 18 61 36 83c21.333 26 48 39 80 39c16.667 0 36 -4 58 -12c48 -17.333 74 -26 78 -26c28 0 44 14 48 42h66c-6 -39.333 -15.667 -68.666 -29 -87.999c-17.333 -25.333 -42.333 -38 -75 -38c-18.667 0 -46 6.33301 -82 19s-60 19 -72 19
c-9.33301 0 -18.333 -4.16699 -27 -12.5s-13.667 -16.833 -15 -25.5z" />
    <glyph glyph-name="Yacute" unicode="&#xdd;" horiz-adv-x="290" 
 />
    <glyph glyph-name="Thorn" unicode="&#xde;" horiz-adv-x="580" 
d="M46 0l-0.000976562 711.999h180v-90h88c71.333 0 128.333 -16 171 -48c47.333 -35.333 71 -86.666 71 -153.999c0 -77.333 -25.333 -135 -76 -173c-45.333 -34 -106.666 -51 -183.999 -51c-8 0 -21.167 0.666992 -39.5 2s-28.5 2 -30.5 2v-200h-180zM225.999 495.999
v-174.001h28c32.667 0 59 6 79 18c24.667 14.667 37 37.334 37 68.001c0 34 -12 58 -36 72c-18 10.667 -43.333 16 -76 16h-32z" />
    <glyph glyph-name="germandbls" unicode="&#xdf;" horiz-adv-x="290" 
 />
    <glyph glyph-name="agrave" unicode="&#xe0;" 
d="M-300 694h124l114 -144h-112l-64 80l-64 -80h-112zM-234 824h152l94 -144h-100z" />
    <glyph glyph-name="aacute" unicode="&#xe1;" 
d="M-300 694h124l114 -144h-112l-64 80l-64 -80h-112zM146 800l-146 -144h-100l94 144h152z" />
    <glyph glyph-name="acircumflex" unicode="&#xe2;" 
d="M-300 694h124l114 -144h-112l-64 80l-64 -80h-112z" />
    <glyph glyph-name="atilde" unicode="&#xe3;" 
d="M-310 694h124l114 -144h-112l-64 80l-64 -80h-112zM-358 735l-66 -0.000976562c6 33.333 18 61 36 83c21.333 26 48 39 80 39c16.667 0 36 -4 58 -12c48 -17.333 74 -26 78 -26c28 0 44 14 48 42h66c-6 -39.333 -15.667 -68.666 -29 -87.999
c-17.333 -25.333 -42.333 -38 -75 -38c-18.667 0 -46 6.33301 -82 19s-60 19 -72 19c-9.33301 0 -18.333 -4.16699 -27 -12.5s-13.667 -16.833 -15 -25.5z" />
    <glyph glyph-name="adieresis" unicode="&#xe4;" 
d="M-300 694h124l114 -144h-112l-64 80l-64 -80h-112zM-302 -184v126h126v-126h-126z" />
    <glyph glyph-name="aring" unicode="&#xe5;" 
d="M-300 694h124l114 -144h-112l-64 80l-64 -80h-112zM-99 633v28.999c0 24 12.167 46.5 36.5 67.5s36.5 36.5 36.5 46.5c0 9.33301 -3.33301 17 -10 23s-15 9 -25 9c-16 0 -28.833 -3.5 -38.5 -10.5s-14.5 -16.167 -14.5 -27.5h-72c2.66699 30.667 15.667 55.167 39 73.5
s53 27.5 89 27.5c31.333 0 58.833 -7.66699 82.5 -23s35.5 -35.666 35.5 -60.999c0 -28.667 -10 -52.667 -30 -72l-38 -26c-14.667 -12 -22 -25 -22 -39v-17h-69z" />
    <glyph glyph-name="ae" unicode="&#xe6;" horiz-adv-x="246" 
d="M40 0v502h162v-502h-162zM91 543v28.999c0 24 12.167 46.5 36.5 67.5s36.5 36.5 36.5 46.5c0 9.33301 -3.33301 17 -10 23s-15 9 -25 9c-16 0 -28.833 -3.5 -38.5 -10.5s-14.5 -16.167 -14.5 -27.5h-72c2.66699 30.667 15.667 55.167 39 73.5s53 27.5 89 27.5
c31.333 0 58.833 -7.66699 82.5 -23s35.5 -35.666 35.5 -60.999c0 -28.667 -10 -52.667 -30 -72l-38 -26c-14.667 -12 -22 -25 -22 -39v-17h-69z" />
    <glyph glyph-name="ccedilla" unicode="&#xe7;" horiz-adv-x="468" 
d="M442 316l-137.999 -0.000976562c0 13.333 -0.5 25 -1.5 35s-3.33301 19.667 -7 29s-9.16699 17 -16.5 23s-17 9 -29 9c-24.667 0 -40.834 -13.333 -48.501 -40s-11.5 -68.667 -11.5 -126c0 -55.333 4.66699 -94.166 14 -116.499s24.666 -33.5 45.999 -33.5
c24.667 0 42 11 52 33c6.66699 15.333 10 36.333 10 63l126 -18c-12 -124 -78.667 -186 -200 -186c-69.333 0 -124.666 26.333 -165.999 79c-37.333 47.333 -56 105 -56 173c0 74.667 19 137.667 57 189c42 56.667 99 85 171 85c74 0 128.333 -26.667 163 -80
c23.333 -36 35 -75.333 35 -118zM110.001 -204.001l18.001 42.001c32 -10.667 58.667 -16 80 -16c12.667 0 24.167 4.16699 34.5 12.5s15.5 18.166 15.5 29.499c0 10 -4.16699 18.167 -12.5 24.5s-17.5 9.5 -27.5 9.5c-18 0 -33.333 -2.66699 -46 -8l-28 20l58 90h62
l-42 -62l2 -2c2 0.666992 5.33301 2 10 4c11.333 4 22.666 6 33.999 6c20.667 0 39.167 -7.5 55.5 -22.5s24.5 -34.167 24.5 -57.5c0 -34 -14 -58.667 -42 -74c-22 -12 -51.333 -18 -88 -18c-24.667 0 -48 3 -70 9c-8 2 -20.667 6.33301 -38 13z" />
    <glyph glyph-name="egrave" unicode="&#xe8;" 
d="M-290 660c6 -14 15 -24.833 27 -32.5s26.333 -11.5 43 -11.5c15.333 0 29.333 4 42 12s22 18.667 28 32h80c-6.66699 -33.333 -24.5 -61 -53.5 -83s-61.167 -33 -96.5 -33s-66.5 10.833 -93.5 32.5s-44.5 49.5 -52.5 83.5h76zM-412 844h154l92 -144h-100z" />
    <glyph glyph-name="eacute" unicode="&#xe9;" 
d="M-290 660c6 -14 15 -24.833 27 -32.5s26.333 -11.5 43 -11.5c15.333 0 29.333 4 42 12s22 18.667 28 32h80c-6.66699 -33.333 -24.5 -61 -53.5 -83s-61.167 -33 -96.5 -33s-66.5 10.833 -93.5 32.5s-44.5 49.5 -52.5 83.5h76zM-24 844l-146 -144h-100l92 144h154z" />
    <glyph glyph-name="ecircumflex" unicode="&#xea;" 
d="M-290 660c6 -14 15 -24.833 27 -32.5s26.333 -11.5 43 -11.5c15.333 0 29.333 4 42 12s22 18.667 28 32h80c-6.66699 -33.333 -24.5 -61 -53.5 -83s-61.167 -33 -96.5 -33s-66.5 10.833 -93.5 32.5s-44.5 49.5 -52.5 83.5h76z" />
    <glyph glyph-name="edieresis" unicode="&#xeb;" 
d="M-290 660c6 -14 15 -24.833 27 -32.5s26.333 -11.5 43 -11.5c15.333 0 29.333 4 42 12s22 18.667 28 32h80c-6.66699 -33.333 -24.5 -61 -53.5 -83s-61.167 -33 -96.5 -33s-66.5 10.833 -93.5 32.5s-44.5 49.5 -52.5 83.5h76zM-304 -228v126h126v-126h-126z" />
    <glyph glyph-name="igrave" unicode="&#xec;" horiz-adv-x="246" 
d="M40 0v502h162v-502h-162zM-60 704h154l94 -144h-100z" />
    <glyph glyph-name="iacute" unicode="&#xed;" horiz-adv-x="246" 
d="M40 0v502h162v-502h-162zM288 704l-146 -144h-100l94 144h152z" />
    <glyph glyph-name="icircumflex" unicode="&#xee;" horiz-adv-x="434" 
d="M-8 502l167.999 -0.000976562l58 -290l72 290h126l-168 -518c-16 -49.333 -42 -84.666 -78 -105.999c-31.333 -18.667 -73.333 -28 -126 -28c-8 0 -16.833 0.5 -26.5 1.5l-23.5 2.5v114c7.33301 -0.666992 14.5 -1.5 21.5 -2.5s14.5 -1.5 22.5 -1.5
c28.667 0 50.334 4 65.001 12c18 10 27 26 27 48c0 9.33301 -0.5 16.833 -1.5 22.5s-3.16699 13.5 -6.5 23.5zM273.999 -163.001v126h126v-126h-126z" />
    <glyph glyph-name="idieresis" unicode="&#xef;" 
d="M-304 -170v126h126v-126h-126z" />
    <glyph glyph-name="eth" unicode="&#xf0;" horiz-adv-x="290" 
 />
    <glyph glyph-name="ntilde" unicode="&#xf1;" horiz-adv-x="468" 
d="M450 554l0.000976562 -554.001h-154v50c-24 -22 -44.667 -36.833 -62 -44.5s-38 -11.5 -62 -11.5c-50.667 0 -90 23.667 -118 71c-25.333 42.667 -38 98.334 -38 167.001c0 80.667 11.667 143.667 35 189c28 54 71.667 81 131 81c41.333 0 76.666 -14.667 105.999 -44v96
h-88v90h88v68h162v-68h38v-90h-38zM288.001 127.999l-0.000976562 262c-5.33301 6 -12.5 11.167 -21.5 15.5s-19.167 6.5 -30.5 6.5c-22 0 -37.333 -16 -46 -48c-5.33301 -20 -8 -50.667 -8 -92l2 -12c0 -51.333 0.666992 -84.333 2 -99c4.66699 -47.333 18.667 -71 42 -71
c12 0 23.333 3.33301 34 10s19.334 16 26.001 28z" />
    <glyph glyph-name="ograve" unicode="&#xf2;" horiz-adv-x="246" 
d="M40 0v502h162v-502h-162zM40 -181v144h162v-144h-162zM40 568v144h162v-144h-162z" />
    <glyph glyph-name="oacute" unicode="&#xf3;" horiz-adv-x="246" 
d="M40 0v502h162v-502h-162zM4 578l-66 -0.000976562c6 33.333 18 61 36 83c21.333 26 48 39 80 39c16.667 0 36 -4 58 -12c48 -17.333 74 -26 78 -26c28 0 44 14 48 42h66c-6 -39.333 -15.667 -68.666 -29 -87.999c-17.333 -25.333 -42.333 -38 -75 -38
c-18.667 0 -46 6.33301 -82 19s-60 19 -72 19c-9.33301 0 -18.333 -4.16699 -27 -12.5s-13.667 -16.833 -15 -25.5z" />
    <glyph glyph-name="ocircumflex" unicode="&#xf4;" horiz-adv-x="480" 
d="M422 420c30.667 -44.667 46.001 -100 46.001 -166c0 -80.667 -18.333 -144.334 -55 -191.001c-39.333 -50 -96.333 -75 -171 -75s-131.667 24.667 -171 74c-36.667 46 -55 110 -55 192c0 78 18.667 140 56 186c40 49.333 96.667 74 170 74c32.667 0 61.5 -5 86.5 -15
s47.5 -25 67.5 -45c8 3.33301 16.667 8.66602 26 15.999c6 4.66699 12 10 18 16c-6 2 -12.167 4.16699 -18.5 6.5s-11.5 5.5 -15.5 9.5c-10.667 10.667 -16 23.334 -16 38.001s5.33301 27.334 16 38.001c14 16 31.333 24 52 24c8.66699 0 18 -1.83301 28 -5.5
s18 -9.16699 24 -16.5c12 -12 18 -26.667 18 -44c0 -14 -3.5 -27.5 -10.5 -40.5s-16.167 -24.833 -27.5 -35.5c-18.667 -18.667 -41.334 -32 -68.001 -40zM184.001 254c0 -62 4.5 -104.833 13.5 -128.5s23.833 -35.5 44.5 -35.5s35.5 11.833 44.5 35.5s13.5 66.5 13.5 128.5
c0 60 -3.83301 101.333 -11.5 124s-23.167 34 -46.5 34c-22.667 0 -38 -11.5 -46 -34.5s-12 -64.167 -12 -123.5z" />
    <glyph glyph-name="otilde" unicode="&#xf5;" 
d="M-336 586l-66 -0.000976562c6 33.333 18 61 36 83c21.333 26 48 39 80 39c16.667 0 36 -4 58 -12c48 -17.333 74 -26 78 -26c28 0 44 14 48 42h66c-6 -39.333 -15.667 -68.666 -29 -87.999c-17.333 -25.333 -42.333 -38 -75 -38c-18.667 0 -46 6.33301 -82 19
s-60 19 -72 19c-9.33301 0 -18.333 -4.16699 -27 -12.5s-13.667 -16.833 -15 -25.5z" />
    <glyph glyph-name="odieresis" unicode="&#xf6;" horiz-adv-x="490" 
d="M458 466l-0.000976562 -466h-162v68c-18 -26 -39.5 -45.833 -64.5 -59.5s-52.167 -20.5 -81.5 -20.5c-32.667 0 -58.5 10.167 -77.5 30.5s-28.5 48.166 -28.5 83.499v400h162v-354c0 -15.333 2.66699 -26.833 8 -34.5s15.333 -11.5 30 -11.5
c17.333 0 31.333 7.33301 42 22l10 12v366h118c2.66699 -2.66699 6 -4 10 -4c8.66699 0 20.334 4.83301 35.001 14.5s25 17.5 31 23.5c-6 2 -12.167 4.16699 -18.5 6.5s-11.5 5.5 -15.5 9.5c-10.667 10.667 -16 23.334 -16 38.001s5.33301 27.334 16 38.001
c14 16 31.333 24 52 24c8.66699 0 18 -1.83301 28 -5.5s18 -9.16699 24 -16.5c12 -12 18 -26.667 18 -44c0 -14 -3.5 -27.5 -10.5 -40.5s-16.167 -24.833 -27.5 -35.5c-22.667 -22.667 -50 -37.334 -82 -44.001z" />
    <glyph glyph-name="divide" unicode="&#xf7;" horiz-adv-x="602" 
d="M554 194h-506v120h506v-120zM300 554c25.333 0 46.666 -8.66699 63.999 -26s26 -38.666 26 -63.999s-8.66699 -46.666 -26 -63.999s-38.666 -26 -63.999 -26s-46.666 8.66699 -63.999 26s-26 38.666 -26 63.999s8.66699 46.666 26 63.999s38.666 26 63.999 26zM300 134
c25.333 0 46.666 -8.66699 63.999 -26s26 -38.666 26 -63.999s-8.66699 -47 -26 -65s-38.666 -27 -63.999 -27s-46.666 8.66699 -63.999 26s-26 39.333 -26 66c0 25.333 8.66699 46.666 26 63.999s38.666 26 63.999 26z" />
    <glyph glyph-name="oslash" unicode="&#xf8;" 
d="M-402 714h152l94 -144h-100z" />
    <glyph glyph-name="ugrave" unicode="&#xf9;" 
d="M-56 714l-146 -144h-100l94 144h152z" />
    <glyph glyph-name="uacute" unicode="&#xfa;" 
d="M-290 660c6 -14 15 -24.833 27 -32.5s26.333 -11.5 43 -11.5c15.333 0 29.333 4 42 12s22 18.667 28 32h80c-6.66699 -33.333 -24.5 -61 -53.5 -83s-61.167 -33 -96.5 -33s-66.5 10.833 -93.5 32.5s-44.5 49.5 -52.5 83.5h76zM-251 665v28.999
c0 24 12.167 46.5 36.5 67.5s36.5 36.5 36.5 46.5c0 9.33301 -3.33301 17 -10 23s-15 9 -25 9c-16 0 -28.833 -3.5 -38.5 -10.5s-14.5 -16.167 -14.5 -27.5h-72c2.66699 30.667 15.667 55.167 39 73.5s53 27.5 89 27.5c31.333 0 58.833 -7.66699 82.5 -23
s35.5 -35.666 35.5 -60.999c0 -28.667 -10 -52.667 -30 -72l-38 -26c-14.667 -12 -22 -25 -22 -39v-17h-69z" />
    <glyph glyph-name="ucircumflex" unicode="&#xfb;" 
d="M-263 563v28.999c0 24 12.167 46.5 36.5 67.5s36.5 36.5 36.5 46.5c0 9.33301 -3.33301 17 -10 23s-15 9 -25 9c-16 0 -28.833 -3.5 -38.5 -10.5s-14.5 -16.167 -14.5 -27.5h-72c2.66699 30.667 15.667 55.167 39 73.5s53 27.5 89 27.5
c31.333 0 58.833 -7.66699 82.5 -23s35.5 -35.666 35.5 -60.999c0 -28.667 -10 -52.667 -30 -72l-38 -26c-14.667 -12 -22 -25 -22 -39v-17h-69z" />
    <glyph glyph-name="udieresis" unicode="&#xfc;" 
d="M-290 660c6 -14 15 -24.833 27 -32.5s26.333 -11.5 43 -11.5c15.333 0 29.333 4 42 12s22 18.667 28 32h80c-6.66699 -33.333 -24.5 -61 -53.5 -83s-61.167 -33 -96.5 -33s-66.5 10.833 -93.5 32.5s-44.5 49.5 -52.5 83.5h76zM-244 708l-66 -0.000976562
c6 33.333 18 61 36 83c21.333 26 48 39 80 39c16.667 0 36 -4 58 -12c48 -17.333 74 -26 78 -26c28 0 44 14 48 42h66c-6 -39.333 -15.667 -68.666 -29 -87.999c-17.333 -25.333 -42.333 -38 -75 -38c-18.667 0 -46 6.33301 -82 19s-60 19 -72 19
c-9.33301 0 -18.333 -4.16699 -27 -12.5s-13.667 -16.833 -15 -25.5z" />
    <glyph glyph-name="yacute" unicode="&#xfd;" horiz-adv-x="290" 
 />
    <glyph glyph-name="thorn" unicode="&#xfe;" horiz-adv-x="512" 
d="M214 378l-0.000976562 -268c7.33301 -7.33301 15.333 -12.5 24 -15.5s17.334 -4.5 26.001 -4.5c23.333 0 38.666 14 45.999 42c5.33301 20 8 56.667 8 110c0 117.333 -15.333 176 -46 176c-12.667 0 -24.667 -4 -36 -12s-18.666 -17.333 -21.999 -28zM51.999 -150
l-0.00195312 862h156v-262c32.667 38.667 71.334 58 116.001 58c50 0 89.5 -20.833 118.5 -62.5s43.5 -100.167 43.5 -175.5c0 -76 -11.667 -137 -35 -183c-29.333 -58 -75 -87 -137 -87c-37.333 0 -70.666 14.667 -99.999 44v-194h-162z" />
    <glyph glyph-name="ydieresis" unicode="&#xff;" horiz-adv-x="434" 
d="M-8 502l167.999 -0.000976562l58 -290l72 290h126l-168 -518c-16 -49.333 -42 -84.666 -78 -105.999c-31.333 -18.667 -73.333 -28 -126 -28c-8 0 -16.833 0.5 -26.5 1.5l-23.5 2.5v114c7.33301 -0.666992 14.5 -1.5 21.5 -2.5s14.5 -1.5 22.5 -1.5
c28.667 0 50.334 4 65.001 12c18 10 27 26 27 48c0 9.33301 -0.5 16.833 -1.5 22.5s-3.16699 13.5 -6.5 23.5zM273.999 -163.001v126h126v-126h-126z" />
    <glyph glyph-name="OE" unicode="&#x152;" 
d="M-315 758l0.000976562 29.998c0 26 12.833 49.833 38.5 71.5s38.5 37.834 38.5 48.501c0 9.33301 -3.66699 17.333 -11 24s-16 10 -26 10c-16 0 -29.333 -3.66699 -40 -11s-16 -17 -16 -29h-76c3.33301 32.667 17.166 58.5 41.499 77.5s55.5 28.5 93.5 28.5
c32.667 0 61.5 -8 86.5 -24s37.5 -37.333 37.5 -64c0 -31.333 -10.667 -56.666 -32 -75.999c-17.333 -12 -30.333 -21.333 -39 -28c-16 -12.667 -24 -26 -24 -40v-18h-72z" />
    <glyph glyph-name="oe" unicode="&#x153;" 
d="M-263 563v28.999c0 24 12.167 46.5 36.5 67.5s36.5 36.5 36.5 46.5c0 9.33301 -3.33301 17 -10 23s-15 9 -25 9c-16 0 -28.833 -3.5 -38.5 -10.5s-14.5 -16.167 -14.5 -27.5h-72c2.66699 30.667 15.667 55.167 39 73.5s53 27.5 89 27.5
c31.333 0 58.833 -7.66699 82.5 -23s35.5 -35.666 35.5 -60.999c0 -28.667 -10 -52.667 -30 -72l-38 -26c-14.667 -12 -22 -25 -22 -39v-17h-69z" />
    <glyph glyph-name="Scaron" unicode="&#x160;" horiz-adv-x="524" 
d="M46 0v712h448v-138h-268v-144h180v-138h-180v-148h268v-144h-448zM90 786v126h126v-126h-126zM286 786v126h126v-126h-126z" />
    <glyph glyph-name="scaron" unicode="&#x161;" horiz-adv-x="468" 
d="M448 216l-269.999 0.000976562c0 -31.333 4 -56.666 12 -75.999c12 -29.333 32 -44 60 -44c20 0 37.333 6.33301 52 19s24.667 29.667 30 51l110 -40c-13.333 -40.667 -38.333 -73.834 -75 -99.501s-79 -38.5 -127 -38.5c-72.667 0 -129.334 26.667 -170.001 80
c-36 47.333 -54 108.666 -54 183.999s18.333 136.666 55 183.999c40 52 95.667 78 167 78c72 0 126.333 -27.667 163 -83c31.333 -47.333 47 -107.666 47 -180.999v-34zM178.001 312.001h120.001c0 30 -3 52.333 -9 67c-9.33301 22 -26.333 33 -51 33
c-20.667 0 -35.834 -9.83301 -45.501 -29.5s-14.5 -43.167 -14.5 -70.5zM72.002 582.001v126h126v-126h-126zM266.002 582.001v126h126v-126h-126z" />
    <glyph glyph-name="Ydieresis" unicode="&#x178;" horiz-adv-x="558" 
d="M170 0v278l-180 434h190l94 -280l112 280h160l-196 -424v-288h-180zM188 -196v144h162v-144h-162z" />
    <glyph glyph-name="florin" unicode="&#x192;" horiz-adv-x="290" 
 />
    <glyph glyph-name="circumflex" unicode="&#x2c6;" horiz-adv-x="290" 
 />
    <glyph glyph-name="tilde" unicode="&#x2dc;" horiz-adv-x="290" 
 />
    <glyph glyph-name="endash" unicode="&#x2013;" horiz-adv-x="502" 
d="M0 194v132h500v-132h-500z" />
    <glyph glyph-name="emdash" unicode="&#x2014;" horiz-adv-x="1002" 
d="M0 194v132h1000v-132h-1000z" />
    <glyph glyph-name="quoteleft" unicode="&#x2018;" horiz-adv-x="290" 
d="M222 552v-174h-174v152l100 182h90l-78 -160h62z" />
    <glyph glyph-name="quoteright" unicode="&#x2019;" horiz-adv-x="290" 
d="M48 538v174h174v-152l-100 -182h-92l80 160h-62z" />
    <glyph glyph-name="quotesinglbase" unicode="&#x201a;" horiz-adv-x="290" 
 />
    <glyph glyph-name="quotedblleft" unicode="&#x201c;" horiz-adv-x="534" 
d="M472 552v-174h-174v152l100 182h92l-80 -160h62zM222 552v-174h-174v152l100 182h90l-78 -160h62z" />
    <glyph glyph-name="quotedblright" unicode="&#x201d;" horiz-adv-x="534" 
d="M298 538v174h174v-152l-100 -182h-90l78 160h-62zM48 538v174h174v-152l-100 -182h-92l80 160h-62z" />
    <glyph glyph-name="quotedblbase" unicode="&#x201e;" horiz-adv-x="490" 
d="M48 0v174h174v-152l-100 -184h-92l80 162h-62zM268 0v174h174v-152l-100 -184h-92l80 162h-62z" />
    <glyph glyph-name="dagger" unicode="&#x2020;" horiz-adv-x="434" 
d="M146 292c30.667 56 46.0029 117.333 46.0029 184c-25.333 0 -58.333 -8.33301 -99 -25c-21.333 -8.66699 -35.666 -13 -42.999 -13c-14 0 -26.167 3.83301 -36.5 11.5s-15.5 17.834 -15.5 30.501v4c0 15.333 5.16699 27.5 15.5 36.5s23.166 13.5 38.499 13.5h6
c11.333 -2 31.666 -9 60.999 -21c24 -10 47.667 -15 71 -15v30c0 8 -0.5 17.333 -1.5 28s-2 20.334 -3 29.001s-5.16699 21 -12.5 37c-9.33301 22 -15 36 -17 42l-2 12c0 13.333 5 25 15 35s21.667 15 35 15h14c11.333 -2.66699 19.833 -8.66699 25.5 -18s8.5 -20 8.5 -32
s-2 -22 -6 -30c-14 -33.333 -22.5 -57.5 -25.5 -72.5s-4.5 -39.5 -4.5 -73.5l10 -2c16.667 0 33 3 49 9c46.667 17.333 71.667 26.333 75 27h8c14.667 0 27 -4.66699 37 -14s15 -21.333 15 -36s-5.33301 -26.334 -16 -35.001s-23.334 -13 -38.001 -13l-4 2
c-12.667 0 -28.667 5.33301 -48 16c-13.333 7.33301 -23 12 -29 14s-15.667 3.66699 -29 5l-30 3c0 -38.667 3.16699 -71.5 9.5 -98.5s18.5 -55.5 36.5 -85.5c-16.667 -72 -27.834 -141 -33.501 -207s-8.5 -141 -8.5 -225h-28c0 92 -2.66699 164.667 -8 218
s-18 124.666 -38 213.999z" />
    <glyph glyph-name="daggerdbl" unicode="&#x2021;" horiz-adv-x="434" 
d="M146 302c30.667 56 46.0049 117.332 46.0049 183.999c-25.333 0 -58.333 -8.33301 -99 -25c-21.333 -8.66699 -35.666 -13 -42.999 -13c-14 0 -26.167 3.83301 -36.5 11.5s-15.5 17.834 -15.5 30.501v4c0 15.333 5.16699 27.5 15.5 36.5s23.166 13.5 38.499 13.5h6
c11.333 -2 31.666 -9 60.999 -21c24 -10 47.667 -15 71 -15v30c0 8 -0.5 17.333 -1.5 28s-2 20.334 -3 29.001s-5.16699 21 -12.5 37c-9.33301 22 -15 36 -17 42l-2 12c0 13.333 5 25 15 35s21.667 15 35 15h14c11.333 -2.66699 19.833 -8.66699 25.5 -18s8.5 -20 8.5 -32
s-2 -22 -6 -30c-14 -33.333 -22.5 -57.5 -25.5 -72.5s-4.5 -39.5 -4.5 -73.5l10 -2c16.667 0 33 3 49 9c46.667 17.333 71.667 26.333 75 27h8c14.667 0 27 -4.66699 37 -14s15 -21.333 15 -36s-5.33301 -26.334 -16 -35.001s-23.334 -13 -38.001 -13l-4 2
c-12.667 0 -28.667 5.33301 -48 16c-13.333 7.33301 -23 12 -29 14s-15.667 3.66699 -29 5l-30 3c0 -38 3.16699 -70.833 9.5 -98.5s18.5 -56.834 36.5 -87.501c-14.667 -26.667 -26 -53.834 -34 -81.501s-12 -56.5 -12 -86.5l2 -14c25.333 0 57.666 8.33301 96.999 25
c20.667 8.66699 35 13 43 13c14 0 26.167 -4.16699 36.5 -12.5s15.5 -19.5 15.5 -33.5c0 -14.667 -5 -27 -15 -37s-22.333 -15 -37 -15l-8 2c-5.33301 0.666992 -29.666 8.66699 -72.999 24c-18.667 6.66699 -36.334 10 -53.001 10h-6l-2 -30
c0 -6.66699 0.666992 -14.667 2 -24s2.66602 -19.166 3.99902 -29.499s5.66602 -23.166 12.999 -38.499c10 -22.667 15.667 -36 17 -40v-14c0 -12.667 -3.83301 -24.167 -11.5 -34.5s-17.167 -15.5 -28.5 -15.5h-8c-13.333 0 -25.333 5 -36 15s-16 22.333 -16 37l2 6l30 78
c3.33301 12.667 5.5 25.667 6.5 39s1.5 30.333 1.5 51h-8c-17.333 0 -34.333 -3 -51 -9c-44.667 -16 -69.667 -24.333 -75 -25l-10 -2c-14 0 -25.833 4.83301 -35.5 14.5s-14.5 21.5 -14.5 35.5s5.16699 25.167 15.5 33.5s22.5 12.5 36.5 12.5l6 2
c8 -0.666992 25 -7.16699 51 -19.5s54.333 -18.5 85 -18.5c0 38.667 -3.16699 71.5 -9.5 98.5s-18.5 55.5 -36.5 85.5z" />
    <glyph glyph-name="bullet" unicode="&#x2022;" horiz-adv-x="290" 
 />
    <glyph glyph-name="ellipsis" unicode="&#x2026;" horiz-adv-x="712" 
d="M48 0v174h174v-174h-174zM268 0v174h174v-174h-174zM488 0v174h174v-174h-174z" />
    <glyph glyph-name="perthousand" unicode="&#x2030;" horiz-adv-x="1014" 
d="M528 62c12.667 0 20.5 8.83105 23.5 26.498s4.5 46.834 4.5 87.501c0 36 -0.333008 58.333 -1 67c-2.66699 31.333 -11.667 47 -27 47c-12.667 0 -20.5 -8.66699 -23.5 -26s-4.5 -46.666 -4.5 -87.999c0 -44 1.33301 -74 4 -90s10.667 -24 24 -24zM528 -10.002
c-48.667 0 -83.666 20 -104.999 60c-16.667 31.333 -25 73.333 -25 126c0 54 8 96 24 126c21.333 40 56.666 60 105.999 60c48 0 83 -20 105 -60c16.667 -30.667 25 -72.667 25 -126s-8.33301 -95.333 -25 -126c-21.333 -40 -56.333 -60 -105 -60zM158.001 421.998
c12.667 0 20.5 8.83105 23.5 26.498s4.5 46.834 4.5 87.501c0 36 -0.333008 58.333 -1 67c-2.66699 31.333 -11.667 47 -27 47c-12.667 0 -20.5 -8.66699 -23.5 -26s-4.5 -46.666 -4.5 -87.999c0 -44 1.33301 -74 4 -90s10.667 -24 24 -24zM158.001 349.996
c-48 0 -83.001 20 -105.001 60c-16.667 30.667 -25 72.667 -25 126s8.33301 95.333 25 126c21.333 40 56.333 60 105 60s83.667 -20 105 -60c16.667 -31.333 25 -73.333 25 -126c0 -54 -8 -96 -24 -126c-21.333 -40 -56.666 -60 -105.999 -60zM596 735.996l-420 -760h-92
l420 760h92zM848 61.9961c12.667 0 20.5 8.83105 23.5 26.498s4.5 46.834 4.5 87.501c0 36 -0.333008 58.333 -1 67c-2.66699 31.333 -11.667 47 -27 47c-12.667 0 -20.5 -8.66699 -23.5 -26s-4.5 -46.666 -4.5 -87.999c0 -44 1.33301 -74 4 -90s10.667 -24 24 -24z
M848 -10.0059c-48.667 0 -83.666 20 -104.999 60c-16.667 31.333 -25 73.333 -25 126c0 54 8 96 24 126c21.333 40 56.666 60 105.999 60c48 0 83 -20 105 -60c16.667 -30.667 25 -72.667 25 -126s-8.33301 -95.333 -25 -126c-21.333 -40 -56.333 -60 -105 -60z" />
    <glyph glyph-name="guilsinglleft" unicode="&#x2039;" horiz-adv-x="324" 
d="M2 260l222 212l70 -72l-146 -140l146 -142l-70 -70z" />
    <glyph glyph-name="guilsinglright" unicode="&#x203a;" horiz-adv-x="324" 
d="M294 260l-220 -212l-72 70l146 142l-146 140l72 72z" />
    <glyph glyph-name="trademark" unicode="&#x2122;" horiz-adv-x="858" 
d="M66 630v82h296v-82h-96v-340h-106v340h-94zM396 290v422h150l46 -236l54 236h146v-422h-106v312l-74 -312h-64l-68 322l-2 -322h-82z" />
    <glyph glyph-name=".null" horiz-adv-x="0" 
 />
    <glyph glyph-name="nonmarkingreturn" horiz-adv-x="290" 
 />
  </font>
</defs>
</svg>
