<?xml version="1.0" standalone="no"?>
<!DOCTYPE svg PUBLIC "-//W3C//DTD SVG 1.1//EN" "http://www.w3.org/Graphics/SVG/1.1/DTD/svg11.dtd" >
<svg>
<metadata>
Created by FontForge 20090914 at Fri Oct  4 04:22:19 2019
 By www-data
Copyright (c) VNI 1991 All Rights Reserved.
</metadata>
<defs>
<font id="VNI-Swiss-Condense-Bold" horiz-adv-x="382" >
  <font-face 
    font-family="VNI-Swiss-Condense"
    font-weight="700"
    font-stretch="normal"
    units-per-em="1000"
    panose-1="0 0 0 0 0 0 0 0 0 0"
    ascent="800"
    descent="-200"
    x-height="591.999"
    cap-height="740"
    bbox="-440 -238 943 1149"
    underline-thickness="120"
    underline-position="-60"
    unicode-range="U+0020-U+2122"
  />
<missing-glyph horiz-adv-x="762" 
d="M47 0v762h668v-762h-668zM668 47v668h-574v-668h574z" />
    <glyph glyph-name=".notdef" horiz-adv-x="762" 
d="M47 0v762h668v-762h-668zM668 47v668h-574v-668h574z" />
    <glyph glyph-name="space" unicode=" " horiz-adv-x="260" 
 />
    <glyph glyph-name="exclam" unicode="!" horiz-adv-x="394" 
d="M118 2v172h156v-172h-156zM118 218v522h156v-522h-156z" />
    <glyph glyph-name="quotedbl" unicode="&#x22;" horiz-adv-x="406" 
d="M58 720h110v-280h-110v280zM228 720h112v-280h-112v280z" />
    <glyph glyph-name="numbersign" unicode="#" horiz-adv-x="880" 
d="M388 736h124l-68 -198h118l70 198h124l-68 -198h134l-42 -116h-134l-40 -114h138l-42 -116h-138l-70 -196h-126l70 196h-118l-70 -196h-126l70 196h-136l42 116h136l40 114h-140l42 116h140zM400 422l-42 -114h124l40 114h-122z" />
    <glyph glyph-name="dollar" unicode="$" horiz-adv-x="544" 
d="M150 374c-33.333 27.333 -57.335 54.999 -72.002 82.999s-22 59.667 -22 95l4 54c5.33301 46 26 80 62 102c27.333 16.667 67.333 28 120 34v58h60v-58c79.333 -8 131 -30 155 -66c18 -27.333 27 -78.666 27 -153.999v-44h-172v116c0 14.667 -4 25.667 -12 33
s-17.333 11 -28 11c-22 0 -33.833 -5.66699 -35.5 -17s-3.16699 -21 -4.5 -29s-2 -12.667 -2 -14l2 -20c2 -18.667 7 -33.667 15 -45c5.33301 -8 17 -19 35 -33l110 -96c33.333 -28 57.333 -56.5 72 -85.5s22 -61.833 22 -98.5l-4 -64c-4.66699 -45.333 -25 -79 -61 -101
c-28.667 -17.333 -69 -28.333 -121 -33v-110h-60v110c-26 0 -51 3.66699 -75 11s-45 19 -63 35s-29.833 34.833 -35.5 56.5s-8.5 48.167 -8.5 79.5v102h172v-128c0 -14.667 4 -26 12 -34s17.333 -12 28 -12c20.667 0 33.334 8 38.001 24l4 40l-2 34
c-2 14 -7.66699 27 -17 39c-5.33301 6.66699 -15.666 17 -30.999 31z" />
    <glyph glyph-name="percent" unicode="%" horiz-adv-x="718" 
d="M214 450v201.999c0 22.667 -8.66699 34 -26 34c-16 0 -24 -11.333 -24 -34v-202c0 -24 8 -36 24 -36c6.66699 0 12.667 3.33301 18 10s8 15.334 8 26.001zM58 625.999c0 24 2 44.001 6 60.001s12.667 29 26 39s28.833 17.333 46.5 22s34.834 7 51.501 7l34 -2
c36.667 -6 62.167 -19 76.5 -39s21.5 -49 21.5 -87v-152c0 -45.333 -10.333 -78 -31 -98s-54.334 -30 -101.001 -30c-19.333 0 -36.833 2.16699 -52.5 6.5s-30.5 11.666 -44.5 21.999s-23 23.5 -27 39.5s-6 36 -6 60v152zM470 754h80l-298 -768h-78zM402 266
c0 22.667 2.33301 42 7 58s14.334 30 29.001 42c12 9.33301 26.5 16.333 43.5 21s33.833 7 50.5 7l36 -2c36 -6.66699 61 -20.167 75 -40.5s21 -48.833 21 -85.5v-152c0 -45.333 -10 -78 -30 -98s-53.333 -30 -100 -30s-80.334 10 -101.001 30s-31 52.667 -31 98v152z
M560 88v201.999c0 22.667 -8.66699 34 -26 34c-16 0 -24 -11.333 -24 -34v-202c0 -24 8 -36 24 -36c6.66699 0 12.667 3.33301 18 10s8 15.334 8 26.001z" />
    <glyph glyph-name="ampersand" unicode="&#x26;" horiz-adv-x="684" 
d="M592 418l0.000976562 -197.998c0 -12 -1.83301 -22.5 -5.5 -31.5s-9.83398 -19.833 -18.501 -32.5h60v-154l-66 -2c-8 0 -15.333 0.333008 -22 1s-14.334 1.83398 -23.001 3.50098s-16.334 4.66699 -23.001 9s-13.334 10.5 -20.001 18.5
c-20.667 -13.333 -47.667 -24 -81 -32s-65.666 -12 -96.999 -12c-48 0 -90.667 8 -128 24c-42 18 -72 44 -90 78c-8 16 -13.333 32.333 -16 49s-4 37.667 -4 63l-2 66c0 14 0.333008 24.333 1 31c2 8.66699 3 15 3 19c4 23.333 12.333 42 25 56
c10.667 11.333 27.667 22.666 51 33.999c-15.333 18 -26 31.333 -32 40c-11.333 16 -18.666 31.333 -21.999 46c-0.666992 3.33301 -2.16699 12 -4.5 26s-3.5 27.333 -3.5 40c0 8 0.833008 18.5 2.5 31.5s2.83398 22.5 3.50098 28.5c6.66699 45.333 33 79.333 79 102
c38 18.667 84.333 28 139 28c10 0 19 -0.333008 27 -1s18.333 -1.66699 31 -3c52.667 -6.66699 90.667 -24.334 114 -53.001c21.333 -26 32 -63.667 32 -113v-22c0 -34.667 -7.33301 -62.334 -22 -83.001c-16.667 -23.333 -56 -49 -118 -77l92 -106v126h138z
M374.001 134.002l-144.002 170.001l-2 -62c0 -28 2.33301 -51.667 7 -71s14.334 -34.333 29.001 -45s29.334 -16 44.001 -16c10.667 0 21.667 2.16699 33 6.5s22.333 10.166 33 17.499zM289.999 482.003c32 16 48.002 41.335 48.002 76.002v32
c0 11.333 -1.33301 21.666 -4 30.999s-7.33398 15.666 -14.001 18.999l-24 4c-11.333 0 -21.333 -2.83301 -30 -8.5s-13.834 -13 -15.501 -22s-3.16699 -17.667 -4.5 -26s-2 -12.833 -2 -13.5l2 -26c0 -8.66699 2.66699 -17.167 8 -25.5s17.333 -21.833 36 -40.5z" />
    <glyph glyph-name="quotesingle" unicode="'" horiz-adv-x="302" 
d="M58 482l34 258h154l-82 -258h-106z" />
    <glyph glyph-name="parenleft" unicode="(" horiz-adv-x="394" 
d="M334 740c-40.667 -70 -71 -134.667 -91 -194c-23.333 -70 -35 -140.667 -35 -212c0 -75.333 11 -147.333 33 -216c19.333 -60.667 50.333 -126 93 -196h-154c-41.333 68 -72 135 -92 201s-30 137.667 -30 215c0 73.333 10.667 143 32 209c18 56 48 120.333 90 193h154z
" />
    <glyph glyph-name="parenright" unicode=")" horiz-adv-x="394" 
d="M58 740l154 0.00195312c40 -69.333 69.667 -134.333 89 -195c22 -68.667 33 -139 33 -211c0 -76.667 -9.83301 -147.334 -29.5 -212.001s-50.5 -131.334 -92.5 -200.001h-154c43.333 67.333 75.5 133 96.5 197s31.5 133.667 31.5 209v10
c0 73.333 -11.333 143.333 -34 210c-18.667 54.667 -50 118.667 -94 192z" />
    <glyph glyph-name="asterisk" unicode="*" horiz-adv-x="464" 
d="M94 458l68 90l-104 32l28 84l102 -34l-2 110h86v-110l100 34l28 -84l-102 -32l62 -86l-68 -54l-66 88l-60 -88z" />
    <glyph glyph-name="plus" unicode="+" horiz-adv-x="730" 
d="M300 612h118v-246h240v-116h-240v-248h-118v248h-242v116h242v246z" />
    <glyph glyph-name="comma" unicode="," horiz-adv-x="302" 
d="M42 -128l40 302h166l-94 -302h-112z" />
    <glyph glyph-name="hyphen" unicode="-" 
d="M4 322h376v-120h-376v120z" />
    <glyph glyph-name="period" unicode="." horiz-adv-x="278" 
d="M58 2v174h158v-174h-158z" />
    <glyph glyph-name="slash" unicode="/" horiz-adv-x="396" 
d="M146 -92h-86l196 848h88z" />
    <glyph glyph-name="zero" unicode="0" horiz-adv-x="512" 
d="M36 524c0 50.667 3.83301 88.168 11.5 112.501s19.834 44.833 36.501 61.5c20 20 44 34.667 72 44s58 14 90 14c27.333 0 52 -2 74 -6c58 -10 98.667 -36.667 122 -80c18.667 -34 28 -82.667 28 -146v-308c0 -80.667 -15 -138.334 -45 -173.001
c-32.667 -38 -89.667 -57 -171 -57c-38.667 0 -72.334 4.66699 -101.001 14c-36 12 -63.667 31.333 -83 58c-14 20.667 -23.167 43.5 -27.5 68.5s-6.5 54.833 -6.5 89.5v308zM210 578.001l0.000976562 -408c0 -19.333 2.83301 -34.5 8.5 -45.5s17.5 -16.5 35.5 -16.5
c16 0 27 5.83301 33 17.5s9 26.5 9 44.5v408c0 20 -2.33301 34.667 -7 44c-6.66699 13.333 -18.334 20 -35.001 20s-28.167 -5.83301 -34.5 -17.5s-9.5 -27.167 -9.5 -46.5z" />
    <glyph glyph-name="one" unicode="1" horiz-adv-x="372" 
d="M150 2l0.000976562 546h-114v108c34 0 63.333 6 88 18c29.333 14.667 48.666 36.667 57.999 66h142v-738h-174z" />
    <glyph glyph-name="two" unicode="2" horiz-adv-x="512" 
d="M38 2l0.000976562 121.999c0 54 20.667 109.667 62 167c10.667 14.667 50.667 60.334 120 137.001c46 50.667 71.333 90.667 76 120l2 32c0 16.667 -3.33301 30.834 -10 42.501s-17.334 17.5 -32.001 17.5h-12c-9.33301 -0.666992 -16.833 -4.33398 -22.5 -11.001
s-9.5 -15 -11.5 -25l-2 -42l2 -84h-174v104c0 59.333 22.667 104.333 68 135c38.667 26 88.667 39 150 39c14.667 0 27.5 -0.5 38.5 -1.5s25.5 -3.16699 43.5 -6.5c44.667 -8 78.167 -26.167 100.5 -54.5s33.5 -64.833 33.5 -109.5v-18c0 -59.333 -19.333 -117.333 -58 -174
c-6 -9.33301 -44 -54.333 -114 -135c-44 -51.333 -70 -96.333 -78 -135h250v-120h-432z" />
    <glyph glyph-name="three" unicode="3" horiz-adv-x="512" 
d="M36 286h174v-116c0 -18 3.16699 -33.167 9.5 -45.5s17.166 -18.5 32.499 -18.5l10 2c13.333 0 22.333 6.16699 27 18.5s7 27.5 7 45.5v40c0 53.333 -4.33301 86.333 -13 99s-31.667 19 -69 19h-56v114l54 -2c16.667 0 31.5 2 44.5 6s22.833 10.667 29.5 20
c4 6.66699 7 18 9 34s3 32.667 3 50l-2 52c-0.666992 10 -5.5 18.5 -14.5 25.5s-18.833 10.5 -29.5 10.5c-9.33301 0 -16 -1.33301 -20 -4c-8.66699 -4 -15.167 -14.833 -19.5 -32.5s-6.5 -38.167 -6.5 -61.5c0 -10 0.333008 -20.333 1 -31s1.66699 -21.667 3 -33h-174v104
c0 56.667 22.667 100.667 68 132c40 28 90 42 150 42c41.333 0 80.5 -7.66699 117.5 -23s63.833 -36.333 80.5 -63c6 -10 10.833 -25.5 14.5 -46.5s5.5 -42.833 5.5 -65.5c0 -12 -0.833008 -25.333 -2.5 -40s-2.83398 -24.667 -3.50098 -30
c-5.33301 -26.667 -18.333 -48.334 -39 -65.001c-16.667 -14 -39.667 -25.667 -69 -35c38 -8.66699 65.333 -20.667 82 -36c20 -18.667 30 -46 30 -82l2 -74c0 -23.333 -1.16699 -43 -3.5 -59s-7.16602 -33 -14.499 -51c-15.333 -35.333 -43.666 -61.666 -84.999 -78.999
c-34 -14 -74.333 -21 -121 -21h-30c-54 0 -97.833 16.833 -131.5 50.5s-50.5 78.167 -50.5 133.5v116z" />
    <glyph glyph-name="four" unicode="4" horiz-adv-x="534" 
d="M276 2v170h-240v144l202 424h208v-450h56v-118h-56v-170h-170zM150 290h134v232l-2 44l2 24v16l-34 -88z" />
    <glyph glyph-name="five" unicode="5" horiz-adv-x="512" 
d="M296 332c0 20 -2.33496 34.667 -7.00195 44c-6.66699 13.333 -19 20 -37 20c-14 0 -24.167 -4.16699 -30.5 -12.5s-10.833 -20.166 -13.5 -35.499h-170v392h426v-114h-266v-18v-16c0 -28.667 -0.5 -48.5 -1.5 -59.5s-3.16699 -26.5 -6.5 -46.5
c20 16.667 40.833 29.5 62.5 38.5s44.167 13.5 67.5 13.5h20c46 -4.66699 79.667 -22.334 101 -53.001c19.333 -27.333 29 -65 29 -113v-180c0 -33.333 -2.66699 -60.333 -8 -81c-7.33301 -28 -20.833 -51.833 -40.5 -71.5s-44.167 -33.5 -73.5 -41.5s-61.333 -12 -96 -12
c-65.333 0 -116.666 14.333 -153.999 43c-41.333 31.333 -62 78.333 -62 141v120h174v-120c0 -18.667 2.83301 -33.667 8.5 -45s16.834 -17 33.501 -17c17.333 0 29 5.66699 35 17s9 26.333 9 45v162z" />
    <glyph glyph-name="six" unicode="6" horiz-adv-x="512" 
d="M210 248l-2 -55.998c0 -22.667 2 -41.334 6 -56.001s11.333 -23.334 22 -26.001l18 -4c12.667 0 22.834 5.16699 30.501 15.5s11.5 23.166 11.5 38.499l2 62c0 28.667 -1.83301 48.834 -5.5 60.501s-9.33398 19.5 -17.001 23.5s-16.167 6 -25.5 6
c-12.667 0 -22.5 -6.5 -29.5 -19.5s-10.5 -27.833 -10.5 -44.5zM210 578.002l0.00195312 -134.002c0 -8.66699 -0.5 -18.334 -1.5 -29.001s-1.83301 -19 -2.5 -25c18.667 18 38.667 31.833 60 41.5s43.333 14.5 66 14.5h22c39.333 -4 69 -21 89 -51
c18 -27.333 27 -61.666 27 -102.999v-112c0 -66.667 -18.5 -115.667 -55.5 -147s-90.5 -47 -160.5 -47c-82 0 -139.667 19 -173 57c-30 34.667 -45 92.334 -45 173.001v308c0 50.667 3.83301 88.167 11.5 112.5s19.834 44.833 36.501 61.5c20 20 44 34.667 72 44
s58.667 14 92 14c9.33301 0 20.666 -0.666992 33.999 -2s26 -2.66602 38 -3.99902c45.333 -8 81.666 -26.667 108.999 -56s41 -66.666 41 -111.999v-104h-174l2 78c0 8.66699 -0.333008 16.667 -1 24s-1.83398 18.666 -3.50098 33.999s-12.167 24 -31.5 26h-12
c-14.667 0 -25 -5.66699 -31 -17s-9 -26.333 -9 -45z" />
    <glyph glyph-name="seven" unicode="7" horiz-adv-x="512" 
d="M58 2l248 624h-270v114h452v-108l-240 -630h-190z" />
    <glyph glyph-name="eight" unicode="8" horiz-adv-x="512" 
d="M210 264c0 -2.66699 -0.666992 -12.3311 -2 -28.998s-2 -30.334 -2 -41.001c0 -24 2.33301 -44.333 7 -61s12.334 -26.334 23.001 -29.001l18 -4c13.333 0 23.666 5 30.999 15s11 23 11 39l2 72l-2 54c0 20.667 -5.33301 33.5 -16 38.5s-20.667 7.5 -30 7.5
c-12.667 0 -22.5 -6.16699 -29.5 -18.5s-10.5 -26.833 -10.5 -43.5zM36 244.003c0 40.667 10.998 72.001 32.998 94.001c19.333 19.333 50.333 34 93 44c-43.333 8.66699 -74.666 23 -93.999 43c-21.333 22 -32 54.333 -32 97l-2 36c0 19.333 1.5 37.666 4.5 54.999
s8.16699 33 15.5 47c16.667 34 45 59.333 85 76c32.667 13.333 71 20 115 20c42 0 79.333 -6.33301 112 -19c40.667 -16 69.334 -40.333 86.001 -73c7.33301 -14.667 12.166 -30.334 14.499 -47.001s3.5 -35.667 3.5 -57v-38c0 -42 -10.167 -73.667 -30.5 -95
s-51.5 -36.333 -93.5 -45c33.333 -8 59.333 -19 78 -33c24 -17.333 38.667 -41 44 -71c1.33301 -13.333 2.33301 -24.166 3 -32.499s1 -20.166 1 -35.499c0 -27.333 -1.5 -51.5 -4.5 -72.5s-8.16699 -40.167 -15.5 -57.5c-14.667 -32.667 -41.334 -57.334 -80.001 -74.001
c-33.333 -14.667 -72 -22 -116 -22c-17.333 0 -31.666 0.833008 -42.999 2.5s-27.666 4.83398 -48.999 9.50098c-55.333 15.333 -92.333 43.666 -111 84.999c-12.667 28 -19 73 -19 135zM295.998 492.004l1.99902 65.9961c0 22.667 -2 41.334 -6 56.001
s-9.33301 22.834 -16 24.501s-12.667 2.66699 -18 3s-8.66602 0.5 -9.99902 0.5c-16.667 0 -27.167 -7.5 -31.5 -22.5s-6.5 -34.833 -6.5 -59.5c0 -3.33301 -0.666992 -11.666 -2 -24.999s-2 -24.333 -2 -33c0 -21.333 2.66699 -39 8 -53s15.333 -21 30 -21l10 -2
c16 0 27 5.83301 33 17.5s9 27.834 9 48.501z" />
    <glyph glyph-name="nine" unicode="9" horiz-adv-x="512" 
d="M210 580v-126.001c0 -19.333 2.83301 -34.5 8.5 -45.5s17.5 -16.5 35.5 -16.5c16 0 27 5.83301 33 17.5s9 26.5 9 44.5v126c0 16.667 -2.66699 30.334 -8 41.001c-7.33301 14 -18 21 -32 21h-6c-15.333 0 -25.833 -5.66699 -31.5 -17s-8.5 -26.333 -8.5 -45zM36 221.999
l173.998 0.00585938l-2 -50c0 -18.667 2 -34.334 6 -47.001s11.333 -20.334 22 -23.001c8 -2.66699 13.333 -4 16 -4c14.667 0 25.667 6.16699 33 18.5s11 28.166 11 47.499v150c-17.333 -18 -36.833 -32.5 -58.5 -43.5s-44.167 -16.5 -67.5 -16.5l-18 2
c-39.333 4.66699 -68.5 21.167 -87.5 49.5s-28.5 63.166 -28.5 104.499v150c0 66 20.333 116 61 150c36.667 30.667 87 46 151 46c25.333 0 50 -2 74 -6c56.667 -10 96.667 -36.667 120 -80c18.667 -34.667 28 -83.334 28 -146.001v-308c0 -44.667 -3 -79 -9 -103
c-9.33301 -36.667 -27 -65 -53 -85c-19.333 -14.667 -42.166 -25.334 -68.499 -32.001s-54.166 -10 -83.499 -10h-36c-37.333 0 -72.333 9.66699 -105 29s-55.667 46.333 -69 81c-8 30 -12 61.333 -12 94z" />
    <glyph glyph-name="colon" unicode=":" horiz-adv-x="258" 
d="M48 420v174h156v-174h-156zM48 2v174h156v-174h-156z" />
    <glyph glyph-name="semicolon" unicode=";" horiz-adv-x="302" 
d="M40 -128l40 302h166l-94 -302h-112zM68 420v174h156v-174h-156z" />
    <glyph glyph-name="less" unicode="&#x3c;" horiz-adv-x="706" 
d="M646 610v-128l-426 -174l426 -174v-128l-588 242v118z" />
    <glyph glyph-name="equal" unicode="=" horiz-adv-x="718" 
d="M58 478h600v-116h-600v116zM58 252h600v-114h-600v114z" />
    <glyph glyph-name="greater" unicode="&#x3e;" horiz-adv-x="706" 
d="M58 610l588 -244v-118l-588 -242v128l428 174l-428 174v128z" />
    <glyph glyph-name="question" unicode="?" horiz-adv-x="534" 
d="M184 2v174h162v-174h-162zM184 222l-0.00195312 119.998c0 28.667 6.33301 52.667 19 72c8 12.667 25.667 31.334 53 56.001c16.667 16 27.834 30.333 33.501 43s8.5 29 8.5 49l-2 56c0 8.66699 -3.16699 15.834 -9.5 21.501s-13.833 8.5 -22.5 8.5
c-9.33301 0 -17.666 -3.66699 -24.999 -11s-11 -17.666 -11 -30.999v-128h-156v116c0 54 20 95 60 123c35.333 24.667 81.333 37 138 37h8c48.667 0 89.667 -8.66699 123 -26c42 -22 63 -54.667 63 -98v-62c0 -21.333 -1.5 -41.833 -4.5 -61.5
s-8.16699 -35.834 -15.5 -48.501c-2.66699 -4 -22 -25.333 -58 -64c-26.667 -28.667 -40 -52 -40 -70v-102h-162z" />
    <glyph glyph-name="at" unicode="@" horiz-adv-x="995" 
d="M573 335c0 22.667 -7.33301 41.001 -22 55.001s-31.667 21 -51 21c-26 0 -50.333 -12.667 -73 -38c-25.333 -28.667 -42.333 -69 -51 -121l-4 -39c0 -26.667 6.16699 -47.5 18.5 -62.5s27.833 -22.5 46.5 -22.5c22 0 43.667 9.66699 65 29
c24 21.333 39.667 47.666 47 78.999zM555 128.001c-17.333 -25.333 -37.668 -44.832 -61.001 -58.499s-50.333 -20.5 -81 -20.5l-6 2c-50 0 -88.333 14.667 -115 44s-40 69.333 -40 120l2 11c0 66.667 20 126 60 178c43.333 56 96.666 84 159.999 84h14
c23.333 0 44.666 -4.83301 63.999 -14.5s35.333 -24.5 48 -44.5l26 45h98l-72 -293c-2.66699 -9.33301 -4 -15.333 -4 -18c0 -19.333 10.333 -29 31 -29c14 0 30.5 4.66699 49.5 14s34.167 20.333 45.5 33c22 24.667 39.167 52.834 51.5 84.501s18.5 63.834 18.5 96.501
c0 25.333 -3 49 -9 71c-17.333 62.667 -55.333 111.667 -114 147c-53.333 32 -114 48 -182 48c-75.333 0 -143.166 -14.833 -203.499 -44.5s-109.166 -75.167 -146.499 -136.5c-17.333 -28.667 -30.833 -59.667 -40.5 -93s-14.5 -67.333 -14.5 -102
c0 -40.667 6.5 -79.334 19.5 -116.001s33.5 -69 61.5 -97c33.333 -33.333 73.833 -58.666 121.5 -75.999s98.167 -26 151.5 -26s105.5 7.66699 156.5 23s96.5 37.333 136.5 66l46 -61c-39.333 -29.333 -80.5 -53.333 -123.5 -72s-87.167 -31 -132.5 -37
c-9.33301 0 -24.833 -0.666992 -46.5 -2s-33.167 -2 -34.5 -2c-65.333 0 -125.333 9.33301 -180 28c-60 20.667 -112 52 -156 94c-38.667 35.333 -68.167 77.166 -88.5 125.499s-30.5 98.5 -30.5 150.5c0 121.333 43.333 227.666 130 318.999
c94.667 100 214.334 150 359.001 150c30.667 0 60.667 -2 90 -6c94.667 -14.667 172 -50.334 232 -107.001c64.667 -61.333 97 -137.333 97 -228v-8c0 -55.333 -12.333 -108 -37 -158s-59.667 -90.333 -105 -121c-16.667 -10.667 -39 -20.667 -67 -30s-53.667 -14 -77 -14
c-27.333 0 -49.666 6 -66.999 18c-20.667 14 -32.334 35 -35.001 63z" />
    <glyph glyph-name="A" unicode="A" horiz-adv-x="570" 
d="M34 2l134 738h222l138 -738h-160l-30 182h-118l-32 -182h-154zM236 300h84l-12 134l-24 214h-6l-26 -210z" />
    <glyph glyph-name="B" unicode="B" horiz-adv-x="512" 
d="M224 740c80 0 134.999 -5.66797 164.999 -17.001c52.667 -20 79 -62.333 79 -127c0 -68.667 -5.66699 -114 -17 -136c-16.667 -31.333 -55 -52.666 -115 -63.999v-4c55.333 -5.33301 92.333 -22.333 111 -51c14 -21.333 21 -56.333 21 -105v-72
c0 -51.333 -15 -90 -45 -116c-35.333 -30.667 -101.666 -46 -198.999 -46h-188v738h188zM207.999 441.999l10 -2c22 0 39.667 4.33301 53 13c16.667 10.667 25 27 25 49v60c0 25.333 -4.33301 43 -13 53c-10.667 12.667 -31.667 19 -63 19h-12v-192zM207.999 335.999
l-0.000976562 -224l12 -2c29.333 0 49.333 6 60 18s16 36 16 72l2 54c0 11.333 -1.16699 22.5 -3.5 33.5s-6 20.5 -11 28.5s-12.167 13.333 -21.5 16s-20.666 4 -33.999 4h-20z" />
    <glyph glyph-name="C" unicode="C" horiz-adv-x="512" 
d="M36 524c0 50.667 3.83301 88.166 11.5 112.499s19.834 44.833 36.501 61.5c19.333 20 43.166 34.667 71.499 44s59.166 14 92.499 14c10 0 21.5 -0.666992 34.5 -2l37.5 -4c44 -7.33301 80 -26 108 -56s42 -67.333 42 -112v-104h-174l2 78c0 8 -0.5 17.333 -1.5 28
s-1.83301 18.667 -2.5 24c-4 19.333 -14.667 30 -32 32h-14c-14.667 0 -24.667 -5.66699 -30 -17s-8 -26.333 -8 -45v-408c0 -18.667 2.83301 -33.667 8.5 -45s16.834 -17 33.501 -17c17.333 0 29 5.66699 35 17s9 26.333 9 45v116h174v-116
c0 -61.333 -20.667 -108 -62 -140c-38 -29.333 -89.333 -44 -154 -44c-82 0 -139.667 19 -173 57c-30 34.667 -45 92.334 -45 173.001v308z" />
    <glyph glyph-name="D" unicode="D" horiz-adv-x="512" 
d="M224 740c92.667 0 155.667 -13.666 189 -40.999c38 -30.667 57 -91 57 -181v-294c0 -94.667 -25.333 -157.334 -76 -188.001c-37.333 -22.667 -107.333 -34 -210 -34h-148v738h188zM208 634.001l0.000976562 -522l16 -2c25.333 0 42.666 3.33301 51.999 10
c13.333 9.33301 20 27.333 20 54v400c0 24 -5.5 40 -16.5 48s-27.5 12 -49.5 12h-22z" />
    <glyph glyph-name="E" unicode="E" horiz-adv-x="558" 
d="M36 2v738h470v-118h-286v-156h286v-114h-286v-234h286v-116h-470z" />
    <glyph glyph-name="F" unicode="F" horiz-adv-x="430" 
d="M36 2v738h354v-118h-182v-158h182v-112h-182v-350h-172z" />
    <glyph glyph-name="G" unicode="G" horiz-adv-x="512" 
d="M36 524c0 50.667 3.83496 88.168 11.502 112.501s19.834 44.833 36.501 61.5c19.333 20 43.166 34.667 71.499 44s59.166 14 92.499 14c10 0 21.5 -0.666992 34.5 -2l37.5 -4c44 -7.33301 80 -26 108 -56s42 -67.333 42 -112v-104h-174l2 78c0 8 -0.5 17.333 -1.5 28
s-1.83301 18.667 -2.5 24c-4 19.333 -14.667 30 -32 32h-14c-14.667 0 -24.667 -5.66699 -30 -17s-8 -26.333 -8 -45v-408c0 -18.667 3 -34 9 -46s16.333 -18 31 -18l20 4c10 2.66699 17.167 11.834 21.5 27.501s6.5 34.5 6.5 56.5l-2 66h-64v112h238v-370h-104l-12 36
c-21.333 -15.333 -45 -27.833 -71 -37.5s-51.667 -14.5 -77 -14.5c-7.33301 0 -15.333 0.5 -24 1.5s-15.334 1.83301 -20.001 2.5c-26 6 -48.333 18 -67 36s-33 40.667 -43 68c-6 17.333 -10.167 36.166 -12.5 56.499s-3.5 42.166 -3.5 65.499v308z" />
    <glyph glyph-name="H" unicode="H" horiz-adv-x="512" 
d="M36 2v738h172v-270h86v270h172v-738h-172v352h-86v-352h-172z" />
    <glyph glyph-name="I" unicode="I" horiz-adv-x="256" 
d="M210 2h-174v738h174v-738z" />
    <glyph glyph-name="J" unicode="J" horiz-adv-x="512" 
d="M470 740v-523.999c0 -80.667 -15 -138.334 -45 -173.001c-32.667 -38 -89.667 -57 -171 -57c-46 0 -84.667 6.66699 -116 20c-39.333 16.667 -67.333 42.667 -84 78c-6 14 -10.5 30.833 -13.5 50.5s-4.5 40.167 -4.5 61.5l2 90h172v-116
c0 -19.333 2.83301 -34.5 8.5 -45.5s17.5 -16.5 35.5 -16.5c16 0 27.333 5.83301 34 17.5s10 26.5 10 44.5v570h172z" />
    <glyph glyph-name="K" unicode="K" horiz-adv-x="512" 
d="M36 2v738h172v-348l114 348h166l-116 -324l116 -414h-174l-104 386l-2 -386h-172z" />
    <glyph glyph-name="L" unicode="L" horiz-adv-x="430" 
d="M390 2h-354v738h172v-622h182v-116z" />
    <glyph glyph-name="M" unicode="M" horiz-adv-x="730" 
d="M36 2v738.002h252l54 -404c2.66699 -20 5 -42.5 7 -67.5s3 -47.833 3 -68.5h6c6.66699 68 12.5 121.5 17.5 160.5s8.5 68.833 10.5 89.5l46 290h250v-738h-160v518c0 13.333 1.33301 33.666 4 60.999s4 47.666 4 60.999h-4l-28 -162l-74 -478h-156l-76 496l-20 144
l-2 -640h-134z" />
    <glyph glyph-name="N" unicode="N" horiz-adv-x="558" 
d="M36 2l0.000976562 737.999h240l64 -334c4.66699 -23.333 9.66699 -53 15 -89c1.33301 -11.333 7.66602 -61 18.999 -149h6l-6 244v328h140v-738h-220l-92 444c-6.66699 28.667 -13.667 67.334 -21 116.001c-4 24 -7.66699 48 -11 72v-26c0 -20.667 1 -51.667 3 -93
s3 -72.333 3 -93v-420h-140z" />
    <glyph glyph-name="O" unicode="O" horiz-adv-x="558" 
d="M36 528c0 40 2.33203 70.668 6.99902 92.001c7.33301 34 21.833 61.167 43.5 81.5s47.5 35.166 77.5 44.499s62.667 14 98 14c28 0 54 -2 78 -6c62.667 -10 106.667 -36.667 132 -80c20 -34 30 -82.667 30 -146v-308c0 -80 -16.333 -137.667 -49 -173
c-35.333 -38 -96.333 -57 -183 -57c-42 0 -78.333 4.66699 -109 14c-39.333 12 -69 31.333 -89 58c-15.333 20.667 -25.166 43.167 -29.499 67.5s-6.5 54.5 -6.5 90.5v308zM221.999 582.001v-408c0 -18.667 3.16699 -33.667 9.5 -45s19.166 -17 38.499 -17
c17.333 0 29 5.66699 35 17s9 26.333 9 45v408c0 20 -2.33301 34.667 -7 44c-6.66699 13.333 -19 20 -37 20c-19.333 0 -32.166 -5.66699 -38.499 -17s-9.5 -27 -9.5 -47z" />
    <glyph glyph-name="P" unicode="P" horiz-adv-x="512" 
d="M36 2v738h188c83.333 0 141 -7.66699 173 -23c50 -24 75 -72.333 75 -145v-110c0 -57.333 -16 -100 -48 -128c-36.667 -32 -108.667 -48 -216 -48v-284h-172zM208 632v-234l16 -2c24 0 41.333 4 52 12c13.333 10 20 28 20 54v110c0 26.667 -8.66699 44 -26 52
c-11.333 5.33301 -32 8 -62 8z" />
    <glyph glyph-name="Q" unicode="Q" horiz-adv-x="512" 
d="M36 524c0 52 3.66699 89.832 11 113.499s19 43.834 35 60.501c20 20 44 34.667 72 44s58.667 14 92 14c27.333 0 52 -2 74 -6c58 -10 98.667 -36.667 122 -80c18.667 -34 28 -82.667 28 -146v-308c0 -52.667 -4.33301 -90.667 -13 -114
c-11.333 -31.333 -36.333 -60 -75 -86c1.33301 -7.33301 4.33301 -11.833 9 -13.5s13 -2.5 25 -2.5l52 2v-128h-74c-38 0 -64 6 -78 18c-18.667 16 -28 47.333 -28 94h-38c-76.667 0 -131.5 17.5 -164.5 52.5s-49.5 94.167 -49.5 177.5v308zM208 577.999v-408
c0 -18 3.16699 -32.833 9.5 -44.5s17.833 -17.5 34.5 -17.5c17.333 0 29 5.66699 35 17s9 26.333 9 45v408c0 20 -2.33301 34.667 -7 44c-6.66699 13.333 -19 20 -37 20c-16.667 0 -28.167 -5.83301 -34.5 -17.5s-9.5 -27.167 -9.5 -46.5z" />
    <glyph glyph-name="R" unicode="R" horiz-adv-x="512" 
d="M296 504v54.001c0 25.333 -4.66699 43.666 -14 54.999c-12 14 -33.333 21 -64 21h-10v-190l10 -2c22 0 39.667 4.33301 53 13c16.667 10.667 25 27 25 49zM296 248.001c0 38 -5.16797 62.166 -15.501 72.499s-34.5 15.5 -72.5 15.5v-334h-172v738h218
c80 0 134.667 -11 164 -33c34.667 -26 52 -77 52 -153c0 -44.667 -11.333 -79.334 -34 -104.001s-56 -40 -100 -46v-4c46.667 0 80.334 -10.333 101.001 -31s31 -55.667 31 -105v-134c0 -29.333 1.5 -51.666 4.5 -66.999s10.167 -35.666 21.5 -60.999h-180
c-8 20 -13 39.667 -15 59s-3 46.333 -3 81v106z" />
    <glyph glyph-name="S" unicode="S" horiz-adv-x="512" 
d="M426 334c19.333 -19.333 33.1689 -41.332 41.502 -65.999s12.5 -52 12.5 -82c0 -36.667 -4 -66.667 -12 -90c-10.667 -30.667 -28.667 -54.667 -54 -72c-21.333 -13.333 -45.833 -23.333 -73.5 -30s-56.5 -10 -86.5 -10c-41.333 0 -78 6 -110 18
c-36.667 14 -62.834 35.167 -78.501 63.5s-23.5 63.166 -23.5 104.499v116h172v-116c0 -14 1.33301 -26 4 -36s8.66699 -17.333 18 -22c4.66699 -1.33301 9 -2.66602 13 -3.99902s6.33301 -2 7 -2c15.333 0 27.166 5.33301 35.499 16s12.5 26.667 12.5 48
c0 12.667 -1.83301 25 -5.5 37s-8.5 21.667 -14.5 29l-190 186c-22 20 -37.167 41.667 -45.5 65s-12.5 51.666 -12.5 84.999c0 80 37.333 134.667 112 164c32 12 70.667 18 116 18c36 0 69.833 -4.66699 101.5 -14s56.5 -24 74.5 -44c12.667 -14.667 22.167 -32 28.5 -52
s9.5 -40.667 9.5 -62v-106h-174v102c0 22 -4.16699 38.167 -12.5 48.5s-18.833 15.5 -31.5 15.5c-7.33301 0 -14.833 -1.66699 -22.5 -5s-13.167 -7.33301 -16.5 -12s-6.33301 -10.167 -9 -16.5s-4 -12.5 -4 -18.5c0 -12 2.66699 -24 8 -36s12 -22 20 -30z" />
    <glyph glyph-name="T" unicode="T" horiz-adv-x="488" 
d="M326 2h-174v620h-118v118h412v-118h-120v-620z" />
    <glyph glyph-name="U" unicode="U" horiz-adv-x="558" 
d="M500 740l-0.00292969 -524.001c0 -39.333 -1.33301 -66.666 -4 -81.999c-5.33301 -29.333 -16.666 -54.666 -33.999 -75.999c-19.333 -26.667 -47.666 -46 -84.999 -58c-29.333 -9.33301 -65.666 -14 -108.999 -14c-42 0 -78.333 4.66699 -109 14
c-38.667 12 -67.667 31.333 -87 58c-15.333 20 -25.166 42.667 -29.499 68s-6.5 55.333 -6.5 90v524h184v-570c0 -18.667 3.16699 -33.667 9.5 -45s19.166 -17 38.499 -17c18 0 30.667 6.33301 38 19c5.33301 9.33301 8 23.666 8 42.999v570h186z" />
    <glyph glyph-name="V" unicode="V" horiz-adv-x="524" 
d="M142 2l-110 738h186l34 -450l8 -132h4c0 25.333 1.66699 51.833 5 79.5s7 55.167 11 82.5l54 420h156l-122 -738h-226z" />
    <glyph glyph-name="W" unicode="W" horiz-adv-x="788" 
d="M124 2l-92 738.001h176l24 -360c0 -20 1.33301 -50.333 4 -91s4 -71 4 -91h4c0 27.333 1.16699 55.666 3.5 84.999s5.83301 60.333 10.5 93l54 364h184l36 -406c1.33301 -15.333 2.33301 -38.333 3 -69s1 -53 1 -67h4l16 170l42 372h152l-98 -738h-202l-52 460
c-2 21.333 -3.33301 37 -4 47c-2.66699 30.667 -4 57 -4 79h-4c0 -13.333 -1.66699 -33.333 -5 -60s-5 -46.667 -5 -60l-54 -466h-198z" />
    <glyph glyph-name="X" unicode="X" horiz-adv-x="546" 
d="M40 2l107.999 394l-100 344h186l34 -164c8 -47.333 14 -92.666 18 -135.999h4c9.33301 70 14.5 107.667 15.5 113s5.83301 25 14.5 59l32 128h154l-104 -362l104 -376h-186l-42 204c-2.66699 14.667 -5 31.5 -7 50.5s-3 36.167 -3 51.5h-4
c-4 -25.333 -6.66699 -44 -8 -56c-3.33301 -20.667 -6.66602 -39.334 -9.99902 -56.001l-46 -194h-160z" />
    <glyph glyph-name="Y" unicode="Y" horiz-adv-x="570" 
d="M178 0v270l-150 468h192l26 -126c4.66699 -20.667 11.167 -51 19.5 -91s13.833 -69.667 16.5 -89h4c4 28.667 9 58 15 88s13 60.667 21 92l28 126h172l-156 -468v-270h-188z" />
    <glyph glyph-name="Z" unicode="Z" horiz-adv-x="454" 
d="M36 2v124l194 502h-186v112h372v-112l-202 -516h196v-110h-374z" />
    <glyph glyph-name="bracketleft" unicode="[" horiz-adv-x="338" 
d="M48 -78v818h242v-116h-104v-588h104v-114h-242z" />
    <glyph glyph-name="backslash" unicode="\" horiz-adv-x="372" 
d="M244 -92l-198 848h88l198 -848h-88z" />
    <glyph glyph-name="bracketright" unicode="]" horiz-adv-x="350" 
d="M292 -78h-244v114h102v588h-102v116h244v-818z" />
    <glyph glyph-name="asciicircum" unicode="^" horiz-adv-x="995" 
d="M419 705h140l222 -272h-127l-164 163l-167 -163h-128z" />
    <glyph glyph-name="underscore" unicode="_" horiz-adv-x="522" 
d="M0 -118h512v-120h-512v120z" />
    <glyph glyph-name="grave" unicode="`" horiz-adv-x="243" 
d="M203 463h-103l-76 248h145z" />
    <glyph glyph-name="a" unicode="a" horiz-adv-x="500" 
d="M154 -8c-24.667 0 -46.999 5.16895 -66.999 15.502s-35 25.833 -45 46.5c-2.66699 16.667 -4.33398 39 -5.00098 67s-1 58.333 -1 91v18c2.66699 22.667 13 42.667 31 60c12.667 12 32.667 25 60 39l82 41c38 20.667 60.333 38 67 52c2.66699 10.667 4 20 4 28
c0 10 -1.16699 18 -3.5 24s-5.16602 10.667 -8.49902 14c-3.33301 5.33301 -11.333 8 -24 8c-9.33301 0 -17.166 -3.16699 -23.499 -9.5s-11 -15.833 -14 -28.5s-4.5 -25.334 -4.5 -38.001l2 -24h-168c0 20.667 0.166992 40.167 0.5 58.5s2.16602 39.5 5.49902 63.5
c11.333 23.333 30.666 42.333 57.999 57c22 12 48.667 21 80 27l72 4c61.333 0 109 -12.333 143 -37c39.333 -28.667 59 -72.334 59 -131.001v-382c0 -18 2 -36 6 -54h-174l-6 66c-8.66699 -24 -25 -42.667 -49 -56s-49.667 -20 -77 -20zM278.001 172.002v125.998l-46 -36
c-20 -18 -30 -41.333 -30 -70c0 -2.66699 0.666992 -8.66699 2 -18s2 -16.666 2 -21.999c2 -8.66699 6.5 -16.167 13.5 -22.5s14.5 -9.5 22.5 -9.5c8.66699 0 16.5 4.33301 23.5 13s10.5 20.334 10.5 35.001z" />
    <glyph glyph-name="b" unicode="b" horiz-adv-x="476" 
d="M200 2h-164v738h162v-128c0 -11.333 -0.666992 -29.833 -2 -55.5s-2 -39.167 -2 -40.5c8 17.333 16 31.333 24 42c10.667 14 22.667 24.667 36 32c8 5.33301 16.667 9 26 11s20 3 32 3c10.667 0 21.5 -1.16699 32.5 -3.5s20.833 -5.83301 29.5 -10.5
c26 -12.667 43 -34.667 51 -66c4.66699 -18 7 -47.333 7 -88v-280c0 -62 -8.5 -104.333 -25.5 -127s-41.833 -35.667 -74.5 -39h-18c-58 0 -96 29.333 -114 88v-76zM268 178v239.999c0 14.667 -1 25.834 -3 33.501s-7.66699 12.5 -17 14.5l-16 2
c-10 0 -17.5 -4.5 -22.5 -13.5s-7.5 -19.833 -7.5 -32.5v-244l-2 -10c0 -15.333 4 -26.333 12 -33c5.33301 -4.66699 13.333 -7 24 -7c12 0 20.333 4.83301 25 14.5s7 21.5 7 35.5z" />
    <glyph glyph-name="c" unicode="c" horiz-adv-x="476" 
d="M432 230v-50.001c0 -40 -3.33301 -70 -10 -90s-16.667 -36.667 -30 -50c-20 -18.667 -43.333 -32 -70 -40s-56 -12 -88 -12c-72.667 0 -123.834 17 -153.501 51s-44.5 87 -44.5 159v198c0 34 1.83301 61.5 5.5 82.5s12.5 41.5 26.5 61.5c17.333 24 40.833 41 70.5 51
s61.5 15 95.5 15c36 0 67 -4.33301 93 -13c34 -11.333 59.667 -29 77 -53c10.667 -16.667 18 -35.334 22 -56.001s6 -44 6 -70v-32h-164l2 52c0 20.667 -2 36 -6 46c-6 14.667 -16 22 -30 22c-12.667 0 -21.5 -5 -26.5 -15s-7.5 -21.667 -7.5 -35v-304
c0 -14 2.5 -25.833 7.5 -35.5s13.167 -14.5 24.5 -14.5l14 2c8.66699 2.66699 14.834 10.834 18.501 24.501s5.5 28.834 5.5 45.501l-2 60h164z" />
    <glyph glyph-name="d" unicode="d" horiz-adv-x="476" 
d="M200 178c0 -15.333 2.16699 -27.5 6.5 -36.5s12.833 -13.5 25.5 -13.5c13.333 0 22.333 4.66699 27 14s7 21.333 7 36v240c0 14.667 -1 25.667 -3 33s-6 12 -12 14s-13 3 -21 3c-10 0 -17.5 -5 -22.5 -15s-7.5 -21.667 -7.5 -35v-240zM268 2l0.000976562 76
c-18 -58.667 -56.667 -88 -116 -88h-16c-42 4.66699 -70.333 24 -85 58c-10 23.333 -15 59.333 -15 108v280c0 45.333 4 79 12 101c12.667 35.333 36.667 57 72 65c5.33301 1.33301 10.833 2 16.5 2h13.5c59.333 0 100.666 -29.333 123.999 -88
c0 11.333 -0.666992 29.833 -2 55.5s-2 39.167 -2 40.5v128h160v-738h-162z" />
    <glyph glyph-name="e" unicode="e" horiz-adv-x="500" 
d="M282 380l2.00098 54c0 19.333 -2.66699 35.5 -8 48.5s-15.333 19.5 -30 19.5s-25.334 -7.33301 -32.001 -22s-10 -32 -10 -52c0 -6.66699 0.333008 -14.167 1 -22.5s1.66699 -16.833 3 -25.5h74zM458.001 230l-0.000976562 -48.001c0 -38 -3.83301 -67.667 -11.5 -89
s-18.5 -39 -32.5 -53c-20.667 -18.667 -45.5 -32 -74.5 -40s-60.167 -12 -93.5 -12c-78 0 -133.333 17.667 -166 53c-29.333 32 -44 84.333 -44 157v198c0 33.333 1.83301 61 5.5 83s12.5 42.333 26.5 61c18 23.333 43.167 40.166 75.5 50.499s66.5 15.5 102.5 15.5
c64.667 0 115 -12.667 151 -38c40.667 -28.667 61 -72 61 -130v-158h-250v-132c0 -14 3 -25.833 9 -35.5s15 -14.5 27 -14.5l16 2c8.66699 2.66699 14.834 10.834 18.501 24.501s5.5 28.834 5.5 45.501l-2 60h176z" />
    <glyph glyph-name="f" unicode="f" horiz-adv-x="326" 
d="M70 2l-0.000976562 482h-34v108h34l-2 4c0 60.667 14.667 101 44 121c22.667 15.333 63.334 23 122.001 23h50v-104c-18.667 0 -32 -2.5 -40 -7.5s-12 -15.167 -12 -30.5l2 -6h48v-108h-48v-482h-164z" />
    <glyph glyph-name="g" unicode="g" horiz-adv-x="476" 
d="M432 78c0 -72 -14.667 -124.004 -44 -156.004c-32 -34.667 -84.667 -52 -158 -52c-48.667 0 -85.834 5.16699 -111.501 15.5s-45.167 25.166 -58.5 44.499c-10 14 -16.833 29.833 -20.5 47.5s-5.5 37.167 -5.5 58.5l2 18h164l-2 -30c0 -10 1.83301 -19.5 5.5 -28.5
s9.83398 -14.833 18.501 -17.5l12 -2c10 0 18.167 4.83301 24.5 14.5s9.5 20.834 9.5 33.501v138c-10.667 -29.333 -25.334 -51.666 -44.001 -66.999s-42.667 -23 -72 -23l-16 2c-42 4.66699 -70.333 24.334 -85 59.001c-10 23.333 -15 59.666 -15 108.999v194
c0 44.667 4 78.334 12 101.001c12.667 35.333 36.667 57 72 65c4.66699 0.666992 10.334 1.16699 17.001 1.5s11.667 0.5 15 0.5c56.667 0 96.667 -29.333 120 -88c-1.33301 8.66699 -2.33301 21.334 -3 38.001s-1 29.334 -1 38.001h164v-514zM200 417.996v-156
c0 -19.333 2.83301 -32.833 8.5 -40.5s13.5 -11.5 23.5 -11.5c13.333 0 22.333 4.83301 27 14.5s7 22.167 7 37.5v156c0 14.667 -1 25.667 -3 33s-6 12 -12 14s-13 3 -21 3c-10 0 -17.5 -5 -22.5 -15s-7.5 -21.667 -7.5 -35z" />
    <glyph glyph-name="h" unicode="h" horiz-adv-x="476" 
d="M36 2v738.001h164v-156c0 -18 -0.333008 -31 -1 -39c-2 -10.667 -3 -18.334 -3 -23.001c14.667 25.333 32.167 45.333 52.5 60s42.833 22 67.5 22c15.333 0 30 -2 44 -6c30.667 -10.667 51 -32.667 61 -66c6 -20 9 -52 9 -96v-434h-164v416c0 14 -2.66699 25.833 -8 35.5
s-13.333 14.5 -24 14.5h-8c-12.667 -2 -20.167 -8.16699 -22.5 -18.5s-3.5 -20.833 -3.5 -31.5v-416h-164z" />
    <glyph glyph-name="i" unicode="i" horiz-adv-x="246" 
d="M200 2h-164v590h164v-590zM200 652h-164v108h164v-108z" />
    <glyph glyph-name="j" unicode="j" horiz-adv-x="246" 
d="M200 632h-164v108h164v-108zM36 592l164 0.000976562v-576c0 -48 -8.33301 -83.333 -25 -106c-19.333 -26.667 -52.333 -40 -99 -40h-116v104h38c13.333 0 23 2.66699 29 8s9 16.666 9 33.999v576z" />
    <glyph glyph-name="k" unicode="k" horiz-adv-x="488" 
d="M202 2h-166v738h166v-410l86 262h158l-96 -262l102 -328h-166l-84 322v-322z" />
    <glyph glyph-name="l" unicode="l" horiz-adv-x="246" 
d="M200 2h-164v738h164v-738z" />
    <glyph glyph-name="m" unicode="m" horiz-adv-x="696" 
d="M36 2v590.001h158v-68c12.667 25.333 28.5 45 47.5 59s41.833 21 68.5 21h4c26 0 48.667 -7 68 -21s32.666 -33.667 39.999 -59l56 66c9.33301 4 19.5 7.33301 30.5 10s21.5 4 31.5 4c20 0 40.333 -5.16699 61 -15.5s35.334 -28.833 44.001 -55.5
c6 -18.667 9 -44.334 9 -77.001v-454h-160v416c0 14 -2.66699 25.833 -8 35.5s-13.333 14.5 -24 14.5h-8c-12 -2 -19.667 -7.16699 -23 -15.5s-5 -19.833 -5 -34.5v-416h-160v416c0 14 -2.66699 25.833 -8 35.5s-13.333 14.5 -24 14.5h-8c-12 -2 -19.667 -7.16699 -23 -15.5
s-5 -19.833 -5 -34.5v-416h-162z" />
    <glyph glyph-name="n" unicode="n" horiz-adv-x="476" 
d="M432 2h-164v416c0 14 -2.66699 25.833 -8 35.5s-13.333 14.5 -24 14.5h-8c-12 -2 -19.667 -7.16699 -23 -15.5s-5 -19.833 -5 -34.5v-416h-164v590h160v-68c16 24.667 33.667 43.667 53 57c22 15.333 45.667 23 71 23c14 0 28 -2 42 -6c30.667 -10.667 51 -32.667 61 -66
c6 -20 9 -52 9 -96v-434z" />
    <glyph glyph-name="o" unicode="o" horiz-adv-x="500" 
d="M36 396c0 33.333 1.83301 61.001 5.5 83.001s12.5 42.333 26.5 61c18 23.333 43.167 40.166 75.5 50.499s66.5 15.5 102.5 15.5c78.667 0 134.334 -17.333 167.001 -52c30 -32 45 -84.667 45 -158v-198c0 -72.667 -15 -125 -45 -157
c-32.667 -35.333 -88.334 -53 -167.001 -53c-76.667 0 -131.167 16.167 -163.5 48.5s-48.5 83.5 -48.5 153.5l2 8v198zM210 452.001l0.00195312 -304c0 -15.333 2.5 -27.5 7.5 -36.5s14.5 -13.5 28.5 -13.5c13.333 0 22.666 4.66699 27.999 14s8 21.333 8 36v304
c0 14.667 -3.83301 26.667 -11.5 36s-15.834 14 -24.501 14c-10 0 -18.5 -4.5 -25.5 -13.5s-10.5 -21.167 -10.5 -36.5z" />
    <glyph glyph-name="p" unicode="p" horiz-adv-x="476" 
d="M36 -130l0.000976562 722.001h160v-72c9.33301 20 18.666 35.333 27.999 46c7.33301 8 16 15 26 21s20 10.333 30 13s21.333 4 34 4c20 0 39.333 -4.66699 58 -14c26 -13.333 43 -35.666 51 -66.999c4.66699 -17.333 7 -46.333 7 -87v-278
c0 -62.667 -8.5 -105.334 -25.5 -128.001s-41.833 -35.334 -74.5 -38.001h-18c-54 0 -91.333 26 -112 78v-200h-164zM200.001 418.001v-242.001l-2 -10c0 -15.333 4 -26.333 12 -33c5.33301 -4.66699 13.333 -7 24 -7c12 0 20.333 4.83301 25 14.5s7 21.5 7 35.5v242
c0 14.667 -1 25.834 -3 33.501s-7.66699 12.5 -17 14.5l-16 2c-10 0 -17.5 -4.5 -22.5 -13.5s-7.5 -19.833 -7.5 -32.5v-4z" />
    <glyph glyph-name="q" unicode="q" horiz-adv-x="476" 
d="M430 -130l-164.001 0.000976562v200c-22.667 -52 -61.334 -78 -116.001 -78h-16c-38 0 -65 16 -81 48c-12.667 24.667 -19 58 -19 100l2 18v278l-2 18c0 37.333 5.33301 67.666 16 90.999c14 30.667 37.333 49.667 70 57c4.66699 0.666992 9.83398 1.16699 15.501 1.5
s9.83398 0.5 12.501 0.5c26 0 49.667 -7.5 71 -22.5s38.333 -35.5 51 -61.5v72h160v-722zM265.999 418.001c0 14.667 -1.00098 25.667 -3.00098 33s-5.83301 11.833 -11.5 13.5s-10.667 2.66699 -15 3s-7.16602 0.5 -8.49902 0.5c-10 0 -17.5 -5 -22.5 -15
s-7.5 -21.667 -7.5 -35v-242c0 -16 2.16699 -28.333 6.5 -37s13.5 -13 27.5 -13c13.333 0 22.333 4.66699 27 14s7 21.333 7 36v242z" />
    <glyph glyph-name="r" unicode="r" horiz-adv-x="476" 
d="M36 2v590h160v-68c14.667 24 32.5 43.333 53.5 58s43.833 22 68.5 22c14 0 28 -2 42 -6c29.333 -10 49 -30.667 59 -62c6 -19.333 9 -49.333 9 -90v-172h-162v144c0 12.667 -3 24.167 -9 34.5s-14.333 15.5 -25 15.5h-6c-10.667 -2.66699 -17.667 -8.16699 -21 -16.5
s-5 -19.5 -5 -33.5v-416h-164z" />
    <glyph glyph-name="s" unicode="s" horiz-adv-x="476" 
d="M428 382l-161.997 0.00195312l2 58c0 13.333 -0.833008 24.833 -2.5 34.5s-5 17 -10 22s-12.833 7.5 -23.5 7.5c-16 0 -26 -5.33301 -30 -16c-1.33301 -4 -3 -9.83301 -5 -17.5s-3 -13.834 -3 -18.501c0 -12.667 3 -24.167 9 -34.5s24.333 -25.166 55 -44.499l64 -39
c39.333 -26 66 -48.333 80 -67c18.667 -24.667 28 -57 28 -97v-10c0 -31.333 -6 -59.5 -18 -84.5s-31.333 -44.833 -58 -59.5c-17.333 -9.33301 -36.833 -16.333 -58.5 -21s-44.834 -7 -69.501 -7c-50 0 -92 10 -126 30c-26 17.333 -43.5 38.666 -52.5 63.999
s-13.5 55.333 -13.5 90l2 58h162l-2 -62c0 -13.333 0.833008 -25.333 2.5 -36s4.66699 -19.334 9 -26.001s11.833 -10 22.5 -10c14.667 0 24.667 5.33301 30 16c3.33301 6 5.5 12.333 6.5 19s1.5 12.334 1.5 17.001c0 15.333 -2 28 -6 38c-6 14 -21.667 29.333 -47 46
c-30 17.333 -50.333 29.333 -61 36c-35.333 24 -59 41.333 -71 52c-24.667 23.333 -39.667 48.666 -45 75.999l-4 29c-1.33301 10 -2 15.667 -2 17c0 24.667 4.33301 47.667 13 69s22 38.833 40 52.5s41.333 24.167 70 31.5s56.334 11 83.001 11
c25.333 0 48.666 -2.5 69.999 -7.5s40.666 -13.167 57.999 -24.5c25.333 -16.667 42.666 -39 51.999 -67c6.66699 -20.667 10 -49 10 -85v-40z" />
    <glyph glyph-name="t" unicode="t" horiz-adv-x="360" 
d="M252 150c0 -18 3.16699 -30.167 9.5 -36.5s16.5 -9.5 30.5 -9.5l32 2v-104h-104c-50 0 -84.5 12 -103.5 36s-28.5 61.333 -28.5 112v334h-52v108h52v108h164v-108h72v-108h-72v-334z" />
    <glyph glyph-name="u" unicode="u" horiz-adv-x="500" 
d="M36 592h176.002v-416c0 -19.333 3.16699 -32.833 9.5 -40.5s15.166 -11.5 26.499 -11.5c13.333 0 22.666 5 27.999 15s8 22.333 8 37v416h176v-590h-172v68c-17.333 -24.667 -36.833 -43.834 -58.5 -57.501s-46.834 -20.5 -75.501 -20.5h-16
c-43.333 0 -72.666 18.667 -87.999 56c-9.33301 22.667 -14 59.334 -14 110.001v434z" />
    <glyph glyph-name="v" unicode="v" horiz-adv-x="488" 
d="M146 2l-110 590.001h164l42 -312c2.66699 -20.667 5 -44.334 7 -71.001s3 -51 3 -73h4c0 25.333 1.83301 52.833 5.5 82.5l8.5 69.5l42 304h138l-106 -590h-198z" />
    <glyph glyph-name="w" unicode="w" horiz-adv-x="754" 
d="M124 2l-88 589.999h166l24 -256c8 -66 12 -132.667 12 -200l26 200l32 256h184l38 -324l10 -132h4c0 31.333 1.33301 62.5 4 93.5s6.66699 69.833 12 116.5l22 246h142l-82 -590h-202l-38 300c-3.33301 28.667 -6.5 58.834 -9.5 90.501s-4.5 59.5 -4.5 83.5h-4
c0 -30 -1.33301 -60.667 -4 -92s-6.66699 -69.333 -12 -114l-36 -268h-196z" />
    <glyph glyph-name="x" unicode="x" horiz-adv-x="500" 
d="M36 2l102 313.999l-92 276h168l34 -118c4 -18 7 -37.333 9 -58l5 -52h4l8 55c2.66699 18 6.66699 36.333 12 55l32 118h144l-94 -276l100 -314h-170l-44 168c-4 13.333 -6.66699 30.333 -8 51s-2 32.334 -2 35.001h-4c0 -29.333 -4 -58 -12 -86l-46 -168h-146z" />
    <glyph glyph-name="y" unicode="y" horiz-adv-x="512" 
d="M42 -130v104.002l78 -2c14.667 0 25 1.83301 31 5.5s9 11.167 9 22.5c0 10.667 -0.666992 18.667 -2 24l-130 568h174l40 -244c5.33301 -24.667 9.33301 -53.334 12 -86.001s4 -62.667 4 -90h4c0 59.333 6.66699 124.666 20 195.999l40 224h148l-136 -590
c-8.66699 -44.667 -21.667 -76.667 -39 -96c-21.333 -24 -54.333 -36 -99 -36h-154z" />
    <glyph glyph-name="z" unicode="z" horiz-adv-x="406" 
d="M36 2v100l152 382h-150v108h334v-84l-158 -398h160v-108h-338z" />
    <glyph glyph-name="braceleft" unicode="{" horiz-adv-x="507" 
d="M427 711l0.00195312 -116.999c-38.667 0 -64 -4 -76 -12c-16 -10.667 -24 -33.334 -24 -68.001l2 -6v-114c0 -42.667 -6.83301 -73.834 -20.5 -93.501s-40.5 -34.5 -80.5 -44.5c40 -9.33301 66.833 -23.666 80.5 -42.999s20.5 -50.333 20.5 -93v-116l-2 -8
c0 -33.333 7.66699 -54.666 23 -63.999c12 -7.33301 37.667 -11 77 -11v-116h-47c-32.667 0 -56.834 1.16699 -72.501 3.5s-30.834 6.5 -45.501 12.5c-29.333 10 -49 29 -59 57c-6.66699 18.667 -10 47 -10 85v120c0 43.333 -8.5 73.166 -25.5 89.499
s-45.833 24.5 -86.5 24.5h-8v118l8 -2c40.667 0 69.5 8.5 86.5 25.5s25.5 47.167 25.5 90.5v124c0 38.667 3 66.667 9 84c10 28 30 47.333 60 58c13.333 6 29 10.167 47 12.5s37.667 3.5 59 3.5h59z" />
    <glyph glyph-name="bar" unicode="|" horiz-adv-x="507" 
d="M187 752h116v-980h-116v980z" />
    <glyph glyph-name="braceright" unicode="}" horiz-adv-x="507" 
d="M63 711h51c36.667 0 63.5 -1.83301 80.5 -5.5s34.167 -9.83398 51.5 -18.501c22 -12 36.667 -31.667 44 -59c4.66699 -17.333 7 -42.333 7 -75v-124c0 -43.333 8.5 -73.5 25.5 -90.5s45.833 -25.5 86.5 -25.5l10 2v-118h-10c-40.667 0 -69.5 -8.16699 -86.5 -24.5
s-25.5 -46.166 -25.5 -89.499v-120c0 -40 -2.66699 -68 -8 -84c-9.33301 -28.667 -29 -48 -59 -58c-14 -6 -30.5 -10.167 -49.5 -12.5s-39.167 -3.5 -60.5 -3.5h-57v116c41.333 0 67.333 3.66699 78 11c14.667 10 22 34 22 72v116c0 42.667 6.66699 73.5 20 92.5
s40.333 33.5 81 43.5c-41.333 10 -68.5 24.5 -81.5 43.5s-19.5 50.5 -19.5 94.5v114c0 38.667 -6.5 62.667 -19.5 72s-39.833 14 -80.5 14v117z" />
    <glyph glyph-name="asciitilde" unicode="~" horiz-adv-x="995" 
d="M677 681l109.995 0.000976562c0 -32 -1.33301 -57.5 -4 -76.5s-9.66699 -38.833 -21 -59.5c-12 -24 -29.167 -43.5 -51.5 -58.5s-47.166 -24.167 -74.499 -27.5c-3.33301 0 -8.66602 -0.666992 -15.999 -2s-12.666 -2 -15.999 -2c-24.667 0 -49 5.83301 -73 17.5
s-47.333 27.5 -70 47.5c-14.667 14 -29 25.333 -43 34c-18 11.333 -35.333 17 -52 17c-7.33301 0 -13.166 -0.5 -17.499 -1.5s-9.5 -3.16699 -15.5 -6.5c-15.333 -9.33301 -25.166 -23 -29.499 -41s-6.5 -39.667 -6.5 -65h-110c0 57.333 8 102.333 24 135
c20.667 42.667 56 69.667 106 81c16 4 32.333 6 49 6c26 0 51.333 -5.5 76 -16.5s48.667 -27.167 72 -48.5c17.333 -14.667 31.333 -25.334 42 -32.001c18 -11.333 34 -17 48 -17c10 0 20 2 30 6c22 8 35.333 28.333 40 61c2 14.667 3 31 3 49z" />
    <glyph glyph-name="c128" 
 />
    <glyph glyph-name="c129" 
 />
    <glyph glyph-name="c141" 
 />
    <glyph glyph-name="c142" 
 />
    <glyph glyph-name="c143" 
 />
    <glyph glyph-name="c144" 
 />
    <glyph glyph-name="c157" 
 />
    <glyph glyph-name="c158" 
 />
    <glyph glyph-name="nonbreakingspace" unicode="&#xa0;" 
 />
    <glyph glyph-name="exclamdown" unicode="&#xa1;" horiz-adv-x="263" 
d="M49 711h150v-166h-150v166zM49 502h150v-500h-150v500z" />
    <glyph glyph-name="cent" unicode="&#xa2;" horiz-adv-x="464" 
d="M413 234c0 -81.333 -7.33398 -135.331 -22.001 -161.998c-20.667 -37.333 -67 -60.666 -139 -69.999v-104h-59v104c-62 8 -104.167 27 -126.5 57s-33.5 77.333 -33.5 142v191c0 64 10.667 110.667 32 140c24 33.333 66.667 53.666 128 60.999v100h59v-100
c68.667 -10.667 113.667 -32 135 -64c17.333 -26.667 26 -76.334 26 -149.001h-157v45c0 21.333 -1.66699 36.666 -5 45.999c-5.33301 15.333 -15 23 -29 23c-12 0 -20.5 -5 -25.5 -15s-7.5 -21.333 -7.5 -34v-291c0 -12.667 2.66699 -24.167 8 -34.5s13 -15.5 23 -15.5
l14 4c8.66699 2 14.834 9.5 18.501 22.5s5.5 29.167 5.5 48.5l-2 55h157z" />
    <glyph glyph-name="sterling" unicode="&#xa3;" horiz-adv-x="464" 
d="M20 2v113.998c22.667 14 38.834 31.167 48.501 51.5s14.5 42.5 14.5 66.5c0 11.333 -0.5 21 -1.5 29s-3.16699 20.667 -6.5 38h-55v89h41c-8.66699 28.667 -15.667 55 -21 79c-8 35.333 -12 64 -12 86c0 36.667 7.5 68.334 22.5 95.001s40.167 46.334 75.5 59.001
c30 10 64 15 102 15c31.333 0 60.166 -3.66699 86.499 -11s48.833 -19.333 67.5 -36c15.333 -14 26.333 -33 33 -57s10 -49.667 10 -77l-2 -80h-161v108c0 9.33301 -1.33301 17 -4 23c-5.33301 12 -15.333 18 -30 18h-4c-15.333 0 -26 -4.5 -32 -13.5s-9 -21.5 -9 -37.5
l-2 -8c0 -23.333 5.66699 -51 17 -83c15.333 -44 24 -70.667 26 -80h199v-89h-189l2 -37c0 -36 -7.66699 -66.167 -23 -90.5s-41 -43.5 -77 -57.5v-8c12.667 2.66699 27.667 4.66699 45 6s34.333 2 51 2h191v-114h-403z" />
    <glyph glyph-name="currency" unicode="&#xa4;" horiz-adv-x="598" 
d="M79 695l96 -97c36 24 74.667 36 116 36c42 0 80.667 -12 116 -36l97 97l59 -55l-96 -99c20.667 -38 31 -76 31 -114c0 -19.333 -2.66699 -38.5 -8 -57.5s-13 -37.833 -23 -56.5l96 -98l-59 -58l-97 97c-37.333 -23.333 -76 -35 -116 -35c-39.333 0 -78 11.667 -116 35
l-96 -97l-57 58l98 98c-23.333 35.333 -35 73.333 -35 114c0 20.667 3 40.5 9 59.5s14.667 37.167 26 54.5l-98 99zM293 551c-32.667 0 -62.167 -12.8311 -88.5 -38.498s-39.5 -54.834 -39.5 -87.501l2 -12c3.33301 -32 17 -58.667 41 -80s52.333 -32 85 -32
c32 0 59.667 10.667 83 32s37 48.666 41 81.999v12c0 32.667 -12.5 61.5 -37.5 86.5s-53.833 37.5 -86.5 37.5z" />
    <glyph glyph-name="yen" unicode="&#xa5;" horiz-adv-x="464" 
d="M138 2v257.999h-112v67h92l-18 55h-74v65h53l-79 264h173l32 -140c6 -25.333 10.5 -51.166 13.5 -77.499s6.16699 -52.5 9.5 -78.5h4c7.33301 52.667 11.333 81.667 12 87c4 25.333 10 55 18 89l29 120h154l-85 -264h53v-65h-74l-16 -55h90v-67h-110v-258h-165z" />
    <glyph glyph-name="brokenbar" unicode="&#xa6;" horiz-adv-x="507" 
d="M187 689h116v-364h-116v364zM187 197h116v-360h-116v360z" />
    <glyph glyph-name="section" unicode="&#xa7;" horiz-adv-x="464" 
d="M295 563c0 22.667 -6.50098 39.1689 -19.501 49.502s-31.5 15.5 -55.5 15.5c-18 0 -33.167 -3.16699 -45.5 -9.5s-19.166 -17.5 -20.499 -33.5l-2 -16c0 -20.667 12.667 -38.334 38 -53.001c10 -5.33301 32.667 -14.666 68 -27.999
c55.333 -21.333 90.333 -36.666 105 -45.999c37.333 -24 56 -54.667 56 -92v-47c0 -22.667 -3 -41 -9 -55c-8 -18 -22 -32.333 -42 -43c20 -11.333 33.833 -25.5 41.5 -42.5s11.5 -38.5 11.5 -64.5v-13c0 -40.667 -11.167 -72.834 -33.5 -96.501
s-55.166 -40.167 -98.499 -49.5c-20.667 -2 -37.334 -3.5 -50.001 -4.5s-20 -1.5 -22 -1.5c-28 0 -53.833 2.83301 -77.5 8.5s-45.334 15.5 -65.001 29.5s-33.334 32.833 -41.001 56.5s-11.5 51.167 -11.5 82.5l2 67h126l-2 -55c0 -16.667 1.16699 -31.167 3.5 -43.5
s6 -21.833 11 -28.5s13.333 -11.667 25 -15s23.834 -5 36.501 -5c12 0 24 1.66699 36 5s20.333 8 25 14c9.33301 9.33301 14 21.333 14 36s-3.66699 27 -11 37s-20 19 -38 27c-8 3.33301 -23 8.66602 -45 15.999l-107 46c-40 23.333 -63.333 52.666 -70 87.999
c-2 16 -3.5 28.5 -4.5 37.5s-1.5 14.167 -1.5 15.5c0 6.66699 0.833008 15.334 2.5 26.001s2.83398 18.667 3.50098 24c3.33301 11.333 8.83301 21.166 16.5 29.499s17.834 16.166 30.501 23.499c-18.667 14.667 -31.834 30.5 -39.501 47.5s-11.5 38.5 -11.5 64.5
c0 36 7.16699 65.667 21.5 89s38.5 41 72.5 53c14.667 4.66699 32 8.66699 52 12s39.333 5 58 5c32.667 0 62 -3.66699 88 -11s48 -19.333 66 -36c14 -13.333 23.333 -29.666 28 -48.999s7 -42.333 7 -69v-73h-122v75zM151.999 413.002l-2.00098 -43.001
c0 -44.667 15.333 -74 46 -88c37.333 -14 71 -27.333 101 -40l2 53c0 14.667 -1.16699 26.334 -3.5 35.001s-7.16602 16 -14.499 22c-9.33301 8 -23.833 16.833 -43.5 26.5s-48.167 21.167 -85.5 34.5z" />
    <glyph glyph-name="dieresis" unicode="&#xa8;" 
 />
    <glyph glyph-name="copyright" unicode="&#xa9;" horiz-adv-x="818" 
d="M402 715c98 0 182.168 -35.501 252.501 -106.501s105.5 -155.833 105.5 -254.5c0 -97.333 -35 -180.666 -105 -249.999s-154.333 -104 -253 -104c-81.333 -0 -154.333 24.333 -219 73s-107.334 111.667 -128.001 189c-4.66699 17.333 -8.16699 33.833 -10.5 49.5
s-3.5 30.5 -3.5 44.5c0 96.667 35.333 180.667 106 252s155.667 107 255 107zM402.001 649.999c-80.667 0 -150.167 -29.5 -208.5 -88.5s-87.5 -128.167 -87.5 -207.5c0 -12.667 1 -24.667 3 -36c0 -1.33301 3 -14 9 -38c18 -62.667 53.5 -114.5 106.5 -155.5
s112.167 -61.5 177.5 -61.5c80 0 148.833 28.5 206.5 85.5s86.5 125.5 86.5 205.5c0 81.333 -28.667 151 -86 209s-126.333 87 -207 87zM577.001 428.999h-101.001c-2 20 -10.167 36.5 -24.5 49.5s-30.166 19.5 -47.499 19.5c-23.333 0 -43 -11 -59 -33
c-18.667 -26 -28 -63 -28 -111c0 -37.333 5 -66.666 15 -87.999c14 -30.667 37.333 -46 70 -46l4 -1c21.333 0 38.666 7.33301 51.999 22s20 32.667 20 54h103c0 -48 -17.667 -86 -53 -114c-32.667 -26 -74 -39 -124 -39c-62 0 -110.667 19.333 -146 58s-53 88.667 -53 150
l2 6c0 68.667 21.333 122.667 64 162c36.667 34 81.667 51 135 51c44.667 0 83.334 -12 116.001 -36c36.667 -26.667 55 -61.334 55 -104.001z" />
    <glyph glyph-name="ordfeminine" unicode="&#xaa;" horiz-adv-x="624" 
d="M99 596h440v-452h-440v452z" />
    <glyph glyph-name="guillemotleft" unicode="&#xab;" horiz-adv-x="397" 
d="M215 217v135l147 150v-144l-73 -73l73 -74v-144zM18 217v135l149 150v-144l-74 -73l74 -74v-144z" />
    <glyph glyph-name="logicalnot" unicode="&#xac;" horiz-adv-x="818" 
d="M112 417h577v-242h-110v134h-467v108z" />
    <glyph glyph-name="minus" unicode="&#xad;" 
d="M4 322h376v-120h-376v120z" />
    <glyph glyph-name="registered" unicode="&#xae;" horiz-adv-x="818" 
d="M402 715c99.333 0 183.834 -35.1689 253.501 -105.502s104.5 -155.5 104.5 -255.5c0 -97.333 -35 -180.666 -105 -249.999s-154.333 -104 -253 -104c-81.333 0 -154.333 24.333 -219 73s-107.334 112.334 -128.001 191.001c-4.66699 18 -8.16699 34.333 -10.5 49
s-3.5 29 -3.5 43c0 95.333 35.333 179 106 251s155.667 108 255 108zM402.001 649.998c-80 0 -149.333 -29 -208 -87s-88 -127 -88 -207c0 -4 0.666992 -10 2 -18s2 -14.333 2 -19c10 -73.333 42.667 -134.333 98 -183s120 -73 194 -73c80 0 148.833 28.167 206.5 84.5
s86.5 123.833 86.5 202.5v6c0 80 -29 149 -87 207s-126.667 87 -206 87zM248.001 560.998h159c42.667 0 77.667 -6 105 -18c36.667 -16 57.667 -42 63 -78v-22c0 -24 -7.5 -45.333 -22.5 -64s-34.5 -32 -58.5 -40l87 -174h-118l-73 158h-34v-158h-108v396zM356.001 491.998
l-0.000976562 -104l22 -2c24.667 0 43.667 2.66699 57 8c20 8 30 22.333 30 43l2 4c0 20.667 -9.66699 35 -29 43c-13.333 5.33301 -32.666 8 -57.999 8h-24z" />
    <glyph glyph-name="macron" unicode="&#xaf;" horiz-adv-x="507" 
d="M0 752h492v-114h-492v114z" />
    <glyph glyph-name="degree" unicode="&#xb0;" horiz-adv-x="882" 
d="M449 616c70 0 126.667 -22.667 170 -68s65 -101 65 -167c0 -66.667 -21.667 -122.167 -65 -166.5s-100 -66.5 -170 -66.5c-68 0 -123.667 22.667 -167 68s-65 100.333 -65 165c0 65.333 21.5 120.833 64.5 166.5s98.833 68.5 167.5 68.5z" />
    <glyph glyph-name="plusminus" unicode="&#xb1;" horiz-adv-x="818" 
d="M344 596h115v-153h230v-110h-230v-154h-115v154h-232v110h232v153zM112 102h577v-106h-577v106z" />
    <glyph glyph-name="twosuperior" unicode="&#xb2;" horiz-adv-x="310" 
d="M10 283v71.001c0 34 15.667 69.333 47 106l116 136v18c0 10.667 -1.83301 19.667 -5.5 27s-10.167 11 -19.5 11h-6c-12 -2 -19.333 -9.33301 -22 -22l-4 -37l2 -36h-110v61c0 34 14.667 59.667 44 77c24.667 14.667 56.667 22 96 22l51 -4
c27.333 -4.66699 48.166 -15.5 62.499 -32.5s21.5 -37.833 21.5 -62.5v-10c0 -36.667 -15 -73.334 -45 -110.001c-73.333 -89.333 -110.666 -138 -111.999 -146h157v-69h-273z" />
    <glyph glyph-name="threesuperior" unicode="&#xb3;" horiz-adv-x="310" 
d="M8 447l109.999 0.00195312v-67c0 -10.667 2 -19.5 6 -26.5s10.667 -10.5 20 -10.5l8 1c8 0 13.5 3.83301 16.5 11.5s4.5 17.167 4.5 28.5v22c0 30.667 -2.66699 49.334 -8 56.001s-20.333 10 -45 10h-35v65l29 -2c12.667 0 23.334 1.16699 32.001 3.5
s15 7.16602 19 14.499c2.66699 2.66699 4.66699 8.5 6 17.5s2 18.167 2 27.5l-2 32c0 5.33301 -3 10.333 -9 15s-12 7 -18 7l-12 -2c-5.33301 -2 -9.33301 -8.5 -12 -19.5s-4 -22.5 -4 -34.5l2 -39h-110v61c0 32 13.5 56.5 40.5 73.5s58.833 25.5 95.5 25.5
c26.667 0 52 -4.5 76 -13.5s41.333 -21.167 52 -36.5c3.33301 -4.66699 6 -13.834 8 -27.501s3 -26.834 3 -39.501v-15c0 -8 -0.666992 -15.333 -2 -22c-4 -15.333 -12.667 -28 -26 -38c-10 -8 -24 -15 -42 -21c24.667 -6 41.667 -12.667 51 -20
c12.667 -10 19 -25.667 19 -47v-35c0 -13.333 -0.666992 -26 -2 -38s-4.33301 -23 -9 -33c-10 -20 -28.333 -35.333 -55 -46c-22 -8.66699 -47 -13 -75 -13l-18 2c-36 3.33301 -64.333 14 -85 32s-31 42.667 -31 74v67z" />
    <glyph glyph-name="acute" unicode="&#xb4;" horiz-adv-x="507" 
d="M266 602h-103l63 109h158z" />
    <glyph glyph-name="mu" unicode="&#xb5;" horiz-adv-x="641" 
d="M89 524l172.999 -0.000976562l-38 -254c-1.33301 -8.66699 -2.33301 -15.667 -3 -21c-2.66699 -19.333 -4 -33.333 -4 -42c0 -26 4.33301 -46 13 -60c11.333 -18 29 -27 53 -27l4 -2c30.667 0 55.334 16 74.001 48c14 24.667 23.667 55.334 29 92.001l41 266h171
l-84 -522h-154l10 59c-13.333 -21.333 -27.5 -37.5 -42.5 -48.5s-34.167 -16.5 -57.5 -16.5c-19.333 0 -36.5 4.83301 -51.5 14.5s-28.167 23.167 -39.5 40.5l-37 -252h-168z" />
    <glyph glyph-name="paragraph" unicode="&#xb6;" horiz-adv-x="507" 
d="M478 713l0.000976562 -59.001h-51v-652h-84v652h-73v-652h-83v376c-26.667 2.66699 -46.334 5.66699 -59.001 9c-19.333 5.33301 -37 14 -53 26c-42 33.333 -63 77.333 -63 132c0 52.667 17.833 93.834 53.5 123.501s80.167 44.5 133.5 44.5h279z" />
    <glyph glyph-name="periodcentered" unicode="&#xb7;" 
 />
    <glyph glyph-name="periodcentered" unicode="&#x2219;" 
 />
    <glyph glyph-name="cedilla" unicode="&#xb8;" 
 />
    <glyph glyph-name="onesuperior" unicode="&#xb9;" 
 />
    <glyph glyph-name="ordmasculine" unicode="&#xba;" horiz-adv-x="664" 
d="M113 618h472v-489h-472v489zM157 576v-409h386v409h-386z" />
    <glyph glyph-name="guillemotright" unicode="&#xbb;" horiz-adv-x="397" 
d="M169 217l-151 -150v144l76 74l-76 73v144l151 -150v-135zM364 217l-149 -150v144l76 74l-76 73v144l149 -150v-135z" />
    <glyph glyph-name="onequarter" unicode="&#xbc;" horiz-adv-x="751" 
d="M104 313v291h-69v57c23.333 2.66699 41.333 6.66699 54 12c18 8 29.667 20 35 36h87v-396h-107zM522 726h76l-383 -738h-75zM593 2v89h-144v78l122 229h126v-242h33v-65h-33v-89h-104zM518 156h76l4 118l2 53l-23 -49z" />
    <glyph glyph-name="onehalf" unicode="&#xbd;" horiz-adv-x="751" 
d="M104 313v291h-69v57c23.333 2.66699 41.333 6.66699 54 12c18 8 29.667 20 35 36h87v-396h-107zM522 726h76l-383 -738h-75zM461 2l-0.000976562 65.001l-2 2c0 36.667 24.667 79 74 127c52.667 52 80.334 85 83.001 99v14c0 9.33301 -1.83301 17.333 -5.5 24
s-10.167 10 -19.5 10h-8c-8.66699 0 -14.667 -6 -18 -18l-2 -24l2 -45h-106v57c0 32 13 55.167 39 69.5s57.667 21.5 95 21.5h23.5c7.66699 0 15.5 -0.666992 23.5 -2c27.333 -4 47.833 -14.5 61.5 -31.5s20.5 -37.5 20.5 -61.5v-4c0 -41.333 -23 -85 -69 -131
c-50.667 -50.667 -78 -86.334 -82 -107.001h151v-65h-261z" />
    <glyph glyph-name="threequarters" unicode="&#xbe;" horiz-adv-x="751" 
d="M14 467l106.003 -0.00195312v-63c0 -11.333 1.66699 -20.166 5 -26.499s9.66602 -9.5 18.999 -9.5l8 2c6.66699 0 11.5 3.66699 14.5 11s4.5 15.666 4.5 24.999v19c0 28.667 -3.33301 46.667 -10 54s-22.334 11 -47.001 11h-27v59l31 -2c14 0 24.5 1.5 31.5 4.5
s12.167 6.83301 15.5 11.5c0.666992 1.33301 1.83398 6.83301 3.50098 16.5s2.5 20.5 2.5 32.5v24c-0.666992 5.33301 -3.66699 10 -9 14s-10.666 6 -15.999 6c-6.66699 0 -11.834 -0.833008 -15.501 -2.5s-6.66699 -7 -9 -16s-3.5 -19.5 -3.5 -31.5l2 -37h-106v55
c0 30.667 12.5 53.834 37.5 69.501s55.833 23.5 92.5 23.5c26.667 0 51.167 -3.83301 73.5 -11.5s38.5 -19.167 48.5 -34.5c4 -5.33301 6.66699 -13.5 8 -24.5s2 -23.167 2 -36.5v-15v-11c-1.33301 -4.66699 -2 -7.66699 -2 -9c-3.33301 -14 -10.833 -25.667 -22.5 -35
s-25.834 -16 -42.501 -20c23.333 -6 39.666 -12.667 48.999 -20c12 -10 18 -24.333 18 -43v-42c0 -10.667 -0.833008 -21 -2.5 -31s-4.16699 -18.667 -7.5 -26c-8.66699 -18 -24.667 -31.667 -48 -41s-48 -14 -74 -14l-20 2c-32.667 0 -59.167 8.83301 -79.5 26.5
s-30.5 41.834 -30.5 72.501v63zM522.003 725.998h76l-383 -738h-75zM593.003 1.99805v89h-144v78l122 229h126v-242h33v-65h-33v-89h-104zM518.003 155.998h76l4 118l2 53l-23 -49z" />
    <glyph glyph-name="questiondown" unicode="&#xbf;" horiz-adv-x="440" 
d="M295 498l0.000976562 -114.002c0 -25.333 -3.83301 -45.666 -11.5 -60.999s-21.5 -31.666 -41.5 -48.999c-25.333 -22.667 -40.833 -39.667 -46.5 -51s-8.5 -33.333 -8.5 -66l-2 -25c0 -12 2.16699 -21.833 6.5 -29.5s12.166 -11.5 23.499 -11.5l5 -2
c10 0 18.167 3.83301 24.5 11.5s9.5 17.5 9.5 29.5v122h152v-112c0 -51.333 -18.667 -90 -56 -116c-32.667 -22.667 -76.334 -34 -131.001 -34h-14c-43.333 0 -79 6 -107 18c-37.333 16 -60 41.667 -68 77c-1.33301 10 -2.66602 20.833 -3.99902 32.5s-2 18.5 -2 20.5
c0 7.33301 0.333008 16.833 1 28.5s1.66699 24.5 3 38.5c0 14.667 1.5 27.667 4.5 39s8.5 22 16.5 32l56 58c24.667 26 37 48 37 66v98h153zM295.001 710.998v-168h-153v168h153z" />
    <glyph glyph-name="Agrave" unicode="&#xc0;" horiz-adv-x="40" 
d="M-320 798h-116l104 112h118l106 -112h-114l-50 44zM-142 908l-112 134h136l52 -134h-76z" />
    <glyph glyph-name="Aacute" unicode="&#xc1;" horiz-adv-x="40" 
d="M-320 796h-116l104 112h118l106 -112h-114l-50 44zM-48 866h-80l54 132h134z" />
    <glyph glyph-name="Acircumflex" unicode="&#xc2;" horiz-adv-x="40" 
d="M-320 796h-116l104 112h118l106 -112h-114l-50 44z" />
    <glyph glyph-name="Atilde" unicode="&#xc3;" horiz-adv-x="40" 
d="M-324 794h-116l104 112h118l106 -112h-114l-50 44zM-124 1068c0 -38 -8.50098 -67.1689 -25.501 -87.502s-39.833 -30.5 -68.5 -30.5l-32 4c-21.333 10.667 -39.666 19 -54.999 25s-27 9 -35 9c-9.33301 0 -17 -3 -23 -9s-9 -15.667 -9 -29h-66
c0 38.667 9 68.334 27 89.001s41 31 69 31c5.33301 0 10.333 -0.333008 15 -1s13.667 -3 27 -7c20 -9.33301 36.833 -16.666 50.5 -21.999s23.5 -8 29.5 -8c18.667 0 28 12 28 36h68z" />
    <glyph glyph-name="Adieresis" unicode="&#xc4;" horiz-adv-x="40" 
d="M-318 796h-116l104 112h118l106 -112h-114l-50 44zM-362 -194v138h156v-138h-156z" />
    <glyph glyph-name="Aring" unicode="&#xc5;" horiz-adv-x="40" 
d="M-322 794h-116l104 112h118l106 -112h-114l-50 44zM-140 862l-0.000976562 43.9971c0 16 5.33301 29.333 16 40c2.66699 2.66699 11 9.33398 25 20.001c8.66699 7.33301 14.667 14.333 18 21s5 14.334 5 23.001l-1 27c0 3.33301 -1 6 -3 8c-4 4 -9 6 -15 6
c-7.33301 0 -14.166 -0.833008 -20.499 -2.5s-9.5 -5.5 -9.5 -11.5v-40h-79v28c0 25.333 10.833 44.333 32.5 57s48.167 19 79.5 19h5c28 0 52.667 -4.5 74 -13.5s32 -24.167 32 -45.5v-29c0 -11.333 -0.666992 -21 -2 -29s-3.83301 -14.667 -7.5 -20
s-15.167 -16.666 -34.5 -33.999c-15.333 -13.333 -23 -24.333 -23 -33v-35h-92z" />
    <glyph glyph-name="AE" unicode="&#xc6;" horiz-adv-x="246" 
d="M210 2h-174v738h174v-738zM92 770l-0.000976562 43.9971c0 16 5.33301 29.333 16 40c2.66699 2.66699 11 9.33398 25 20.001c8.66699 7.33301 14.667 14.333 18 21s5 14.334 5 23.001l-1 27c0 3.33301 -1 6 -3 8c-4 4 -9 6 -15 6
c-7.33301 0 -14.166 -0.833008 -20.499 -2.5s-9.5 -5.5 -9.5 -11.5v-40h-79v28c0 25.333 10.833 44.333 32.5 57s48.167 19 79.5 19h5c28 0 52.667 -4.5 74 -13.5s32 -24.167 32 -45.5v-29c0 -11.333 -0.666992 -21 -2 -29s-3.83301 -14.667 -7.5 -20
s-15.167 -16.666 -34.5 -33.999c-15.333 -13.333 -23 -24.333 -23 -33v-35h-92z" />
    <glyph glyph-name="Ccedilla" unicode="&#xc7;" 
 />
    <glyph glyph-name="Egrave" unicode="&#xc8;" horiz-adv-x="40" 
d="M-326 892c0 -34.667 17.999 -52 53.999 -52s54 17.333 54 52h86c0 -40 -13.333 -69.667 -40 -89c-23.333 -16.667 -56.666 -25 -99.999 -25c-44 0 -77.333 8 -100 24c-26.667 18.667 -40 48.667 -40 90h86zM-302.001 930l-112 134h136l52 -132z" />
    <glyph glyph-name="Eacute" unicode="&#xc9;" horiz-adv-x="40" 
d="M-326 892c0 -34.667 17.999 -52 53.999 -52s54 17.333 54 52h86c0 -40 -13.333 -69.667 -40 -89c-23.333 -16.667 -56.666 -25 -99.999 -25c-44 0 -77.333 8 -100 24c-26.667 18.667 -40 48.667 -40 90h86zM-238.001 936h-80l54 132h134z" />
    <glyph glyph-name="Ecircumflex" unicode="&#xca;" horiz-adv-x="40" 
d="M-326 892c0 -34.667 17.999 -52 53.999 -52s54 17.333 54 52h86c0 -40 -13.333 -69.667 -40 -89c-23.333 -16.667 -56.666 -25 -99.999 -25c-44 0 -77.333 8 -100 24c-26.667 18.667 -40 48.667 -40 90h86z" />
    <glyph glyph-name="Edieresis" unicode="&#xcb;" horiz-adv-x="40" 
d="M-330 892c0 -34.667 17.999 -52 53.999 -52s54 17.333 54 52h86c0 -40 -13.333 -69.667 -40 -89c-23.333 -16.667 -56.666 -25 -99.999 -25c-44 0 -77.333 8 -100 24c-26.667 18.667 -40 48.667 -40 90h86zM-362.001 -194v138h156v-138h-156z" />
    <glyph glyph-name="Igrave" unicode="&#xcc;" horiz-adv-x="246" 
d="M210 2h-174v738h174v-738zM98 788l-112 134h136l52 -134h-76z" />
    <glyph glyph-name="Iacute" unicode="&#xcd;" horiz-adv-x="246" 
d="M210 2h-174v738h174v-738zM154 782h-80l54 132h134z" />
    <glyph glyph-name="Icircumflex" unicode="&#xce;" horiz-adv-x="558" 
d="M178 0v270l-150 468h192l26 -126c4.66699 -20.667 11.167 -51 19.5 -91s13.833 -69.667 16.5 -89h4c4 28.667 9 58 15 88s13 60.667 21 92l28 126h172l-156 -468v-270h-188zM194 -202v138h156v-138h-156z" />
    <glyph glyph-name="Idieresis" unicode="&#xcf;" horiz-adv-x="40" 
d="M-378 -202v138h156v-138h-156z" />
    <glyph glyph-name="Eth" unicode="&#xd0;" 
 />
    <glyph glyph-name="Ntilde" unicode="&#xd1;" horiz-adv-x="558" 
d="M272 740c91.333 0 154 -13.667 188 -41c38.667 -31.333 58 -91.666 58 -180.999v-294c0 -94.667 -25.667 -157.334 -77 -188.001c-38 -22.667 -108.333 -34 -211 -34h-146v356h-48v106h48v276h188zM254 358v-246l16 -2c26 0 44.333 3.33301 55 10
c15.333 9.33301 23 27.333 23 54v400c0 24 -5.83301 40 -17.5 48s-28.5 12 -50.5 12h-26v-170h60v-106h-60z" />
    <glyph glyph-name="Ograve" unicode="&#xd2;" horiz-adv-x="246" 
d="M210 2h-174v738h174v-738zM36 -186v138h174v-138h-174z" />
    <glyph glyph-name="Oacute" unicode="&#xd3;" horiz-adv-x="246" 
d="M210 2h-174v738h174v-738zM292 926c0 -38 -8.83203 -67.1699 -26.499 -87.5029s-40.834 -30.5 -69.501 -30.5l-30 4c-22 10.667 -40.833 19 -56.5 25s-27.5 9 -35.5 9c-9.33301 0 -16.666 -3 -21.999 -9s-8 -15.667 -8 -29h-66c0 38.667 8.83301 68.334 26.5 89.001
s40.167 31 67.5 31c7.33301 0 13.666 -0.5 18.999 -1.5s13.666 -3.16699 24.999 -6.5c18.667 -9.33301 34.667 -16.666 48 -21.999s23.333 -8 30 -8c8.66699 0 15.834 2.83301 21.501 8.5s8.5 14.834 8.5 27.501h68z" />
    <glyph glyph-name="Ocircumflex" unicode="&#xd4;" horiz-adv-x="546" 
d="M210 578l0.000976562 -408c0 -19.333 2.83301 -34.5 8.5 -45.5s17.5 -16.5 35.5 -16.5c16 0 27 5.83301 33 17.5s9 26.5 9 44.5v408c0 20 -2.33301 34.667 -7 44c-6.66699 13.333 -18.334 20 -35.001 20s-28.167 -5.83301 -34.5 -17.5s-9.5 -27.167 -9.5 -46.5z
M460.001 772l0.000976562 18.999h-55v76h120v-65c0 -32.667 -8.66699 -61 -26 -85c-14 -19.333 -30 -31.666 -48 -36.999c8 -12.667 13.5 -25.5 16.5 -38.5s4.5 -28.833 4.5 -47.5c0 -6.66699 -0.333008 -17.667 -1 -33s-1 -27.666 -1 -36.999v-308
c0 -80.667 -15 -138.334 -45 -173.001c-32.667 -38 -89.667 -57 -171 -57c-38.667 0 -72.334 4.66699 -101.001 14c-36 12 -63.667 31.333 -83 58c-14 20.667 -23.167 43.5 -27.5 68.5s-6.5 54.833 -6.5 89.5v308c0 50.667 3.83301 88.167 11.5 112.5
s19.834 44.833 36.501 61.5c20 20 44 34.667 72 44s58 14 90 14c27.333 0 50.5 -1.83301 69.5 -5.5s36.667 -8.66699 53 -15s31.166 -13.5 44.499 -21.5l31 16c10.667 8.66699 16 22.667 16 42z" />
    <glyph glyph-name="Otilde" unicode="&#xd5;" horiz-adv-x="40" 
d="M-126 926c0 -38 -8.50098 -67.1689 -25.501 -87.502s-39.833 -30.5 -68.5 -30.5l-32 4c-21.333 10.667 -39.666 19 -54.999 25s-27 9 -35 9c-9.33301 0 -17 -3 -23 -9s-9 -15.667 -9 -29h-66c0 38.667 9 68.334 27 89.001s41 31 69 31c5.33301 0 10.333 -0.333008 15 -1
s13.667 -3 27 -7c20 -9.33301 36.833 -16.666 50.5 -21.999s23.5 -8 29.5 -8c18.667 0 28 12 28 36h68z" />
    <glyph glyph-name="Odieresis" unicode="&#xd6;" horiz-adv-x="558" 
d="M500 723l25.9971 11.999c8.66699 7.33301 13 20.666 13 39.999v7h-62v88h120v-77c0 -31.333 -12.333 -58.666 -37 -81.999c-18.667 -17.333 -38.667 -29.333 -60 -36v-459c0 -39.333 -1.33301 -66.666 -4 -81.999c-5.33301 -29.333 -16.666 -54.666 -33.999 -75.999
c-19.333 -26.667 -47.666 -46 -84.999 -58c-29.333 -9.33301 -65.666 -14 -108.999 -14c-42 0 -78.333 4.66699 -109 14c-38.667 12 -67.667 31.333 -87 58c-15.333 20 -25.166 42.667 -29.499 68s-6.5 55.333 -6.5 90v524h184v-570c0 -18.667 3.16699 -33.667 9.5 -45
s19.166 -17 38.499 -17c18 0 30.667 6.33301 38 19c5.33301 9.33301 8 23.666 8 42.999v570h186v-17z" />
    <glyph glyph-name="multiply" unicode="&#xd7;" 
 />
    <glyph glyph-name="Oslash" unicode="&#xd8;" horiz-adv-x="40" 
d="M-302 796l-112 134h136l52 -132z" />
    <glyph glyph-name="Ugrave" unicode="&#xd9;" horiz-adv-x="40" 
d="M-264 796h-80l54 132h134z" />
    <glyph glyph-name="Uacute" unicode="&#xda;" horiz-adv-x="40" 
d="M-326 892c0 -34.667 17.999 -52 53.999 -52s54 17.333 54 52h86c0 -40 -13.333 -69.667 -40 -89c-23.333 -16.667 -56.666 -25 -99.999 -25c-44 0 -77.333 8 -100 24c-26.667 18.667 -40 48.667 -40 90h86zM-320.001 910l-0.000976562 43.9971c0 16 5.33301 29.333 16 40
c2.66699 2.66699 11 9.33398 25 20.001c8.66699 7.33301 14.667 14.333 18 21s5 14.334 5 23.001l-1 27c0 3.33301 -1 6 -3 8c-4 4 -9 6 -15 6c-7.33301 0 -14.166 -0.833008 -20.499 -2.5s-9.5 -5.5 -9.5 -11.5v-40h-79v28c0 25.333 10.833 44.333 32.5 57
s48.167 19 79.5 19h5c28 0 52.667 -4.5 74 -13.5s32 -24.167 32 -45.5v-29c0 -11.333 -0.666992 -21 -2 -29s-3.83301 -14.667 -7.5 -20s-15.167 -16.666 -34.5 -33.999c-15.333 -13.333 -23 -24.333 -23 -33v-35h-92z" />
    <glyph glyph-name="Ucircumflex" unicode="&#xdb;" horiz-adv-x="40" 
d="M-316 796l-0.000976562 43.9971c0 16 5.33301 29.333 16 40c2.66699 2.66699 11 9.33398 25 20.001c8.66699 7.33301 14.667 14.333 18 21s5 14.334 5 23.001l-1 27c0 3.33301 -1 6 -3 8c-4 4 -9 6 -15 6c-7.33301 0 -14.166 -0.833008 -20.499 -2.5
s-9.5 -5.5 -9.5 -11.5v-40h-79v28c0 25.333 10.833 44.333 32.5 57s48.167 19 79.5 19h5c28 0 52.667 -4.5 74 -13.5s32 -24.167 32 -45.5v-29c0 -11.333 -0.666992 -21 -2 -29s-3.83301 -14.667 -7.5 -20s-15.167 -16.666 -34.5 -33.999
c-15.333 -13.333 -23 -24.333 -23 -33v-35h-92z" />
    <glyph glyph-name="Udieresis" unicode="&#xdc;" horiz-adv-x="40" 
d="M-326 892c0 -34.667 17.999 -52 53.999 -52s54 17.333 54 52h86c0 -40 -13.333 -69.667 -40 -89c-23.333 -16.667 -56.666 -25 -99.999 -25c-44 0 -77.333 8 -100 24c-26.667 18.667 -40 48.667 -40 90h86zM-38.001 1054c0 -38 -8.50098 -67.1689 -25.501 -87.502
s-39.833 -30.5 -68.5 -30.5l-32 4c-21.333 10.667 -39.666 19 -54.999 25s-27 9 -35 9c-9.33301 0 -17 -3 -23 -9s-9 -15.667 -9 -29h-66c0 38.667 9 68.334 27 89.001s41 31 69 31c5.33301 0 10.333 -0.333008 15 -1s13.667 -3 27 -7
c20 -9.33301 36.833 -16.666 50.5 -21.999s23.5 -8 29.5 -8c18.667 0 28 12 28 36h68z" />
    <glyph glyph-name="Yacute" unicode="&#xdd;" horiz-adv-x="641" 
d="M183 555l0.000976562 -392c0 -18 2.83301 -32.667 8.5 -44s17.167 -17 34.5 -17c15.333 0 26.333 6.33301 33 19c4.66699 9.33301 7 23.333 7 42v392c0 19.333 -2.33301 33.333 -7 42c-6.66699 12.667 -18.334 19 -35.001 19c-15.333 0 -26 -5.83301 -32 -17.5
s-9 -26.167 -9 -43.5zM433.001 112l175.001 0.000976562v-110h-279c-34 -10.667 -69 -16 -105 -16c-30 0 -58.667 4 -86 12c-49.333 12.667 -83 38.667 -101 78c-14 30 -21 73.667 -21 131v295c0 52 5.33301 92 16 120c14.667 38.667 42.667 67 84 85
c31.333 12.667 66 19 104 19c18 0 36.667 -1.33301 56 -4s37.666 -6.33398 54.999 -11.001h277v-115h-175v-149h175v-110h-175v-225z" />
    <glyph glyph-name="Thorn" unicode="&#xde;" horiz-adv-x="464" 
d="M12 502c0 51.333 5.66699 91.333 17 120c15.333 38.667 43 67 83 85c31.333 12.667 67 19 107 19c17.333 0 34.833 -1.33301 52.5 -4s34.834 -6.33398 51.501 -11.001l25 63h99l-49 -118c14 -20.667 22.667 -42.667 26 -66s5 -52.666 5 -87.999v-295
c0 -56.667 -7 -100 -21 -130c-18.667 -40 -51.667 -66.333 -99 -79c-31.333 -6.66699 -61.333 -10 -90 -10c-38 0 -71 4.66699 -99 14l-27 -63h-99l51 116c-12.667 20 -21.334 42.667 -26.001 68s-7 53.333 -7 84v295zM270 537v14.001c0 17.333 -2.66699 32.166 -8 44.499
s-15.333 18.5 -30 18.5h-15c-16.667 0 -28.167 -5 -34.5 -15s-9.5 -24.667 -9.5 -44v-248zM270 163.001v246l-97 -238l-2 -10c0 -17.333 3.83301 -31.5 11.5 -42.5s20.834 -16.5 39.501 -16.5c17.333 0 29.666 5.5 36.999 16.5s11 25.833 11 44.5z" />
    <glyph glyph-name="germandbls" unicode="&#xdf;" horiz-adv-x="421" 
d="M20 2v558.997c0 46 11 82.333 33 109s55.667 43.334 101 50.001c9.33301 1.33301 17.333 2.33301 24 3s15 1 25 1c40.667 0 75.667 -7.33301 105 -22c34.667 -17.333 57.334 -43.333 68.001 -78c2.66699 -10 4.66699 -22 6 -36s2 -27.667 2 -41l-2 -49
c-2.66699 -27.333 -13 -48 -31 -62c-15.333 -12 -37.333 -20.333 -66 -25v-4c37.333 -5.33301 63.166 -17.166 77.499 -35.499s21.5 -47.166 21.5 -86.499v-165c0 -49.333 -14 -82.666 -42 -99.999c-21.333 -13.333 -56 -20 -104 -20l-45 2v87c24.667 0 37 11.667 37 35v191
c0 23.333 -12.333 35 -37 35v105c24.667 0 37 11.667 37 35v104c0 11.333 -2.83301 20.166 -8.5 26.499s-12.5 9.5 -20.5 9.5c-18.667 0 -28 -12 -28 -36v-592h-153z" />
    <glyph glyph-name="agrave" unicode="&#xe0;" horiz-adv-x="40" 
d="M-296 648h-116l104 112h118l106 -112h-114l-50 44zM-126 758l-112 134h136l52 -134h-76z" />
    <glyph glyph-name="aacute" unicode="&#xe1;" horiz-adv-x="40" 
d="M-296 648h-116l104 112h118l106 -112h-114l-50 44zM-58 734h-80l54 132h134z" />
    <glyph glyph-name="acircumflex" unicode="&#xe2;" horiz-adv-x="40" 
d="M-296 648h-116l104 112h118l106 -112h-114l-50 44z" />
    <glyph glyph-name="atilde" unicode="&#xe3;" horiz-adv-x="40" 
d="M-296 648h-116l104 112h118l106 -112h-114l-50 44zM-96 922c0 -38 -8.50098 -67.1689 -25.501 -87.502s-39.833 -30.5 -68.5 -30.5l-32 4c-21.333 10.667 -39.666 19 -54.999 25s-27 9 -35 9c-9.33301 0 -17 -3 -23 -9s-9 -15.667 -9 -29h-66
c0 38.667 9 68.334 27 89.001s41 31 69 31c5.33301 0 10.333 -0.333008 15 -1s13.667 -3 27 -7c20 -9.33301 36.833 -16.666 50.5 -21.999s23.5 -8 29.5 -8c18.667 0 28 12 28 36h68z" />
    <glyph glyph-name="adieresis" unicode="&#xe4;" horiz-adv-x="40" 
d="M-296 648h-116l104 112h118l106 -112h-114l-50 44zM-346 -202v138h156v-138h-156z" />
    <glyph glyph-name="aring" unicode="&#xe5;" horiz-adv-x="40" 
d="M-306 648h-116l104 112h118l106 -112h-114l-50 44zM-134 726l-0.000976562 43.9971c0 16 5.33301 29.333 16 40c2.66699 2.66699 11 9.33398 25 20.001c8.66699 7.33301 14.667 14.333 18 21s5 14.334 5 23.001l-1 27c0 3.33301 -1 6 -3 8c-4 4 -9 6 -15 6
c-7.33301 0 -14.166 -0.833008 -20.499 -2.5s-9.5 -5.5 -9.5 -11.5v-40h-79v28c0 25.333 10.833 44.333 32.5 57s48.167 19 79.5 19h5c28 0 52.667 -4.5 74 -13.5s32 -24.167 32 -45.5v-29c0 -11.333 -0.666992 -21 -2 -29s-3.83301 -14.667 -7.5 -20
s-15.167 -16.666 -34.5 -33.999c-15.333 -13.333 -23 -24.333 -23 -33v-35h-92z" />
    <glyph glyph-name="ae" unicode="&#xe6;" horiz-adv-x="246" 
d="M200 2h-164v590h164v-590zM69 627l0.000976562 46c0 11.333 2.16699 21 6.5 29s16.5 19.667 36.5 35c10 8 16.667 15.333 20 22s5 14.667 5 24l-1 28c0 10 -6.33301 15 -19 15c-8 0 -15.333 -1 -22 -3s-10 -6 -10 -12v-42h-83v30c0 27.333 10.833 47.5 32.5 60.5
s50.167 19.5 85.5 19.5h5c29.333 0 55.333 -4.83301 78 -14.5s34 -25.5 34 -47.5v-31c0 -12 -0.833008 -22.333 -2.5 -31s-4.83398 -16.667 -9.50098 -24c-1.33301 -1.33301 -13 -12 -35 -32c-16 -14 -24 -25.667 -24 -35v-37h-97z" />
    <glyph glyph-name="ccedilla" unicode="&#xe7;" 
 />
    <glyph glyph-name="egrave" unicode="&#xe8;" horiz-adv-x="40" 
d="M-304 760c0 -34.667 17.999 -52 53.999 -52s54 17.333 54 52h86c0 -40 -13.333 -69.667 -40 -89c-23.333 -16.667 -56.666 -25 -99.999 -25c-44 0 -77.333 8 -100 24c-26.667 18.667 -40 48.667 -40 90h86zM-248.001 792l-112 134h136l52 -132z" />
    <glyph glyph-name="eacute" unicode="&#xe9;" horiz-adv-x="40" 
d="M-304 760c0 -34.667 17.999 -52 53.999 -52s54 17.333 54 52h86c0 -40 -13.333 -69.667 -40 -89c-23.333 -16.667 -56.666 -25 -99.999 -25c-44 0 -77.333 8 -100 24c-26.667 18.667 -40 48.667 -40 90h86zM-232.001 792h-80l54 132h134z" />
    <glyph glyph-name="ecircumflex" unicode="&#xea;" horiz-adv-x="40" 
d="M-304 760c0 -34.667 17.999 -52 53.999 -52s54 17.333 54 52h86c0 -40 -13.333 -69.667 -40 -89c-23.333 -16.667 -56.666 -25 -99.999 -25c-44 0 -77.333 8 -100 24c-26.667 18.667 -40 48.667 -40 90h86z" />
    <glyph glyph-name="edieresis" unicode="&#xeb;" horiz-adv-x="40" 
d="M-304 760c0 -34.667 17.999 -52 53.999 -52s54 17.333 54 52h86c0 -40 -13.333 -69.667 -40 -89c-23.333 -16.667 -56.666 -25 -99.999 -25c-44 0 -77.333 8 -100 24c-26.667 18.667 -40 48.667 -40 90h86zM-330.001 -194v138h156v-138h-156z" />
    <glyph glyph-name="igrave" unicode="&#xec;" horiz-adv-x="246" 
d="M200 2h-164v590h164v-590zM96 644l-112 134h136l52 -134h-76z" />
    <glyph glyph-name="iacute" unicode="&#xed;" horiz-adv-x="246" 
d="M200 2h-164v590h164v-590zM140 644h-80l54 132h134z" />
    <glyph glyph-name="icircumflex" unicode="&#xee;" horiz-adv-x="512" 
d="M42 -130v104.002l78 -2c14.667 0 25 1.83301 31 5.5s9 11.167 9 22.5c0 10.667 -0.666992 18.667 -2 24l-130 568h174l40 -244c5.33301 -24.667 9.33301 -53.334 12 -86.001s4 -62.667 4 -90h4c0 59.333 6.66699 124.666 20 195.999l40 224h148l-136 -590
c-8.66699 -44.667 -21.667 -76.667 -39 -96c-21.333 -24 -54.333 -36 -99 -36h-154zM354 -197.998v138h132v-138h-132z" />
    <glyph glyph-name="idieresis" unicode="&#xef;" horiz-adv-x="40" 
d="M-330 -194v138h156v-138h-156z" />
    <glyph glyph-name="eth" unicode="&#xf0;" 
 />
    <glyph glyph-name="ntilde" unicode="&#xf1;" horiz-adv-x="476" 
d="M276 702v38h154v-38h26v-72h-26v-628h-162v76c-18 -58.667 -56.667 -88 -116 -88h-16c-42 4.66699 -70.333 24 -85 58c-10 23.333 -15 59.333 -15 108v280c0 54 7 91.167 21 111.5s35 33.833 63 40.5l40 4c54.667 0 92.667 -25.333 114 -76v112h-98v74h100zM200 178
c0 -15.333 2.16699 -27.5 6.5 -36.5s12.833 -13.5 25.5 -13.5c13.333 0 22.333 4.66699 27 14s7 21.333 7 36v240c0 14.667 -1 25.667 -3 33s-6 12 -12 14s-13 3 -21 3c-10 0 -17.5 -5 -22.5 -15s-7.5 -21.667 -7.5 -35v-240z" />
    <glyph glyph-name="ograve" unicode="&#xf2;" horiz-adv-x="246" 
d="M200 2h-164v590h164v-590zM44 -202v138h156v-138h-156zM200 652h-164v108h164v-108z" />
    <glyph glyph-name="oacute" unicode="&#xf3;" horiz-adv-x="246" 
d="M200 2h-164v590h164v-590zM276 772c0 -38 -8.83203 -67.1699 -26.499 -87.5029s-40.834 -30.5 -69.501 -30.5l-30 4c-22 10.667 -40.833 19 -56.5 25s-27.5 9 -35.5 9c-9.33301 0 -16.666 -3 -21.999 -9s-8 -15.667 -8 -29h-66c0 38.667 8.83301 68.334 26.5 89.001
s40.167 31 67.5 31c7.33301 0 13.666 -0.5 18.999 -1.5s13.666 -3.16699 24.999 -6.5c18.667 -9.33301 34.667 -16.666 48 -21.999s23.333 -8 30 -8c8.66699 0 15.834 2.83301 21.501 8.5s8.5 14.834 8.5 27.501h68z" />
    <glyph glyph-name="ocircumflex" unicode="&#xf4;" horiz-adv-x="500" 
d="M198 452v-304c0 -15.333 2.33301 -27.5 7 -36.5s13.667 -13.5 27 -13.5c12.667 0 21.5 4.83301 26.5 14.5s7.5 21.5 7.5 35.5v304c0 15.333 -3.5 27.5 -10.5 36.5s-14.833 13.5 -23.5 13.5s-16.5 -4.5 -23.5 -13.5s-10.5 -21.167 -10.5 -36.5zM404 540
c11.333 6 20.833 14.667 28.5 26s11.5 25.333 11.5 42v7h-69v73h120v-62c0 -33.333 -7.5 -60.5 -22.5 -81.5s-33.167 -35.167 -54.5 -42.5c6 -13.333 9.5 -26.833 10.5 -40.5s1.5 -35.5 1.5 -65.5v-198c0 -72.667 -14 -125 -42 -157c-30.667 -35.333 -82.667 -53 -156 -53
c-72 0 -123 16 -153 48s-45 82.667 -45 152l2 10v198c0 36.667 1.5 64.834 4.5 84.501s11.5 39.5 25.5 59.5c17.333 24 40.833 41 70.5 51s61.5 15 95.5 15c35.333 0 68.333 -6.33301 99 -19s55 -28.334 73 -47.001z" />
    <glyph glyph-name="otilde" unicode="&#xf5;" horiz-adv-x="40" 
d="M-102 784c0 -38 -8.50098 -67.1689 -25.501 -87.502s-39.833 -30.5 -68.5 -30.5l-32 4c-21.333 10.667 -39.666 19 -54.999 25s-27 9 -35 9c-9.33301 0 -17 -3 -23 -9s-9 -15.667 -9 -29h-66c0 38.667 9 68.334 27 89.001s41 31 69 31c5.33301 0 10.333 -0.333008 15 -1
s13.667 -3 27 -7c20 -9.33301 36.833 -16.666 50.5 -21.999s23.5 -8 29.5 -8c18.667 0 28 12 28 36h68z" />
    <glyph glyph-name="odieresis" unicode="&#xf6;" horiz-adv-x="500" 
d="M460 502l0.00195312 -499.999h-172v68c-17.333 -24.667 -36.833 -43.834 -58.5 -57.501s-46.834 -20.5 -75.501 -20.5h-16c-43.333 0 -72.666 18.667 -87.999 56c-9.33301 22.667 -14 59.334 -14 110.001v434h176v-416c0 -19.333 3.16699 -32.833 9.5 -40.5
s15.166 -11.5 26.499 -11.5c13.333 0 22.666 5 27.999 15s8 22.333 8 37v416h176v-46c21.333 11.333 32 34.666 32 69.999v7h-69v88h120v-77c0 -37.333 -6.33301 -66.5 -19 -87.5s-34 -35.833 -64 -44.5z" />
    <glyph glyph-name="divide" unicode="&#xf7;" 
 />
    <glyph glyph-name="oslash" unicode="&#xf8;" horiz-adv-x="40" 
d="M-276 646l-112 134h136l52 -132z" />
    <glyph glyph-name="ugrave" unicode="&#xf9;" horiz-adv-x="40" 
d="M-236 652h-80l54 132h134z" />
    <glyph glyph-name="uacute" unicode="&#xfa;" horiz-adv-x="40" 
d="M-304 760c0 -34.667 17.999 -52 53.999 -52s54 17.333 54 52h86c0 -40 -13.333 -69.667 -40 -89c-23.333 -16.667 -56.666 -25 -99.999 -25c-44 0 -77.333 8 -100 24c-26.667 18.667 -40 48.667 -40 90h86zM-288.001 786l-0.000976562 43.9971c0 16 5.33301 29.333 16 40
c2.66699 2.66699 11 9.33398 25 20.001c8.66699 7.33301 14.667 14.333 18 21s5 14.334 5 23.001l-1 27c0 3.33301 -1 6 -3 8c-4 4 -9 6 -15 6c-7.33301 0 -14.166 -0.833008 -20.499 -2.5s-9.5 -5.5 -9.5 -11.5v-40h-79v28c0 25.333 10.833 44.333 32.5 57
s48.167 19 79.5 19h5c28 0 52.667 -4.5 74 -13.5s32 -24.167 32 -45.5v-29c0 -11.333 -0.666992 -21 -2 -29s-3.83301 -14.667 -7.5 -20s-15.167 -16.666 -34.5 -33.999c-15.333 -13.333 -23 -24.333 -23 -33v-35h-92z" />
    <glyph glyph-name="ucircumflex" unicode="&#xfb;" horiz-adv-x="40" 
d="M-292 645l-0.000976562 43.9971c0 16 5.33301 29.333 16 40c2.66699 2.66699 11 9.33398 25 20.001c8.66699 7.33301 14.667 14.333 18 21s5 14.334 5 23.001l-1 27c0 3.33301 -1 6 -3 8c-4 4 -9 6 -15 6c-7.33301 0 -14.166 -0.833008 -20.499 -2.5
s-9.5 -5.5 -9.5 -11.5v-40h-79v28c0 25.333 10.833 44.333 32.5 57s48.167 19 79.5 19h5c28 0 52.667 -4.5 74 -13.5s32 -24.167 32 -45.5v-29c0 -11.333 -0.666992 -21 -2 -29s-3.83301 -14.667 -7.5 -20s-15.167 -16.666 -34.5 -33.999
c-15.333 -13.333 -23 -24.333 -23 -33v-35h-92z" />
    <glyph glyph-name="udieresis" unicode="&#xfc;" horiz-adv-x="40" 
d="M-304 760c0 -34.667 17.999 -52 53.999 -52s54 17.333 54 52h86c0 -40 -13.333 -69.667 -40 -89c-23.333 -16.667 -56.666 -25 -99.999 -25c-44 0 -77.333 8 -100 24c-26.667 18.667 -40 48.667 -40 90h86zM-16.001 926c0 -38 -8.50098 -67.1689 -25.501 -87.502
s-39.833 -30.5 -68.5 -30.5l-32 4c-21.333 10.667 -39.666 19 -54.999 25s-27 9 -35 9c-9.33301 0 -17 -3 -23 -9s-9 -15.667 -9 -29h-66c0 38.667 9 68.334 27 89.001s41 31 69 31c5.33301 0 10.333 -0.333008 15 -1s13.667 -3 27 -7
c20 -9.33301 36.833 -16.666 50.5 -21.999s23.5 -8 29.5 -8c18.667 0 28 12 28 36h68z" />
    <glyph glyph-name="yacute" unicode="&#xfd;" horiz-adv-x="641" 
d="M171 433v-291c0 -14.667 2.5 -26.5 7.5 -35.5s13.833 -13.5 26.5 -13.5c12 0 20.5 4.66699 25.5 14s7.5 21 7.5 35v291c0 14 -3.5 25.333 -10.5 34s-14.5 13 -22.5 13c-9.33301 0 -17.333 -4 -24 -12s-10 -19.667 -10 -35zM16 380c0 56 7.33203 98.335 21.999 127.002
c19.333 37.333 54 60.666 104 69.999c12 1.33301 20.667 2.33301 26 3s13 1 23 1c24.667 0 47.5 -4.16699 68.5 -12.5s40.167 -21.166 57.5 -38.499c34 34 73.333 51 118 51h8c52 0 92.833 -14.167 122.5 -42.5s44.5 -68.166 44.5 -119.499v-151h-220v-126
c0 -13.333 2.66699 -24.833 8 -34.5s13 -14.5 23 -14.5l12 1c8.66699 2.66699 14.834 10.5 18.501 23.5s5.5 27.5 5.5 43.5l-2 59h155v-55c0 -26.667 -1.66699 -48.834 -5 -66.501s-10.666 -34.834 -21.999 -51.501c-11.333 -18.667 -27.833 -32.834 -49.5 -42.501
s-43.834 -14.5 -66.501 -14.5h-20c-52 0 -95.333 18.333 -130 55c-36 -36.667 -80.667 -55 -134 -55h-16c-54.667 0 -95 19 -121 57c-21.333 31.333 -32 75.333 -32 132l2 10v191zM454.999 364.002v47c0 27.333 -2.83301 46 -8.5 56s-14.167 15 -25.5 15
c-12 0 -20.833 -6.66699 -26.5 -20s-8.5 -29 -8.5 -47c0 -7.33301 0.666992 -17 2 -29s2 -19.333 2 -22h65z" />
    <glyph glyph-name="thorn" unicode="&#xfe;" 
 />
    <glyph glyph-name="ydieresis" unicode="&#xff;" horiz-adv-x="512" 
d="M42 -130v104.002l78 -2c14.667 0 25 1.83301 31 5.5s9 11.167 9 22.5c0 10.667 -0.666992 18.667 -2 24l-130 568h174l40 -244c5.33301 -24.667 9.33301 -53.334 12 -86.001s4 -62.667 4 -90h4c0 59.333 6.66699 124.666 20 195.999l40 224h148l-136 -590
c-8.66699 -44.667 -21.667 -76.667 -39 -96c-21.333 -24 -54.333 -36 -99 -36h-154zM354 -197.998v138h132v-138h-132z" />
    <glyph glyph-name="OE" unicode="&#x152;" horiz-adv-x="40" 
d="M-316 770l-0.000976562 43.9971c0 16 5.33301 29.333 16 40c2.66699 2.66699 11 9.33398 25 20.001c8.66699 7.33301 14.667 14.333 18 21s5 14.334 5 23.001l-1 27c0 3.33301 -1 6 -3 8c-4 4 -9 6 -15 6c-7.33301 0 -14.166 -0.833008 -20.499 -2.5
s-9.5 -5.5 -9.5 -11.5v-40h-79v28c0 25.333 10.833 44.333 32.5 57s48.167 19 79.5 19h5c28 0 52.667 -4.5 74 -13.5s32 -24.167 32 -45.5v-29c0 -11.333 -0.666992 -21 -2 -29s-3.83301 -14.667 -7.5 -20s-15.167 -16.666 -34.5 -33.999
c-15.333 -13.333 -23 -24.333 -23 -33v-35h-92z" />
    <glyph glyph-name="oe" unicode="&#x153;" horiz-adv-x="40" 
d="M-292 650l-0.000976562 43.9971c0 16 5.33301 29.333 16 40c2.66699 2.66699 11 9.33398 25 20.001c8.66699 7.33301 14.667 14.333 18 21s5 14.334 5 23.001l-1 27c0 3.33301 -1 6 -3 8c-4 4 -9 6 -15 6c-7.33301 0 -14.166 -0.833008 -20.499 -2.5
s-9.5 -5.5 -9.5 -11.5v-40h-79v28c0 25.333 10.833 44.333 32.5 57s48.167 19 79.5 19h5c28 0 52.667 -4.5 74 -13.5s32 -24.167 32 -45.5v-29c0 -11.333 -0.666992 -21 -2 -29s-3.83301 -14.667 -7.5 -20s-15.167 -16.666 -34.5 -33.999
c-15.333 -13.333 -23 -24.333 -23 -33v-35h-92z" />
    <glyph glyph-name="Scaron" unicode="&#x160;" 
 />
    <glyph glyph-name="scaron" unicode="&#x161;" 
 />
    <glyph glyph-name="Ydieresis" unicode="&#x178;" horiz-adv-x="558" 
d="M178 0v270l-150 468h192l26 -126c4.66699 -20.667 11.167 -51 19.5 -91s13.833 -69.667 16.5 -89h4c4 28.667 9 58 15 88s13 60.667 21 92l28 126h172l-156 -468v-270h-188zM194 -202v138h156v-138h-156z" />
    <glyph glyph-name="florin" unicode="&#x192;" horiz-adv-x="818" 
d="M81 705h242v-61h-79v-205h-85v205h-78v61zM374 705h108l53 -146l56 146h106v-266h-75v189l-69 -189h-33l-71 189v-189h-75v266z" />
    <glyph glyph-name="circumflex" unicode="&#x2c6;" 
 />
    <glyph glyph-name="tilde" unicode="&#x2dc;" 
 />
    <glyph glyph-name="endash" unicode="&#x2013;" 
 />
    <glyph glyph-name="emdash" unicode="&#x2014;" 
 />
    <glyph glyph-name="quoteleft" unicode="&#x2018;" horiz-adv-x="302" 
d="M58 482l34 258h154l-82 -258h-106z" />
    <glyph glyph-name="quoteright" unicode="&#x2019;" horiz-adv-x="302" 
d="M58 482l34 258h154l-82 -258h-106z" />
    <glyph glyph-name="quotesinglbase" unicode="&#x201a;" horiz-adv-x="928" 
d="M171 431v195c0 10.667 -2.16699 18.5 -6.5 23.5s-9.83301 7.5 -16.5 7.5c-16 0 -24 -10.333 -24 -31v-195c0 -22 7.33301 -33 22 -33c6 0 11.667 3 17 9s8 14 8 24zM22 600c0 26 1.83301 45.835 5.5 59.502s12 25.667 25 36s27.333 17.666 43 21.999s32.5 6.5 50.5 6.5
l33 -2c35.333 -5.33301 60 -17.833 74 -37.5s21 -47.834 21 -84.501v-145c0 -28.667 -2.66699 -49.667 -8 -63s-13.833 -24.5 -25.5 -33.5s-26.167 -15.833 -43.5 -20.5s-33.666 -7 -48.999 -7c-44.667 0 -76.834 9.83301 -96.501 29.5s-29.5 51.167 -29.5 94.5v145z
M417 724.002h77l-285 -736h-75zM352 254.002c0 22 2.33203 40.832 6.99902 56.499s14.334 28.834 29.001 39.501c10 8.66699 23.5 15.5 40.5 20.5s33.5 7.5 49.5 7.5l34 -2c34.667 -6.66699 58.667 -19.5 72 -38.5s20 -46.833 20 -83.5v-146
c0 -43.333 -9.16699 -74.166 -27.5 -92.499s-50.5 -27.5 -96.5 -27.5c-44.667 0 -77.167 9.16699 -97.5 27.5s-30.5 49.166 -30.5 92.499v146zM503.999 83.001l0.000976562 195.001c0 22 -8 33 -24 33c-6.66699 0 -12.167 -2.83301 -16.5 -8.5s-6.5 -13.834 -6.5 -24.501
v-195c0 -10 2.16699 -18.167 6.5 -24.5s9.16602 -9.5 14.499 -9.5c6.66699 0 12.667 3 18 9s8 14.333 8 25zM640 254.002c0 24 1.66699 43.335 5 58.002s11.5 27 24.5 37s28 17.333 45 22s33.5 7 49.5 7l33 -2c35.333 -6.66699 60 -19.5 74 -38.5s21 -46.833 21 -83.5v-146
c0 -42.667 -10 -73.334 -30 -92.001s-52.667 -28 -98 -28c-44.667 0 -76.5 9.16699 -95.5 27.5s-28.5 49.166 -28.5 92.499v146zM789 83.0039v195.001c0 9.33301 -2.5 17.166 -7.5 23.499s-10.833 9.5 -17.5 9.5c-16 0 -24 -11 -24 -33v-195c0 -22.667 8 -34 24 -34
c16.667 0 25 11.333 25 34z" />
    <glyph glyph-name="quotedblleft" unicode="&#x201c;" horiz-adv-x="406" 
d="M58 720h110v-280h-110v280zM228 720h112v-280h-112v280z" />
    <glyph glyph-name="quotedblright" unicode="&#x201d;" horiz-adv-x="406" 
d="M58 720h110v-280h-110v280zM228 720h112v-280h-112v280z" />
    <glyph glyph-name="quotedblbase" unicode="&#x201e;" 
 />
    <glyph glyph-name="dagger" unicode="&#x2020;" 
 />
    <glyph glyph-name="daggerdbl" unicode="&#x2021;" 
 />
    <glyph glyph-name="bullet" unicode="&#x2022;" 
 />
    <glyph glyph-name="ellipsis" unicode="&#x2026;" 
 />
    <glyph glyph-name="perthousand" unicode="&#x2030;" 
 />
    <glyph glyph-name="guilsinglleft" unicode="&#x2039;" 
 />
    <glyph glyph-name="guilsinglright" unicode="&#x203a;" 
 />
    <glyph glyph-name="trademark" unicode="&#x2122;" 
 />
    <glyph glyph-name=".null" horiz-adv-x="0" 
 />
    <glyph glyph-name="nonmarkingreturn" horiz-adv-x="260" 
 />
  </font>
</defs>
</svg>
